<svg width="223" height="288" viewBox="0 0 223 288" fill="none" xmlns="http://www.w3.org/2000/svg">
<g clip-path="url(#clip0)">
<path d="M145.53 51.2341H93.84L84.8169 19.3096H154.553L145.53 51.2341Z" stroke="black" stroke-miterlimit="10"/>
<path d="M111.629 233.679C111.629 233.679 115.239 235.581 122.328 222.404C129.418 209.226 129.418 213.03 129.418 213.03L129.676 224.034L127.098 236.396L121.555 256.366L119.879 261.257L116.914 261.8L111.887 239.385L110.083 233.951L111.629 233.679Z" fill="#484848"/>
<path d="M129.546 226.207C129.546 226.207 152.748 228.109 152.748 231.913C152.748 235.716 147.335 241.286 136.636 245.09C126.324 248.758 108.02 246.992 108.02 246.992C108.02 246.992 108.02 246.856 129.546 226.207Z" fill="#231F20" stroke="black" stroke-miterlimit="10"/>
<path d="M129.546 226.208L120.394 260.442C119.878 262.072 117.687 262.072 117.3 260.442L108.148 226.208V36.1549C108.148 36.1549 111.758 30.4492 118.847 30.4492C124.261 30.4492 129.546 36.1549 129.546 36.1549V226.208Z" stroke="black" stroke-miterlimit="10"/>
<path d="M118.848 24.8789V39.9581" stroke="black" stroke-miterlimit="10"/>
<path d="M93.8408 38.0566H108.02V47.4302L93.8408 38.0566Z" stroke="black" stroke-miterlimit="10"/>
<path d="M143.726 38.0566H129.546V47.4302L143.726 38.0566Z" stroke="black" stroke-miterlimit="10"/>
<path d="M92.9384 28.6827C94.4334 28.6827 95.6453 27.8312 95.6453 26.7808C95.6453 25.7304 94.4334 24.8789 92.9384 24.8789C91.4434 24.8789 90.2314 25.7304 90.2314 26.7808C90.2314 27.8312 91.4434 28.6827 92.9384 28.6827Z" stroke="black" stroke-miterlimit="10"/>
<path d="M98.2231 47.5659C99.7181 47.5659 100.93 47.1402 100.93 46.615C100.93 46.0898 99.7181 45.6641 98.2231 45.6641C96.728 45.6641 95.5161 46.0898 95.5161 46.615C95.5161 47.1402 96.728 47.5659 98.2231 47.5659Z" stroke="black" stroke-miterlimit="10"/>
<path d="M108.148 44.3062C108.148 44.3062 113.433 39.959 118.847 39.959C122.457 39.959 129.546 44.3062 129.546 44.3062" stroke="black" stroke-miterlimit="10"/>
<path d="M106.344 224.306C106.344 224.306 84.9463 224.306 84.9463 220.503C84.9463 216.699 101.059 209.227 118.847 211.129C136.636 213.031 104.539 209.227 106.344 224.306Z" stroke="black" stroke-miterlimit="10"/>
<path d="M144.628 28.6827C146.123 28.6827 147.335 27.8312 147.335 26.7808C147.335 25.7304 146.123 24.8789 144.628 24.8789C143.133 24.8789 141.921 25.7304 141.921 26.7808C141.921 27.8312 143.133 28.6827 144.628 28.6827Z" stroke="black" stroke-miterlimit="10"/>
<path d="M141.147 47.5659C142.642 47.5659 143.854 47.1402 143.854 46.615C143.854 46.0898 142.642 45.6641 141.147 45.6641C139.652 45.6641 138.44 46.0898 138.44 46.615C138.44 47.1402 139.652 47.5659 141.147 47.5659Z" stroke="black" stroke-miterlimit="10"/>
<path d="M120.523 261.936H64.3218V30.585H120.523" stroke="#919191" stroke-width="0.5" stroke-miterlimit="10"/>
<path d="M153 237L153 269L85 269L85 237" stroke="#919191" stroke-width="0.5" stroke-miterlimit="10"/>
<path d="M51.6323 164.904C50.9077 164.904 50.256 164.763 49.6772 164.48C49.0985 164.193 48.6519 163.797 48.3374 163.291C48.0229 162.781 47.8657 162.2 47.8657 161.548C47.8657 160.541 48.2144 159.727 48.9116 159.107C49.6089 158.483 50.5363 158.171 51.6938 158.171H51.7827C52.5028 158.171 53.1499 158.31 53.7241 158.588C54.2938 158.861 54.7381 159.256 55.0571 159.771C55.3761 160.281 55.5356 160.869 55.5356 161.534C55.5356 162.537 55.187 163.35 54.4897 163.975C53.7925 164.594 52.8696 164.904 51.7212 164.904H51.6323ZM51.7827 163.633C52.603 163.633 53.2616 163.444 53.7583 163.065C54.255 162.683 54.5034 162.172 54.5034 161.534C54.5034 160.892 54.2528 160.381 53.7515 160.003C53.2456 159.625 52.5392 159.436 51.6323 159.436C50.8211 159.436 50.1649 159.629 49.6636 160.017C49.1577 160.399 48.9048 160.91 48.9048 161.548C48.9048 162.172 49.1532 162.676 49.6499 163.059C50.1466 163.441 50.8576 163.633 51.7827 163.633ZM49.0278 151.239V153.721H55.3989V154.985H49.0278V157.419H48.0024V151.239H49.0278ZM55.3989 140.145V146.666H54.4897L50.6616 143.221C50.0828 142.71 49.6134 142.359 49.2534 142.168C48.8888 141.972 48.5129 141.874 48.1255 141.874C47.606 141.874 47.1799 142.031 46.8472 142.346C46.5145 142.66 46.3481 143.079 46.3481 143.604C46.3481 144.232 46.5282 144.722 46.8882 145.073C47.2437 145.42 47.7404 145.593 48.3784 145.593V146.857C47.4624 146.857 46.7218 146.563 46.1567 145.976C45.5916 145.383 45.3091 144.592 45.3091 143.604C45.3091 142.678 45.5529 141.947 46.0405 141.409C46.5236 140.871 47.1685 140.603 47.9751 140.603C48.9549 140.603 50.1216 141.227 51.4751 142.476L54.3667 145.142V140.145H55.3989ZM51.1538 129.091C52.6349 129.091 53.7355 129.344 54.4556 129.85C55.1756 130.355 55.5356 131.146 55.5356 132.222C55.5356 133.284 55.1847 134.07 54.4829 134.58C53.7765 135.09 52.7238 135.355 51.3247 135.373H49.6362C48.1733 135.373 47.0864 135.12 46.3755 134.614C45.6646 134.108 45.3091 133.315 45.3091 132.235C45.3091 131.164 45.6532 130.376 46.3413 129.87C47.0249 129.364 48.0822 129.104 49.5132 129.091H51.1538ZM49.4243 130.355C48.3534 130.355 47.5741 130.506 47.0864 130.807C46.5942 131.107 46.3481 131.584 46.3481 132.235C46.3481 132.882 46.592 133.354 47.0796 133.65C47.5672 133.947 48.3169 134.099 49.3286 134.108H51.3521C52.4276 134.108 53.2228 133.953 53.7378 133.644C54.2482 133.329 54.5034 132.855 54.5034 132.222C54.5034 131.597 54.2619 131.135 53.7788 130.834C53.2957 130.529 52.5347 130.369 51.4956 130.355H49.4243ZM51.1538 121.229C52.6349 121.229 53.7355 121.482 54.4556 121.988C55.1756 122.494 55.5356 123.285 55.5356 124.36C55.5356 125.422 55.1847 126.208 54.4829 126.719C53.7765 127.229 52.7238 127.493 51.3247 127.512H49.6362C48.1733 127.512 47.0864 127.259 46.3755 126.753C45.6646 126.247 45.3091 125.454 45.3091 124.374C45.3091 123.303 45.6532 122.515 46.3413 122.009C47.0249 121.503 48.0822 121.243 49.5132 121.229H51.1538ZM49.4243 122.494C48.3534 122.494 47.5741 122.645 47.0864 122.945C46.5942 123.246 46.3481 123.722 46.3481 124.374C46.3481 125.021 46.592 125.493 47.0796 125.789C47.5672 126.085 48.3169 126.238 49.3286 126.247H51.3521C52.4276 126.247 53.2228 126.092 53.7378 125.782C54.2482 125.468 54.5034 124.994 54.5034 124.36C54.5034 123.736 54.2619 123.273 53.7788 122.973C53.2957 122.667 52.5347 122.508 51.4956 122.494H49.4243ZM51.1538 113.368C52.6349 113.368 53.7355 113.621 54.4556 114.127C55.1756 114.633 55.5356 115.424 55.5356 116.499C55.5356 117.561 55.1847 118.347 54.4829 118.857C53.7765 119.368 52.7238 119.632 51.3247 119.65H49.6362C48.1733 119.65 47.0864 119.397 46.3755 118.892C45.6646 118.386 45.3091 117.593 45.3091 116.513C45.3091 115.442 45.6532 114.653 46.3413 114.147C47.0249 113.642 48.0822 113.382 49.5132 113.368H51.1538ZM49.4243 114.633C48.3534 114.633 47.5741 114.783 47.0864 115.084C46.5942 115.385 46.3481 115.861 46.3481 116.513C46.3481 117.16 46.592 117.632 47.0796 117.928C47.5672 118.224 48.3169 118.377 49.3286 118.386H51.3521C52.4276 118.386 53.2228 118.231 53.7378 117.921C54.2482 117.606 54.5034 117.132 54.5034 116.499C54.5034 115.875 54.2619 115.412 53.7788 115.111C53.2957 114.806 52.5347 114.646 51.4956 114.633H49.4243ZM53.7241 103.887L48.0024 101.371V99.792H55.3989V101.057H50.019L55.3989 103.449V104.324L49.9028 106.765H55.3989V108.029H48.0024V106.389L53.7241 103.887ZM53.7241 93.4961L48.0024 90.9805V89.4014H55.3989V90.666H50.019L55.3989 93.0586V93.9336L49.9028 96.374H55.3989V97.6387H48.0024L48.0024 95.998L53.7241 93.4961Z" fill="black"/>
<path d="M163.07 77.6797C163.07 78.7943 162.883 79.7682 162.508 80.6016C162.133 81.4297 161.602 82.0625 160.914 82.5C160.227 82.9375 159.424 83.1562 158.508 83.1562C157.617 83.1562 156.831 82.9427 156.148 82.5156L155.391 83.7266H154.281L155.406 81.9219C154.417 80.9219 153.922 79.4844 153.922 77.6094V76.9609C153.922 75.8672 154.112 74.901 154.492 74.0625C154.872 73.224 155.409 72.5833 156.102 72.1406C156.799 71.6927 157.596 71.4688 158.492 71.4688C159.607 71.4688 160.549 71.7943 161.32 72.4453L162.125 71.1562H163.227L161.984 73.1484C162.698 74.1224 163.06 75.375 163.07 76.9062V77.6797ZM155.414 77.6797C155.414 78.9505 155.669 79.9531 156.18 80.6875L160.586 73.625C160.055 73.0469 159.357 72.7578 158.492 72.7578C157.544 72.7578 156.797 73.1198 156.25 73.8438C155.708 74.5625 155.43 75.5625 155.414 76.8438V77.6797ZM161.578 76.9453C161.578 75.9974 161.432 75.1823 161.141 74.5L156.852 81.3828C157.326 81.7161 157.878 81.8828 158.508 81.8828C159.477 81.8828 160.227 81.5312 160.758 80.8281C161.289 80.1198 161.562 79.1068 161.578 77.7891V76.9453ZM175.812 74.5938C175.812 75.1615 175.661 75.6667 175.359 76.1094C175.062 76.5521 174.659 76.8984 174.148 77.1484C174.742 77.4036 175.211 77.776 175.555 78.2656C175.904 78.7552 176.078 79.3099 176.078 79.9297C176.078 80.9141 175.745 81.6979 175.078 82.2812C174.417 82.8646 173.544 83.1562 172.461 83.1562C171.367 83.1562 170.49 82.8646 169.828 82.2812C169.172 81.6927 168.844 80.9089 168.844 79.9297C168.844 79.3151 169.01 78.7604 169.344 78.2656C169.682 77.7708 170.148 77.3958 170.742 77.1406C170.237 76.8906 169.839 76.5443 169.547 76.1016C169.255 75.6589 169.109 75.1562 169.109 74.5938C169.109 73.6354 169.417 72.875 170.031 72.3125C170.646 71.75 171.456 71.4688 172.461 71.4688C173.461 71.4688 174.268 71.75 174.883 72.3125C175.503 72.875 175.812 73.6354 175.812 74.5938ZM174.633 79.8984C174.633 79.263 174.43 78.7448 174.023 78.3438C173.622 77.9427 173.096 77.7422 172.445 77.7422C171.794 77.7422 171.271 77.9401 170.875 78.3359C170.484 78.7318 170.289 79.2526 170.289 79.8984C170.289 80.5443 170.479 81.0521 170.859 81.4219C171.245 81.7917 171.779 81.9766 172.461 81.9766C173.138 81.9766 173.669 81.7917 174.055 81.4219C174.44 81.0469 174.633 80.5391 174.633 79.8984ZM172.461 72.6562C171.893 72.6562 171.432 72.8333 171.078 73.1875C170.729 73.5365 170.555 74.013 170.555 74.6172C170.555 75.1953 170.727 75.6641 171.07 76.0234C171.419 76.3776 171.883 76.5547 172.461 76.5547C173.039 76.5547 173.5 76.3776 173.844 76.0234C174.193 75.6641 174.367 75.1953 174.367 74.6172C174.367 74.0391 174.188 73.5677 173.828 73.2031C173.469 72.8385 173.013 72.6562 172.461 72.6562ZM183.438 78C183.135 78.3594 182.773 78.6484 182.352 78.8672C181.935 79.0859 181.477 79.1953 180.977 79.1953C180.32 79.1953 179.747 79.0339 179.258 78.7109C178.773 78.388 178.398 77.9349 178.133 77.3516C177.867 76.763 177.734 76.1146 177.734 75.4062C177.734 74.6458 177.878 73.9609 178.164 73.3516C178.456 72.7422 178.867 72.276 179.398 71.9531C179.93 71.6302 180.549 71.4688 181.258 71.4688C182.383 71.4688 183.268 71.8906 183.914 72.7344C184.565 73.5729 184.891 74.7188 184.891 76.1719V76.5938C184.891 78.8073 184.453 80.4245 183.578 81.4453C182.703 82.4609 181.383 82.9818 179.617 83.0078H179.336V81.7891H179.641C180.833 81.7682 181.75 81.4583 182.391 80.8594C183.031 80.2552 183.38 79.3021 183.438 78ZM181.211 78C181.695 78 182.141 77.8516 182.547 77.5547C182.958 77.2578 183.258 76.8906 183.445 76.4531V75.875C183.445 74.9271 183.24 74.1562 182.828 73.5625C182.417 72.9688 181.896 72.6719 181.266 72.6719C180.63 72.6719 180.12 72.9167 179.734 73.4062C179.349 73.8906 179.156 74.5312 179.156 75.3281C179.156 76.1042 179.341 76.7448 179.711 77.25C180.086 77.75 180.586 78 181.211 78ZM195.867 81.0859L198.742 74.5469H200.547V83H199.102V76.8516L196.367 83H195.367L192.578 76.7188V83H191.133V74.5469H193.008L195.867 81.0859ZM207.742 81.0859L210.617 74.5469H212.422V83H210.977V76.8516L208.242 83H207.242L204.453 76.7188V83H203.008V74.5469H204.883L207.742 81.0859Z" fill="black"/>
<path d="M103.349 286H96.8271V285.091L100.272 281.263C100.783 280.684 101.134 280.215 101.325 279.854C101.521 279.49 101.619 279.114 101.619 278.727C101.619 278.207 101.462 277.781 101.147 277.448C100.833 277.116 100.414 276.949 99.8896 276.949C99.2607 276.949 98.7708 277.129 98.4199 277.489C98.0736 277.845 97.9004 278.341 97.9004 278.979H96.6357C96.6357 278.063 96.9297 277.323 97.5176 276.758C98.11 276.193 98.9007 275.91 99.8896 275.91C100.815 275.91 101.546 276.154 102.084 276.642C102.622 277.125 102.891 277.77 102.891 278.576C102.891 279.556 102.266 280.723 101.018 282.076L98.3516 284.968H103.349V286ZM105.27 281.01L105.775 276.047H110.875V277.216H106.849L106.548 279.93C107.035 279.643 107.589 279.499 108.209 279.499C109.116 279.499 109.836 279.8 110.369 280.401C110.902 280.998 111.169 281.807 111.169 282.828C111.169 283.854 110.891 284.662 110.335 285.255C109.784 285.843 109.011 286.137 108.018 286.137C107.138 286.137 106.42 285.893 105.864 285.405C105.308 284.918 104.992 284.243 104.914 283.382H106.11C106.188 283.951 106.391 284.382 106.719 284.674C107.047 284.961 107.48 285.104 108.018 285.104C108.605 285.104 109.066 284.904 109.398 284.503C109.736 284.102 109.904 283.548 109.904 282.842C109.904 282.176 109.722 281.643 109.357 281.242C108.997 280.837 108.517 280.634 107.915 280.634C107.364 280.634 106.931 280.755 106.616 280.996L106.281 281.27L105.27 281.01ZM118.791 281.755C118.791 283.236 118.538 284.337 118.032 285.057C117.526 285.777 116.736 286.137 115.66 286.137C114.598 286.137 113.812 285.786 113.302 285.084C112.791 284.378 112.527 283.325 112.509 281.926V280.237C112.509 278.774 112.762 277.688 113.268 276.977C113.773 276.266 114.566 275.91 115.646 275.91C116.717 275.91 117.506 276.254 118.012 276.942C118.518 277.626 118.777 278.683 118.791 280.114V281.755ZM117.526 280.025C117.526 278.954 117.376 278.175 117.075 277.688C116.774 277.195 116.298 276.949 115.646 276.949C114.999 276.949 114.528 277.193 114.231 277.681C113.935 278.168 113.783 278.918 113.773 279.93V281.953C113.773 283.029 113.928 283.824 114.238 284.339C114.553 284.849 115.027 285.104 115.66 285.104C116.285 285.104 116.747 284.863 117.048 284.38C117.353 283.897 117.513 283.136 117.526 282.097V280.025ZM128.272 284.325L130.788 278.604H132.367V286H131.103V280.62L128.71 286H127.835L125.395 280.504V286H124.13V278.604H125.771L128.272 284.325ZM138.663 284.325L141.179 278.604H142.758V286H141.493V280.62L139.101 286H138.226L135.785 280.504V286H134.521V278.604H136.161L138.663 284.325Z" fill="black"/>
</g>
<defs>
<clipPath id="clip0">
<rect width="223" height="288" fill="white"/>
</clipPath>
</defs>
</svg>
