<svg width="288" height="224" viewBox="0 0 288 224" fill="none" xmlns="http://www.w3.org/2000/svg">
<g clip-path="url(#clip0)">
<path d="M51.2341 77.9699L51.2341 129.659L19.3096 138.683L19.3096 68.9468L51.2341 77.9699Z" stroke="black" stroke-miterlimit="10"/>
<path d="M233.679 111.87C233.679 111.87 235.581 108.261 222.404 101.171C209.226 94.0817 213.03 94.0817 213.03 94.0817L224.034 93.8239L236.396 96.402L256.366 101.945L261.257 103.62L261.8 106.585L239.385 111.612L233.951 113.417L233.679 111.87Z" fill="#484848"/>
<path d="M226.207 93.9539C226.207 93.9539 228.109 70.7516 231.913 70.7516C235.716 70.7516 241.286 76.1654 245.09 86.8643C248.758 97.1764 246.992 115.48 246.992 115.48C246.992 115.48 246.856 115.48 226.207 93.9539Z" fill="#231F20" stroke="black" stroke-miterlimit="10"/>
<path d="M226.208 93.9539L260.442 103.106C262.072 103.622 262.072 105.813 260.442 106.2L226.208 115.352L36.1549 115.352C36.1549 115.352 30.4492 111.742 30.4492 104.653C30.4492 99.2389 36.1549 93.9539 36.1549 93.9539L226.208 93.9539Z" stroke="black" stroke-miterlimit="10"/>
<path d="M24.8789 104.652L39.9581 104.652" stroke="black" stroke-miterlimit="10"/>
<path d="M38.0566 129.659L38.0566 115.48L47.4302 115.48L38.0566 129.659Z" stroke="black" stroke-miterlimit="10"/>
<path d="M38.0566 79.774L38.0566 93.9531L47.4302 93.9531L38.0566 79.774Z" stroke="black" stroke-miterlimit="10"/>
<path d="M28.6827 130.562C28.6827 129.067 27.8312 127.855 26.7808 127.855C25.7304 127.855 24.8789 129.067 24.8789 130.562C24.8789 132.057 25.7304 133.269 26.7808 133.269C27.8312 133.269 28.6827 132.057 28.6827 130.562Z" stroke="black" stroke-miterlimit="10"/>
<path d="M47.5659 125.276C47.5659 123.781 47.1402 122.57 46.615 122.57C46.0898 122.57 45.6641 123.781 45.6641 125.276C45.6641 126.771 46.0898 127.983 46.615 127.983C47.1402 127.983 47.5659 126.771 47.5659 125.276Z" stroke="black" stroke-miterlimit="10"/>
<path d="M44.3062 115.352C44.3062 115.352 39.959 110.067 39.959 104.653C39.959 101.043 44.3062 93.9539 44.3062 93.9539" stroke="black" stroke-miterlimit="10"/>
<path d="M224.306 117.156C224.306 117.156 224.306 138.554 220.503 138.554C216.699 138.554 209.227 122.441 211.129 104.653C213.031 86.8641 209.227 118.961 224.306 117.156Z" stroke="black" stroke-miterlimit="10"/>
<path d="M28.6827 78.8722C28.6827 77.3772 27.8312 76.1652 26.7808 76.1652C25.7304 76.1652 24.8789 77.3772 24.8789 78.8722C24.8789 80.3672 25.7304 81.5791 26.7808 81.5791C27.8312 81.5791 28.6827 80.3672 28.6827 78.8722Z" stroke="black" stroke-miterlimit="10"/>
<path d="M47.5659 82.3526C47.5659 80.8577 47.1402 79.6457 46.615 79.6457C46.0898 79.6457 45.6641 80.8577 45.6641 82.3526C45.6641 83.8476 46.0898 85.0596 46.615 85.0596C47.1402 85.0596 47.5659 83.8476 47.5659 82.3526Z" stroke="black" stroke-miterlimit="10"/>
<path d="M261.936 102.977L261.936 159.178L30.585 159.178L30.585 102.977" stroke="#919191" stroke-width="0.5" stroke-miterlimit="10"/>
<path d="M237 70.5L269 70.5L269 138.5L237 138.5" stroke="#919191" stroke-width="0.5" stroke-miterlimit="10"/>
<path d="M82.6455 179.022C82.6455 178.298 82.7868 177.646 83.0693 177.067C83.3564 176.489 83.7529 176.042 84.2588 175.728C84.7692 175.413 85.3503 175.256 86.002 175.256C87.0091 175.256 87.8226 175.604 88.4424 176.302C89.0667 176.999 89.3789 177.926 89.3789 179.084V179.173C89.3789 179.893 89.2399 180.54 88.9619 181.114C88.6885 181.684 88.2943 182.128 87.7793 182.447C87.2689 182.766 86.681 182.926 86.0156 182.926C85.013 182.926 84.1995 182.577 83.5752 181.88C82.9554 181.183 82.6455 180.26 82.6455 179.111V179.022ZM83.917 179.173C83.917 179.993 84.1061 180.652 84.4844 181.148C84.8672 181.645 85.3776 181.894 86.0156 181.894C86.6582 181.894 87.1686 181.643 87.5469 181.142C87.9251 180.636 88.1143 179.929 88.1143 179.022C88.1143 178.211 87.9206 177.555 87.5332 177.054C87.1504 176.548 86.64 176.295 86.002 176.295C85.3776 176.295 84.874 176.543 84.4912 177.04C84.1084 177.537 83.917 178.248 83.917 179.173ZM96.3105 176.418H93.8291V182.789H92.5645V176.418H90.1309V175.393H96.3105V176.418ZM107.405 182.789H100.884V181.88L104.329 178.052C104.84 177.473 105.19 177.004 105.382 176.644C105.578 176.279 105.676 175.903 105.676 175.516C105.676 174.996 105.519 174.57 105.204 174.237C104.89 173.905 104.47 173.738 103.946 173.738C103.317 173.738 102.827 173.918 102.477 174.278C102.13 174.634 101.957 175.131 101.957 175.769H100.692C100.692 174.853 100.986 174.112 101.574 173.547C102.167 172.982 102.957 172.699 103.946 172.699C104.871 172.699 105.603 172.943 106.141 173.431C106.678 173.914 106.947 174.559 106.947 175.365C106.947 176.345 106.323 177.512 105.074 178.865L102.408 181.757H107.405V182.789ZM118.459 178.544C118.459 180.025 118.206 181.126 117.7 181.846C117.194 182.566 116.404 182.926 115.328 182.926C114.266 182.926 113.48 182.575 112.97 181.873C112.459 181.167 112.195 180.114 112.177 178.715V177.026C112.177 175.563 112.43 174.477 112.936 173.766C113.441 173.055 114.234 172.699 115.314 172.699C116.385 172.699 117.174 173.043 117.68 173.731C118.186 174.415 118.445 175.472 118.459 176.903V178.544ZM117.194 176.814C117.194 175.743 117.044 174.964 116.743 174.477C116.442 173.984 115.966 173.738 115.314 173.738C114.667 173.738 114.196 173.982 113.899 174.47C113.603 174.957 113.451 175.707 113.441 176.719V178.742C113.441 179.818 113.596 180.613 113.906 181.128C114.221 181.638 114.695 181.894 115.328 181.894C115.952 181.894 116.415 181.652 116.716 181.169C117.021 180.686 117.181 179.925 117.194 178.886V176.814ZM126.32 178.544C126.32 180.025 126.067 181.126 125.562 181.846C125.056 182.566 124.265 182.926 123.189 182.926C122.128 182.926 121.341 182.575 120.831 181.873C120.321 181.167 120.056 180.114 120.038 178.715V177.026C120.038 175.563 120.291 174.477 120.797 173.766C121.303 173.055 122.096 172.699 123.176 172.699C124.247 172.699 125.035 173.043 125.541 173.731C126.047 174.415 126.307 175.472 126.32 176.903V178.544ZM125.056 176.814C125.056 175.743 124.905 174.964 124.604 174.477C124.304 173.984 123.827 173.738 123.176 173.738C122.529 173.738 122.057 173.982 121.761 174.47C121.465 174.957 121.312 175.707 121.303 176.719V178.742C121.303 179.818 121.458 180.613 121.768 181.128C122.082 181.638 122.556 181.894 123.189 181.894C123.814 181.894 124.276 181.652 124.577 181.169C124.882 180.686 125.042 179.925 125.056 178.886V176.814ZM134.182 178.544C134.182 180.025 133.929 181.126 133.423 181.846C132.917 182.566 132.126 182.926 131.051 182.926C129.989 182.926 129.203 182.575 128.692 181.873C128.182 181.167 127.918 180.114 127.899 178.715V177.026C127.899 175.563 128.152 174.477 128.658 173.766C129.164 173.055 129.957 172.699 131.037 172.699C132.108 172.699 132.896 173.043 133.402 173.731C133.908 174.415 134.168 175.472 134.182 176.903V178.544ZM132.917 176.814C132.917 175.743 132.767 174.964 132.466 174.477C132.165 173.984 131.689 173.738 131.037 173.738C130.39 173.738 129.918 173.982 129.622 174.47C129.326 174.957 129.173 175.707 129.164 176.719V178.742C129.164 179.818 129.319 180.613 129.629 181.128C129.943 181.638 130.417 181.894 131.051 181.894C131.675 181.894 132.138 181.652 132.438 181.169C132.744 180.686 132.903 179.925 132.917 178.886V176.814ZM143.663 181.114L146.179 175.393H147.758V182.789H146.493V177.409L144.101 182.789H143.226L140.785 177.293V182.789H139.521V175.393H141.161L143.663 181.114ZM154.054 181.114L156.569 175.393H158.148V182.789H156.884V177.409L154.491 182.789H153.616L151.176 177.293V182.789H149.911V175.393H151.552L154.054 181.114Z" fill="black"/>
<path d="M41.9746 32.7725C41.9746 33.887 41.7871 34.861 41.4121 35.6943C41.0371 36.5225 40.5059 37.1553 39.8184 37.5928C39.1309 38.0303 38.3288 38.249 37.4121 38.249C36.5215 38.249 35.735 38.0355 35.0527 37.6084L34.2949 38.8193H33.1855L34.3105 37.0146C33.321 36.0146 32.8262 34.5771 32.8262 32.7021V32.0537C32.8262 30.96 33.0163 29.9938 33.3965 29.1553C33.7767 28.3167 34.3132 27.6761 35.0059 27.2334C35.7038 26.7855 36.5007 26.5615 37.3965 26.5615C38.5111 26.5615 39.4538 26.887 40.2246 27.5381L41.0293 26.249H42.1309L40.8887 28.2412C41.6022 29.2152 41.9642 30.4678 41.9746 31.999V32.7725ZM34.3184 32.7725C34.3184 34.0433 34.5736 35.0459 35.084 35.7803L39.4902 28.7178C38.959 28.1396 38.2611 27.8506 37.3965 27.8506C36.4486 27.8506 35.7012 28.2126 35.1543 28.9365C34.6126 29.6553 34.334 30.6553 34.3184 31.9365V32.7725ZM40.4824 32.0381C40.4824 31.0902 40.3366 30.2751 40.0449 29.5928L35.7559 36.4756C36.2298 36.8089 36.7819 36.9756 37.4121 36.9756C38.3809 36.9756 39.1309 36.624 39.6621 35.9209C40.1934 35.2126 40.4668 34.1995 40.4824 32.8818V32.0381ZM55.1621 27.5303L50.4512 38.0928H48.9355L53.6309 27.9053H47.4746V26.7178H55.1621V27.5303ZM62.4746 26.71V27.9365H62.209C61.084 27.9574 60.1882 28.2907 59.5215 28.9365C58.8548 29.5824 58.4694 30.4912 58.3652 31.6631C58.9642 30.9756 59.7819 30.6318 60.8184 30.6318C61.8079 30.6318 62.597 30.9808 63.1855 31.6787C63.7793 32.3766 64.0762 33.2777 64.0762 34.3818C64.0762 35.5537 63.7559 36.4912 63.1152 37.1943C62.4798 37.8975 61.6257 38.249 60.5527 38.249C59.4642 38.249 58.5814 37.8324 57.9043 36.999C57.2272 36.1605 56.8887 35.0824 56.8887 33.7646V33.21C56.8887 31.1162 57.334 29.5173 58.2246 28.4131C59.1204 27.3037 60.4512 26.736 62.2168 26.71H62.4746ZM60.5762 31.835C60.0814 31.835 59.6257 31.9834 59.209 32.2803C58.7923 32.5771 58.5033 32.9495 58.3418 33.3975V33.9287C58.3418 34.8662 58.5527 35.6214 58.9746 36.1943C59.3965 36.7673 59.9225 37.0537 60.5527 37.0537C61.2038 37.0537 61.7142 36.8141 62.084 36.335C62.459 35.8558 62.6465 35.2282 62.6465 34.4521C62.6465 33.6709 62.4564 33.0407 62.0762 32.5615C61.7012 32.0771 61.2012 31.835 60.5762 31.835ZM74.7715 36.1787L77.6465 29.6396H79.4512V38.0928H78.0059V31.9443L75.2715 38.0928H74.2715L71.4824 31.8115V38.0928H70.0371V29.6396H71.9121L74.7715 36.1787ZM86.6465 36.1787L89.5215 29.6396H91.3262V38.0928H89.8809V31.9443L87.1465 38.0928H86.1465L83.3574 31.8115V38.0928H81.9121V29.6396H83.7871L86.6465 36.1787Z" fill="black"/>
<path d="M271.312 88.3486L271.312 81.8271L272.221 81.8271L276.049 85.2725C276.628 85.7829 277.097 86.1338 277.457 86.3252C277.822 86.5212 278.198 86.6191 278.585 86.6191C279.104 86.6191 279.531 86.4619 279.863 86.1475C280.196 85.833 280.362 85.4137 280.362 84.8896C280.362 84.2607 280.182 83.7708 279.822 83.4199C279.467 83.0736 278.97 82.9004 278.332 82.9004L278.332 81.6357C279.248 81.6357 279.989 81.9297 280.554 82.5176C281.119 83.11 281.401 83.9007 281.401 84.8896C281.401 85.8148 281.158 86.5462 280.67 87.084C280.187 87.6217 279.542 87.8906 278.735 87.8906C277.756 87.8906 276.589 87.2663 275.235 86.0176L272.344 83.3516L272.344 88.3486L271.312 88.3486ZM276.302 90.2695L281.265 90.7754L281.265 95.875L280.096 95.875L280.096 91.8486L277.382 91.5479C277.669 92.0355 277.812 92.5892 277.812 93.209C277.812 94.1159 277.512 94.8359 276.91 95.3691C276.313 95.9023 275.504 96.1689 274.483 96.1689C273.458 96.1689 272.649 95.891 272.057 95.335C271.469 94.7835 271.175 94.0111 271.175 93.0176C271.175 92.138 271.419 91.4202 271.906 90.8643C272.394 90.3083 273.068 89.9915 273.93 89.9141L273.93 91.1104C273.36 91.1878 272.929 91.3906 272.638 91.7187C272.351 92.0469 272.207 92.4798 272.207 93.0176C272.207 93.6055 272.408 94.0658 272.809 94.3984C273.21 94.7357 273.763 94.9043 274.47 94.9043C275.135 94.9043 275.668 94.722 276.069 94.3574C276.475 93.9974 276.678 93.5166 276.678 92.915C276.678 92.3636 276.557 91.9307 276.315 91.6162L276.042 91.2812L276.302 90.2695ZM275.557 103.791C274.076 103.791 272.975 103.538 272.255 103.032C271.535 102.526 271.175 101.736 271.175 100.66C271.175 99.5983 271.526 98.8122 272.228 98.3018C272.934 97.7913 273.987 97.527 275.386 97.5088L277.074 97.5088C278.537 97.5088 279.624 97.7617 280.335 98.2676C281.046 98.7734 281.401 99.5664 281.401 100.646C281.401 101.717 281.057 102.506 280.369 103.012C279.686 103.518 278.628 103.777 277.197 103.791L275.557 103.791ZM277.286 102.526C278.357 102.526 279.136 102.376 279.624 102.075C280.116 101.774 280.362 101.298 280.362 100.646C280.362 99.9993 280.118 99.5277 279.631 99.2314C279.143 98.9352 278.394 98.7826 277.382 98.7734L275.358 98.7734C274.283 98.7734 273.488 98.9284 272.973 99.2383C272.462 99.5527 272.207 100.027 272.207 100.66C272.207 101.285 272.449 101.747 272.932 102.048C273.415 102.353 274.176 102.513 275.215 102.526L277.286 102.526ZM272.986 113.272L278.708 115.788L278.708 117.367L271.312 117.367L271.312 116.103L276.691 116.103L271.312 113.71L271.312 112.835L276.808 110.395L271.312 110.395L271.312 109.13L278.708 109.13L278.708 110.771L272.986 113.272ZM272.986 123.663L278.708 126.179L278.708 127.758L271.312 127.758L271.312 126.493L276.691 126.493L271.312 124.101L271.312 123.226L276.808 120.785L271.312 120.785L271.312 119.521L278.708 119.521L278.708 121.161L272.986 123.663Z" fill="black"/>
</g>
<defs>
<clipPath id="clip0">
<rect width="223" height="288" fill="white" transform="translate(0 223.5) rotate(-90)"/>
</clipPath>
</defs>
</svg>
