<svg width="223" height="288" viewBox="0 0 223 288" fill="none" xmlns="http://www.w3.org/2000/svg">
<g clip-path="url(#clip0)">
<path d="M145.53 51.2341H93.84L84.8169 19.3096H154.553L145.53 51.2341Z" stroke="black" stroke-miterlimit="10"/>
<path d="M111.629 233.679C111.629 233.679 115.239 235.581 122.328 222.404C129.418 209.226 129.418 213.03 129.418 213.03L129.676 224.034L127.098 236.396L121.555 256.366L119.879 261.257L116.914 261.8L111.887 239.385L110.083 233.951L111.629 233.679Z" fill="#484848"/>
<path d="M129.546 226.207C129.546 226.207 152.748 228.109 152.748 231.913C152.748 235.716 147.335 241.286 136.636 245.09C126.324 248.758 108.02 246.992 108.02 246.992C108.02 246.992 108.02 246.856 129.546 226.207Z" fill="#231F20" stroke="black" stroke-miterlimit="10"/>
<path d="M129.546 226.208L120.394 260.442C119.878 262.072 117.687 262.072 117.3 260.442L108.148 226.208V36.1549C108.148 36.1549 111.758 30.4492 118.847 30.4492C124.261 30.4492 129.546 36.1549 129.546 36.1549V226.208Z" stroke="black" stroke-miterlimit="10"/>
<path d="M118.848 24.8789V39.9581" stroke="black" stroke-miterlimit="10"/>
<path d="M93.8408 38.0566H108.02V47.4302L93.8408 38.0566Z" stroke="black" stroke-miterlimit="10"/>
<path d="M143.726 38.0566H129.546V47.4302L143.726 38.0566Z" stroke="black" stroke-miterlimit="10"/>
<path d="M92.9384 28.6827C94.4334 28.6827 95.6453 27.8312 95.6453 26.7808C95.6453 25.7304 94.4334 24.8789 92.9384 24.8789C91.4434 24.8789 90.2314 25.7304 90.2314 26.7808C90.2314 27.8312 91.4434 28.6827 92.9384 28.6827Z" stroke="black" stroke-miterlimit="10"/>
<path d="M98.2231 47.5659C99.7181 47.5659 100.93 47.1402 100.93 46.615C100.93 46.0898 99.7181 45.6641 98.2231 45.6641C96.728 45.6641 95.5161 46.0898 95.5161 46.615C95.5161 47.1402 96.728 47.5659 98.2231 47.5659Z" stroke="black" stroke-miterlimit="10"/>
<path d="M108.148 44.3062C108.148 44.3062 113.433 39.959 118.847 39.959C122.457 39.959 129.546 44.3062 129.546 44.3062" stroke="black" stroke-miterlimit="10"/>
<path d="M106.344 224.306C106.344 224.306 84.9463 224.306 84.9463 220.503C84.9463 216.699 101.059 209.227 118.847 211.129C136.636 213.031 104.539 209.227 106.344 224.306Z" stroke="black" stroke-miterlimit="10"/>
<path d="M144.628 28.6827C146.123 28.6827 147.335 27.8312 147.335 26.7808C147.335 25.7304 146.123 24.8789 144.628 24.8789C143.133 24.8789 141.921 25.7304 141.921 26.7808C141.921 27.8312 143.133 28.6827 144.628 28.6827Z" stroke="black" stroke-miterlimit="10"/>
<path d="M141.147 47.5659C142.642 47.5659 143.854 47.1402 143.854 46.615C143.854 46.0898 142.642 45.6641 141.147 45.6641C139.652 45.6641 138.44 46.0898 138.44 46.615C138.44 47.1402 139.652 47.5659 141.147 47.5659Z" stroke="black" stroke-miterlimit="10"/>
<path d="M120.523 261.936H64.3218V30.585H120.523" stroke="#919191" stroke-width="0.5" stroke-miterlimit="10"/>
<path d="M153 237L153 269L85 269L85 237" stroke="#919191" stroke-width="0.5" stroke-miterlimit="10"/>
<path d="M55.3989 158.178V164.699H54.4897L50.6616 161.254C50.0828 160.743 49.6134 160.393 49.2534 160.201C48.8888 160.005 48.5129 159.907 48.1255 159.907C47.606 159.907 47.1799 160.064 46.8472 160.379C46.5145 160.693 46.3481 161.113 46.3481 161.637C46.3481 162.266 46.5282 162.756 46.8882 163.106C47.2437 163.453 47.7404 163.626 48.3784 163.626V164.891C47.4624 164.891 46.7218 164.597 46.1567 164.009C45.5916 163.416 45.3091 162.626 45.3091 161.637C45.3091 160.712 45.5529 159.98 46.0405 159.442C46.5236 158.905 47.1685 158.636 47.9751 158.636C48.9549 158.636 50.1216 159.26 51.4751 160.509L54.3667 163.175V158.178H55.3989ZM50.4087 152.784L45.4458 152.278V147.179H46.6147V151.205L49.3286 151.506C49.0415 151.018 48.8979 150.465 48.8979 149.845C48.8979 148.938 49.1987 148.218 49.8003 147.685C50.3973 147.151 51.2062 146.885 52.2271 146.885C53.2524 146.885 54.0614 147.163 54.6538 147.719C55.2417 148.27 55.5356 149.043 55.5356 150.036C55.5356 150.916 55.2918 151.633 54.8042 152.189C54.3166 152.745 53.6421 153.062 52.7808 153.14V151.943C53.3504 151.866 53.7811 151.663 54.0728 151.335C54.3599 151.007 54.5034 150.574 54.5034 150.036C54.5034 149.448 54.3029 148.988 53.9019 148.655C53.5008 148.318 52.9471 148.149 52.2407 148.149C51.5754 148.149 51.0422 148.332 50.6411 148.696C50.2355 149.056 50.0327 149.537 50.0327 150.139C50.0327 150.69 50.1535 151.123 50.395 151.438L50.6685 151.772L50.4087 152.784ZM51.1538 139.263C52.6349 139.263 53.7355 139.516 54.4556 140.021C55.1756 140.527 55.5356 141.318 55.5356 142.394C55.5356 143.455 55.1847 144.242 54.4829 144.752C53.7765 145.262 52.7238 145.527 51.3247 145.545H49.6362C48.1733 145.545 47.0864 145.292 46.3755 144.786C45.6646 144.28 45.3091 143.487 45.3091 142.407C45.3091 141.336 45.6532 140.548 46.3413 140.042C47.0249 139.536 48.0822 139.276 49.5132 139.263H51.1538ZM49.4243 140.527C48.3534 140.527 47.5741 140.678 47.0864 140.979C46.5942 141.279 46.3481 141.756 46.3481 142.407C46.3481 143.054 46.592 143.526 47.0796 143.822C47.5672 144.118 48.3169 144.271 49.3286 144.28H51.3521C52.4276 144.28 53.2228 144.125 53.7378 143.815C54.2482 143.501 54.5034 143.027 54.5034 142.394C54.5034 141.769 54.2619 141.307 53.7788 141.006C53.2957 140.701 52.5347 140.541 51.4956 140.527H49.4243ZM51.1538 131.401C52.6349 131.401 53.7355 131.654 54.4556 132.16C55.1756 132.666 55.5356 133.457 55.5356 134.532C55.5356 135.594 55.1847 136.38 54.4829 136.891C53.7765 137.401 52.7238 137.665 51.3247 137.684H49.6362C48.1733 137.684 47.0864 137.431 46.3755 136.925C45.6646 136.419 45.3091 135.626 45.3091 134.546C45.3091 133.475 45.6532 132.687 46.3413 132.181C47.0249 131.675 48.0822 131.415 49.5132 131.401H51.1538ZM49.4243 132.666C48.3534 132.666 47.5741 132.816 47.0864 133.117C46.5942 133.418 46.3481 133.894 46.3481 134.546C46.3481 135.193 46.592 135.665 47.0796 135.961C47.5672 136.257 48.3169 136.41 49.3286 136.419H51.3521C52.4276 136.419 53.2228 136.264 53.7378 135.954C54.2482 135.64 54.5034 135.166 54.5034 134.532C54.5034 133.908 54.2619 133.445 53.7788 133.145C53.2957 132.839 52.5347 132.68 51.4956 132.666H49.4243ZM53.7241 121.92L48.0024 119.404V117.825H55.3989V119.09H50.019L55.3989 121.482V122.357L49.9028 124.798H55.3989V126.062H48.0024V124.422L53.7241 121.92ZM53.7241 111.529L48.0024 109.014V107.435H55.3989V108.699H50.019L55.3989 111.092V111.967L49.9028 114.407H55.3989V115.672H48.0024V114.031L53.7241 111.529Z" fill="black"/>
<path d="M163.07 77.6797C163.07 78.7943 162.883 79.7682 162.508 80.6016C162.133 81.4297 161.602 82.0625 160.914 82.5C160.227 82.9375 159.424 83.1562 158.508 83.1562C157.617 83.1562 156.831 82.9427 156.148 82.5156L155.391 83.7266H154.281L155.406 81.9219C154.417 80.9219 153.922 79.4844 153.922 77.6094V76.9609C153.922 75.8672 154.112 74.901 154.492 74.0625C154.872 73.224 155.409 72.5833 156.102 72.1406C156.799 71.6927 157.596 71.4688 158.492 71.4688C159.607 71.4688 160.549 71.7943 161.32 72.4453L162.125 71.1562H163.227L161.984 73.1484C162.698 74.1224 163.06 75.375 163.07 76.9062V77.6797ZM155.414 77.6797C155.414 78.9505 155.669 79.9531 156.18 80.6875L160.586 73.625C160.055 73.0469 159.357 72.7578 158.492 72.7578C157.544 72.7578 156.797 73.1198 156.25 73.8438C155.708 74.5625 155.43 75.5625 155.414 76.8438V77.6797ZM161.578 76.9453C161.578 75.9974 161.432 75.1823 161.141 74.5L156.852 81.3828C157.326 81.7161 157.878 81.8828 158.508 81.8828C159.477 81.8828 160.227 81.5312 160.758 80.8281C161.289 80.1198 161.562 79.1068 161.578 77.7891V76.9453ZM173.664 83H172.211V73.3672L169.297 74.4375V73.125L173.438 71.5703H173.664V83ZM180 76.6094H181.086C181.768 76.599 182.305 76.4193 182.695 76.0703C183.086 75.7214 183.281 75.25 183.281 74.6562C183.281 73.3229 182.617 72.6562 181.289 72.6562C180.664 72.6562 180.164 72.8359 179.789 73.1953C179.419 73.5495 179.234 74.0208 179.234 74.6094H177.789C177.789 73.7083 178.117 72.9609 178.773 72.3672C179.435 71.7682 180.273 71.4688 181.289 71.4688C182.362 71.4688 183.203 71.7526 183.812 72.3203C184.422 72.888 184.727 73.6771 184.727 74.6875C184.727 75.1823 184.565 75.6615 184.242 76.125C183.924 76.5885 183.49 76.9349 182.938 77.1641C183.562 77.362 184.044 77.6901 184.383 78.1484C184.727 78.6068 184.898 79.1667 184.898 79.8281C184.898 80.849 184.565 81.6589 183.898 82.2578C183.232 82.8568 182.365 83.1562 181.297 83.1562C180.229 83.1562 179.359 82.8672 178.688 82.2891C178.021 81.7109 177.688 80.9479 177.688 80H179.141C179.141 80.599 179.336 81.0781 179.727 81.4375C180.117 81.7969 180.641 81.9766 181.297 81.9766C181.995 81.9766 182.529 81.7943 182.898 81.4297C183.268 81.0651 183.453 80.5417 183.453 79.8594C183.453 79.1979 183.25 78.6901 182.844 78.3359C182.438 77.9818 181.852 77.7995 181.086 77.7891H180V76.6094ZM188.984 76.6094H190.07C190.753 76.599 191.289 76.4193 191.68 76.0703C192.07 75.7214 192.266 75.25 192.266 74.6562C192.266 73.3229 191.602 72.6562 190.273 72.6562C189.648 72.6562 189.148 72.8359 188.773 73.1953C188.404 73.5495 188.219 74.0208 188.219 74.6094H186.773C186.773 73.7083 187.102 72.9609 187.758 72.3672C188.419 71.7682 189.258 71.4688 190.273 71.4688C191.346 71.4688 192.188 71.7526 192.797 72.3203C193.406 72.888 193.711 73.6771 193.711 74.6875C193.711 75.1823 193.549 75.6615 193.227 76.125C192.909 76.5885 192.474 76.9349 191.922 77.1641C192.547 77.362 193.029 77.6901 193.367 78.1484C193.711 78.6068 193.883 79.1667 193.883 79.8281C193.883 80.849 193.549 81.6589 192.883 82.2578C192.216 82.8568 191.349 83.1562 190.281 83.1562C189.214 83.1562 188.344 82.8672 187.672 82.2891C187.005 81.7109 186.672 80.9479 186.672 80H188.125C188.125 80.599 188.32 81.0781 188.711 81.4375C189.102 81.7969 189.625 81.9766 190.281 81.9766C190.979 81.9766 191.513 81.7943 191.883 81.4297C192.253 81.0651 192.438 80.5417 192.438 79.8594C192.438 79.1979 192.234 78.6901 191.828 78.3359C191.422 77.9818 190.836 77.7995 190.07 77.7891H188.984V76.6094ZM204.852 81.0859L207.727 74.5469H209.531V83H208.086V76.8516L205.352 83H204.352L201.562 76.7188V83H200.117V74.5469H201.992L204.852 81.0859ZM216.727 81.0859L219.602 74.5469H221.406V83H219.961V76.8516L217.227 83H216.227L213.438 76.7188V83H211.992V74.5469H213.867L216.727 81.0859Z" fill="black"/>
<path d="M98.666 280.408H99.6162C100.213 280.399 100.683 280.242 101.024 279.937C101.366 279.631 101.537 279.219 101.537 278.699C101.537 277.533 100.956 276.949 99.7939 276.949C99.2471 276.949 98.8096 277.106 98.4814 277.421C98.1579 277.731 97.9961 278.143 97.9961 278.658H96.7314C96.7314 277.87 97.0186 277.216 97.5928 276.696C98.1715 276.172 98.9053 275.91 99.7939 275.91C100.733 275.91 101.469 276.159 102.002 276.655C102.535 277.152 102.802 277.842 102.802 278.727C102.802 279.16 102.66 279.579 102.378 279.984C102.1 280.39 101.719 280.693 101.236 280.894C101.783 281.067 102.205 281.354 102.501 281.755C102.802 282.156 102.952 282.646 102.952 283.225C102.952 284.118 102.66 284.826 102.077 285.351C101.494 285.875 100.735 286.137 99.8008 286.137C98.8665 286.137 98.1055 285.884 97.5176 285.378C96.9342 284.872 96.6426 284.204 96.6426 283.375H97.9141C97.9141 283.899 98.085 284.318 98.4268 284.633C98.7686 284.947 99.2266 285.104 99.8008 285.104C100.411 285.104 100.879 284.945 101.202 284.626C101.526 284.307 101.688 283.849 101.688 283.252C101.688 282.673 101.51 282.229 101.154 281.919C100.799 281.609 100.286 281.45 99.6162 281.44H98.666V280.408ZM105.27 281.01L105.775 276.047H110.875V277.216H106.849L106.548 279.93C107.035 279.643 107.589 279.499 108.209 279.499C109.116 279.499 109.836 279.8 110.369 280.401C110.902 280.998 111.169 281.807 111.169 282.828C111.169 283.854 110.891 284.662 110.335 285.255C109.784 285.843 109.011 286.137 108.018 286.137C107.138 286.137 106.42 285.893 105.864 285.405C105.308 284.918 104.992 284.243 104.914 283.382H106.11C106.188 283.951 106.391 284.382 106.719 284.674C107.047 284.961 107.48 285.104 108.018 285.104C108.605 285.104 109.066 284.904 109.398 284.503C109.736 284.102 109.904 283.548 109.904 282.842C109.904 282.176 109.722 281.643 109.357 281.242C108.997 280.837 108.517 280.634 107.915 280.634C107.364 280.634 106.931 280.755 106.616 280.996L106.281 281.27L105.27 281.01ZM118.791 281.755C118.791 283.236 118.538 284.337 118.032 285.057C117.526 285.777 116.736 286.137 115.66 286.137C114.598 286.137 113.812 285.786 113.302 285.084C112.791 284.378 112.527 283.325 112.509 281.926V280.237C112.509 278.774 112.762 277.688 113.268 276.977C113.773 276.266 114.566 275.91 115.646 275.91C116.717 275.91 117.506 276.254 118.012 276.942C118.518 277.626 118.777 278.683 118.791 280.114V281.755ZM117.526 280.025C117.526 278.954 117.376 278.175 117.075 277.688C116.774 277.195 116.298 276.949 115.646 276.949C114.999 276.949 114.528 277.193 114.231 277.681C113.935 278.168 113.783 278.918 113.773 279.93V281.953C113.773 283.029 113.928 283.824 114.238 284.339C114.553 284.849 115.027 285.104 115.66 285.104C116.285 285.104 116.747 284.863 117.048 284.38C117.353 283.897 117.513 283.136 117.526 282.097V280.025ZM128.272 284.325L130.788 278.604H132.367V286H131.103V280.62L128.71 286H127.835L125.395 280.504V286H124.13V278.604H125.771L128.272 284.325ZM138.663 284.325L141.179 278.604H142.758V286H141.493V280.62L139.101 286H138.226L135.785 280.504V286H134.521V278.604H136.161L138.663 284.325Z" fill="black"/>
</g>
<defs>
<clipPath id="clip0">
<rect width="223" height="288" fill="white"/>
</clipPath>
</defs>
</svg>
