<svg width="288" height="223" viewBox="0 0 288 223" fill="none" xmlns="http://www.w3.org/2000/svg">
<g clip-path="url(#clip0)">
<path d="M51.2341 77.4699L51.2341 129.159L19.3096 138.183L19.3096 68.4468L51.2341 77.4699Z" stroke="black" stroke-miterlimit="10"/>
<path d="M233.679 111.37C233.679 111.37 235.581 107.761 222.404 100.671C209.226 93.5817 213.03 93.5817 213.03 93.5817L224.034 93.3239L236.396 95.902L256.366 101.445L261.257 103.12L261.8 106.085L239.385 111.112L233.951 112.917L233.679 111.37Z" fill="#484848"/>
<path d="M226.207 93.4539C226.207 93.4539 228.109 70.2516 231.913 70.2516C235.716 70.2516 241.286 75.6654 245.09 86.3643C248.758 96.6764 246.992 114.98 246.992 114.98C246.992 114.98 246.856 114.98 226.207 93.4539Z" fill="#231F20" stroke="black" stroke-miterlimit="10"/>
<path d="M226.208 93.4539L260.442 102.606C262.072 103.122 262.072 105.313 260.442 105.7L226.208 114.852L36.1549 114.852C36.1549 114.852 30.4492 111.242 30.4492 104.153C30.4492 98.7389 36.1549 93.4539 36.1549 93.4539L226.208 93.4539Z" stroke="black" stroke-miterlimit="10"/>
<path d="M24.8789 104.152L39.9581 104.152" stroke="black" stroke-miterlimit="10"/>
<path d="M38.0566 129.159L38.0566 114.98L47.4302 114.98L38.0566 129.159Z" stroke="black" stroke-miterlimit="10"/>
<path d="M38.0566 79.274L38.0566 93.4531L47.4302 93.4531L38.0566 79.274Z" stroke="black" stroke-miterlimit="10"/>
<path d="M28.6827 130.062C28.6827 128.567 27.8312 127.355 26.7808 127.355C25.7304 127.355 24.8789 128.567 24.8789 130.062C24.8789 131.557 25.7304 132.769 26.7808 132.769C27.8312 132.769 28.6827 131.557 28.6827 130.062Z" stroke="black" stroke-miterlimit="10"/>
<path d="M47.5659 124.776C47.5659 123.281 47.1402 122.07 46.615 122.07C46.0898 122.07 45.6641 123.281 45.6641 124.776C45.6641 126.271 46.0898 127.483 46.615 127.483C47.1402 127.483 47.5659 126.271 47.5659 124.776Z" stroke="black" stroke-miterlimit="10"/>
<path d="M44.3062 114.852C44.3062 114.852 39.959 109.567 39.959 104.153C39.959 100.543 44.3062 93.4539 44.3062 93.4539" stroke="black" stroke-miterlimit="10"/>
<path d="M224.306 116.656C224.306 116.656 224.306 138.054 220.503 138.054C216.699 138.054 209.227 121.941 211.129 104.153C213.031 86.3641 209.227 118.461 224.306 116.656Z" stroke="black" stroke-miterlimit="10"/>
<path d="M28.6827 78.3722C28.6827 76.8772 27.8312 75.6652 26.7808 75.6652C25.7304 75.6652 24.8789 76.8772 24.8789 78.3722C24.8789 79.8672 25.7304 81.0791 26.7808 81.0791C27.8312 81.0791 28.6827 79.8672 28.6827 78.3722Z" stroke="black" stroke-miterlimit="10"/>
<path d="M47.5659 81.8526C47.5659 80.3577 47.1402 79.1457 46.615 79.1457C46.0898 79.1457 45.6641 80.3577 45.6641 81.8526C45.6641 83.3476 46.0898 84.5596 46.615 84.5596C47.1402 84.5596 47.5659 83.3476 47.5659 81.8526Z" stroke="black" stroke-miterlimit="10"/>
<path d="M261.936 102.477L261.936 158.678L30.585 158.678L30.585 102.477" stroke="#919191" stroke-width="0.5" stroke-miterlimit="10"/>
<path d="M237 70L269 70L269 138L237 138" stroke="#919191" stroke-width="0.5" stroke-miterlimit="10"/>
<path d="M82.6455 178.522C82.6455 177.798 82.7868 177.146 83.0693 176.567C83.3564 175.989 83.7529 175.542 84.2588 175.228C84.7692 174.913 85.3503 174.756 86.002 174.756C87.0091 174.756 87.8226 175.104 88.4424 175.802C89.0667 176.499 89.3789 177.426 89.3789 178.584V178.673C89.3789 179.393 89.2399 180.04 88.9619 180.614C88.6885 181.184 88.2943 181.628 87.7793 181.947C87.2689 182.266 86.681 182.426 86.0156 182.426C85.013 182.426 84.1995 182.077 83.5752 181.38C82.9554 180.683 82.6455 179.76 82.6455 178.611V178.522ZM83.917 178.673C83.917 179.493 84.1061 180.152 84.4844 180.648C84.8672 181.145 85.3776 181.394 86.0156 181.394C86.6582 181.394 87.1686 181.143 87.5469 180.642C87.9251 180.136 88.1143 179.429 88.1143 178.522C88.1143 177.711 87.9206 177.055 87.5332 176.554C87.1504 176.048 86.64 175.795 86.002 175.795C85.3776 175.795 84.874 176.043 84.4912 176.54C84.1084 177.037 83.917 177.748 83.917 178.673ZM96.3105 175.918H93.8291V182.289H92.5645V175.918H90.1309V174.893H96.3105V175.918ZM107.405 182.289H100.884V181.38L104.329 177.552C104.84 176.973 105.19 176.504 105.382 176.144C105.578 175.779 105.676 175.403 105.676 175.016C105.676 174.496 105.519 174.07 105.204 173.737C104.89 173.405 104.47 173.238 103.946 173.238C103.317 173.238 102.827 173.418 102.477 173.778C102.13 174.134 101.957 174.631 101.957 175.269H100.692C100.692 174.353 100.986 173.612 101.574 173.047C102.167 172.482 102.957 172.199 103.946 172.199C104.871 172.199 105.603 172.443 106.141 172.931C106.678 173.414 106.947 174.059 106.947 174.865C106.947 175.845 106.323 177.012 105.074 178.365L102.408 181.257H107.405V182.289ZM118.459 178.044C118.459 179.525 118.206 180.626 117.7 181.346C117.194 182.066 116.404 182.426 115.328 182.426C114.266 182.426 113.48 182.075 112.97 181.373C112.459 180.667 112.195 179.614 112.177 178.215V176.526C112.177 175.063 112.43 173.977 112.936 173.266C113.441 172.555 114.234 172.199 115.314 172.199C116.385 172.199 117.174 172.543 117.68 173.231C118.186 173.915 118.445 174.972 118.459 176.403V178.044ZM117.194 176.314C117.194 175.243 117.044 174.464 116.743 173.977C116.442 173.484 115.966 173.238 115.314 173.238C114.667 173.238 114.196 173.482 113.899 173.97C113.603 174.457 113.451 175.207 113.441 176.219V178.242C113.441 179.318 113.596 180.113 113.906 180.628C114.221 181.138 114.695 181.394 115.328 181.394C115.952 181.394 116.415 181.152 116.716 180.669C117.021 180.186 117.181 179.425 117.194 178.386V176.314ZM126.32 178.044C126.32 179.525 126.067 180.626 125.562 181.346C125.056 182.066 124.265 182.426 123.189 182.426C122.128 182.426 121.341 182.075 120.831 181.373C120.321 180.667 120.056 179.614 120.038 178.215V176.526C120.038 175.063 120.291 173.977 120.797 173.266C121.303 172.555 122.096 172.199 123.176 172.199C124.247 172.199 125.035 172.543 125.541 173.231C126.047 173.915 126.307 174.972 126.32 176.403V178.044ZM125.056 176.314C125.056 175.243 124.905 174.464 124.604 173.977C124.304 173.484 123.827 173.238 123.176 173.238C122.529 173.238 122.057 173.482 121.761 173.97C121.465 174.457 121.312 175.207 121.303 176.219V178.242C121.303 179.318 121.458 180.113 121.768 180.628C122.082 181.138 122.556 181.394 123.189 181.394C123.814 181.394 124.276 181.152 124.577 180.669C124.882 180.186 125.042 179.425 125.056 178.386V176.314ZM134.182 178.044C134.182 179.525 133.929 180.626 133.423 181.346C132.917 182.066 132.126 182.426 131.051 182.426C129.989 182.426 129.203 182.075 128.692 181.373C128.182 180.667 127.918 179.614 127.899 178.215V176.526C127.899 175.063 128.152 173.977 128.658 173.266C129.164 172.555 129.957 172.199 131.037 172.199C132.108 172.199 132.896 172.543 133.402 173.231C133.908 173.915 134.168 174.972 134.182 176.403V178.044ZM132.917 176.314C132.917 175.243 132.767 174.464 132.466 173.977C132.165 173.484 131.689 173.238 131.037 173.238C130.39 173.238 129.918 173.482 129.622 173.97C129.326 174.457 129.173 175.207 129.164 176.219V178.242C129.164 179.318 129.319 180.113 129.629 180.628C129.943 181.138 130.417 181.394 131.051 181.394C131.675 181.394 132.138 181.152 132.438 180.669C132.744 180.186 132.903 179.425 132.917 178.386V176.314ZM143.663 180.614L146.179 174.893H147.758V182.289H146.493V176.909L144.101 182.289H143.226L140.785 176.793V182.289H139.521V174.893H141.161L143.663 180.614ZM154.054 180.614L156.569 174.893H158.148V182.289H156.884V176.909L154.491 182.289H153.616L151.176 176.793V182.289H149.911V174.893H151.552L154.054 180.614Z" fill="black"/>
<path d="M41.9746 32.2725C41.9746 33.387 41.7871 34.361 41.4121 35.1943C41.0371 36.0225 40.5059 36.6553 39.8184 37.0928C39.1309 37.5303 38.3288 37.749 37.4121 37.749C36.5215 37.749 35.735 37.5355 35.0527 37.1084L34.2949 38.3193H33.1855L34.3105 36.5146C33.321 35.5146 32.8262 34.0771 32.8262 32.2021V31.5537C32.8262 30.46 33.0163 29.4938 33.3965 28.6553C33.7767 27.8167 34.3132 27.1761 35.0059 26.7334C35.7038 26.2855 36.5007 26.0615 37.3965 26.0615C38.5111 26.0615 39.4538 26.387 40.2246 27.0381L41.0293 25.749H42.1309L40.8887 27.7412C41.6022 28.7152 41.9642 29.9678 41.9746 31.499V32.2725ZM34.3184 32.2725C34.3184 33.5433 34.5736 34.5459 35.084 35.2803L39.4902 28.2178C38.959 27.6396 38.2611 27.3506 37.3965 27.3506C36.4486 27.3506 35.7012 27.7126 35.1543 28.4365C34.6126 29.1553 34.334 30.1553 34.3184 31.4365V32.2725ZM40.4824 31.5381C40.4824 30.5902 40.3366 29.7751 40.0449 29.0928L35.7559 35.9756C36.2298 36.3089 36.7819 36.4756 37.4121 36.4756C38.3809 36.4756 39.1309 36.124 39.6621 35.4209C40.1934 34.7126 40.4668 33.6995 40.4824 32.3818V31.5381ZM48.4824 31.8896L49.0605 26.2178H54.8887V27.5537H50.2871L49.9434 30.6553C50.5007 30.3271 51.1335 30.1631 51.8418 30.1631C52.8783 30.1631 53.7012 30.5068 54.3105 31.1943C54.9199 31.8766 55.2246 32.8011 55.2246 33.9678C55.2246 35.1396 54.9069 36.0641 54.2715 36.7412C53.6413 37.4131 52.7585 37.749 51.623 37.749C50.6178 37.749 49.7975 37.4704 49.1621 36.9131C48.5267 36.3558 48.1647 35.585 48.0762 34.6006H49.4434C49.5319 35.2516 49.7637 35.7438 50.1387 36.0771C50.5137 36.4053 51.0085 36.5693 51.623 36.5693C52.2949 36.5693 52.821 36.3402 53.2012 35.8818C53.5866 35.4235 53.7793 34.7907 53.7793 33.9834C53.7793 33.223 53.571 32.6136 53.1543 32.1553C52.7428 31.6917 52.1934 31.46 51.5059 31.46C50.8757 31.46 50.3809 31.598 50.0215 31.874L49.6387 32.1865L48.4824 31.8896ZM64.1465 27.0303L59.4355 37.5928H57.9199L62.6152 27.4053H56.459V26.2178H64.1465V27.0303ZM74.7715 35.6787L77.6465 29.1396H79.4512V37.5928H78.0059V31.4443L75.2715 37.5928H74.2715L71.4824 31.3115V37.5928H70.0371V29.1396H71.9121L74.7715 35.6787ZM86.6465 35.6787L89.5215 29.1396H91.3262V37.5928H89.8809V31.4443L87.1465 37.5928H86.1465L83.3574 31.3115V37.5928H81.9121V29.1396H83.7871L86.6465 35.6787Z" fill="black"/>
<path d="M271.312 85.3486L271.312 78.8271L272.221 78.8271L276.049 82.2725C276.628 82.7829 277.097 83.1338 277.457 83.3252C277.822 83.5212 278.198 83.6191 278.585 83.6191C279.104 83.6191 279.531 83.4619 279.863 83.1475C280.196 82.833 280.362 82.4137 280.362 81.8896C280.362 81.2607 280.182 80.7708 279.822 80.4199C279.467 80.0736 278.97 79.9004 278.332 79.9004L278.332 78.6357C279.248 78.6357 279.989 78.9297 280.554 79.5176C281.119 80.11 281.401 80.9007 281.401 81.8896C281.401 82.8148 281.158 83.5462 280.67 84.084C280.187 84.6217 279.542 84.8906 278.735 84.8906C277.756 84.8906 276.589 84.2663 275.235 83.0176L272.344 80.3516L272.344 85.3486L271.312 85.3486ZM275.557 92.9297C274.076 92.9297 272.975 92.6768 272.255 92.1709C271.535 91.665 271.175 90.8743 271.175 89.7988C271.175 88.737 271.526 87.9508 272.228 87.4404C272.934 86.93 273.987 86.6657 275.386 86.6475L277.074 86.6475C278.537 86.6475 279.624 86.9004 280.335 87.4062C281.046 87.9121 281.401 88.7051 281.401 89.7852C281.401 90.8561 281.057 91.6445 280.369 92.1504C279.686 92.6562 278.628 92.916 277.197 92.9297L275.557 92.9297ZM277.286 91.665C278.357 91.665 279.136 91.5146 279.624 91.2139C280.116 90.9131 280.362 90.4368 280.362 89.7852C280.362 89.138 280.118 88.6663 279.631 88.3701C279.143 88.0739 278.394 87.9212 277.382 87.9121L275.358 87.9121C274.283 87.9121 273.488 88.0671 272.973 88.377C272.462 88.6914 272.207 89.1654 272.207 89.7988C272.207 90.4232 272.449 90.8857 272.932 91.1865C273.415 91.4919 274.176 91.6514 275.215 91.665L277.286 91.665ZM275.557 100.791C274.076 100.791 272.975 100.538 272.255 100.032C271.535 99.5264 271.175 98.7357 271.175 97.6602C271.175 96.5983 271.526 95.8122 272.228 95.3018C272.934 94.7913 273.987 94.527 275.386 94.5088L277.074 94.5088C278.537 94.5088 279.624 94.7617 280.335 95.2676C281.046 95.7734 281.401 96.5664 281.401 97.6465C281.401 98.7174 281.057 99.5059 280.369 100.012C279.686 100.518 278.628 100.777 277.197 100.791L275.557 100.791ZM277.286 99.5264C278.357 99.5264 279.136 99.376 279.624 99.0752C280.116 98.7744 280.362 98.2982 280.362 97.6465C280.362 96.9993 280.118 96.5277 279.631 96.2314C279.143 95.9352 278.394 95.7826 277.382 95.7734L275.358 95.7734C274.283 95.7734 273.488 95.9284 272.973 96.2383C272.462 96.5527 272.207 97.0267 272.207 97.6602C272.207 98.2845 272.449 98.7471 272.932 99.0479C273.415 99.3532 274.176 99.5127 275.215 99.5264L277.286 99.5264ZM272.986 110.272L278.708 112.788L278.708 114.367L271.312 114.367L271.312 113.103L276.691 113.103L271.312 110.71L271.312 109.835L276.808 107.395L271.312 107.395L271.312 106.13L278.708 106.13L278.708 107.771L272.986 110.272ZM272.986 120.663L278.708 123.179L278.708 124.758L271.312 124.758L271.312 123.493L276.691 123.493L271.312 121.101L271.312 120.226L276.808 117.785L271.312 117.785L271.312 116.521L278.708 116.521L278.708 118.161L272.986 120.663Z" fill="black"/>
</g>
<defs>
<clipPath id="clip0">
<rect width="223" height="288" fill="white" transform="translate(0 223) rotate(-90)"/>
</clipPath>
</defs>
</svg>