<svg width="288" height="223" viewBox="0 0 288 223" fill="none" xmlns="http://www.w3.org/2000/svg">
<g clip-path="url(#clip0)">
<path d="M51.2341 77.4699L51.2341 129.159L19.3096 138.183L19.3096 68.4468L51.2341 77.4699Z" stroke="black" stroke-miterlimit="10"/>
<path d="M233.679 111.37C233.679 111.37 235.581 107.761 222.404 100.671C209.226 93.5817 213.03 93.5817 213.03 93.5817L224.034 93.3239L236.396 95.902L256.366 101.445L261.257 103.12L261.8 106.085L239.385 111.112L233.951 112.917L233.679 111.37Z" fill="#484848"/>
<path d="M226.207 93.4539C226.207 93.4539 228.109 70.2516 231.913 70.2516C235.716 70.2516 241.286 75.6654 245.09 86.3643C248.758 96.6764 246.992 114.98 246.992 114.98C246.992 114.98 246.856 114.98 226.207 93.4539Z" fill="#231F20" stroke="black" stroke-miterlimit="10"/>
<path d="M226.208 93.4539L260.442 102.606C262.072 103.122 262.072 105.313 260.442 105.7L226.208 114.852L36.1549 114.852C36.1549 114.852 30.4492 111.242 30.4492 104.153C30.4492 98.7389 36.1549 93.4539 36.1549 93.4539L226.208 93.4539Z" stroke="black" stroke-miterlimit="10"/>
<path d="M24.8789 104.152L39.9581 104.152" stroke="black" stroke-miterlimit="10"/>
<path d="M38.0566 129.159L38.0566 114.98L47.4302 114.98L38.0566 129.159Z" stroke="black" stroke-miterlimit="10"/>
<path d="M38.0566 79.274L38.0566 93.4531L47.4302 93.4531L38.0566 79.274Z" stroke="black" stroke-miterlimit="10"/>
<path d="M28.6827 130.062C28.6827 128.567 27.8312 127.355 26.7808 127.355C25.7304 127.355 24.8789 128.567 24.8789 130.062C24.8789 131.557 25.7304 132.769 26.7808 132.769C27.8312 132.769 28.6827 131.557 28.6827 130.062Z" stroke="black" stroke-miterlimit="10"/>
<path d="M47.5659 124.776C47.5659 123.281 47.1402 122.07 46.615 122.07C46.0898 122.07 45.6641 123.281 45.6641 124.776C45.6641 126.271 46.0898 127.483 46.615 127.483C47.1402 127.483 47.5659 126.271 47.5659 124.776Z" stroke="black" stroke-miterlimit="10"/>
<path d="M44.3062 114.852C44.3062 114.852 39.959 109.567 39.959 104.153C39.959 100.543 44.3062 93.4539 44.3062 93.4539" stroke="black" stroke-miterlimit="10"/>
<path d="M224.306 116.656C224.306 116.656 224.306 138.054 220.503 138.054C216.699 138.054 209.227 121.941 211.129 104.153C213.031 86.3641 209.227 118.461 224.306 116.656Z" stroke="black" stroke-miterlimit="10"/>
<path d="M28.6827 78.3722C28.6827 76.8772 27.8312 75.6652 26.7808 75.6652C25.7304 75.6652 24.8789 76.8772 24.8789 78.3722C24.8789 79.8672 25.7304 81.0791 26.7808 81.0791C27.8312 81.0791 28.6827 79.8672 28.6827 78.3722Z" stroke="black" stroke-miterlimit="10"/>
<path d="M47.5659 81.8526C47.5659 80.3577 47.1402 79.1457 46.615 79.1457C46.0898 79.1457 45.6641 80.3577 45.6641 81.8526C45.6641 83.3476 46.0898 84.5596 46.615 84.5596C47.1402 84.5596 47.5659 83.3476 47.5659 81.8526Z" stroke="black" stroke-miterlimit="10"/>
<path d="M261.936 102.477L261.936 158.678L30.585 158.678L30.585 102.477" stroke="#919191" stroke-width="0.5" stroke-miterlimit="10"/>
<path d="M237 70L269 70L269 138L237 138" stroke="#919191" stroke-width="0.5" stroke-miterlimit="10"/>
<path d="M82.6455 178.522C82.6455 177.798 82.7868 177.146 83.0693 176.567C83.3564 175.989 83.7529 175.542 84.2588 175.228C84.7692 174.913 85.3503 174.756 86.002 174.756C87.0091 174.756 87.8226 175.104 88.4424 175.802C89.0667 176.499 89.3789 177.426 89.3789 178.584V178.673C89.3789 179.393 89.2399 180.04 88.9619 180.614C88.6885 181.184 88.2943 181.628 87.7793 181.947C87.2689 182.266 86.681 182.426 86.0156 182.426C85.013 182.426 84.1995 182.077 83.5752 181.38C82.9554 180.683 82.6455 179.76 82.6455 178.611V178.522ZM83.917 178.673C83.917 179.493 84.1061 180.152 84.4844 180.648C84.8672 181.145 85.3776 181.394 86.0156 181.394C86.6582 181.394 87.1686 181.143 87.5469 180.642C87.9251 180.136 88.1143 179.429 88.1143 178.522C88.1143 177.711 87.9206 177.055 87.5332 176.554C87.1504 176.048 86.64 175.795 86.002 175.795C85.3776 175.795 84.874 176.043 84.4912 176.54C84.1084 177.037 83.917 177.748 83.917 178.673ZM96.3105 175.918H93.8291V182.289H92.5645V175.918H90.1309V174.893H96.3105V175.918ZM107.405 182.289H100.884V181.38L104.329 177.552C104.84 176.973 105.19 176.504 105.382 176.144C105.578 175.779 105.676 175.403 105.676 175.016C105.676 174.496 105.519 174.07 105.204 173.737C104.89 173.405 104.47 173.238 103.946 173.238C103.317 173.238 102.827 173.418 102.477 173.778C102.13 174.134 101.957 174.631 101.957 175.269H100.692C100.692 174.353 100.986 173.612 101.574 173.047C102.167 172.482 102.957 172.199 103.946 172.199C104.871 172.199 105.603 172.443 106.141 172.931C106.678 173.414 106.947 174.059 106.947 174.865C106.947 175.845 106.323 177.012 105.074 178.365L102.408 181.257H107.405V182.289ZM118.459 178.044C118.459 179.525 118.206 180.626 117.7 181.346C117.194 182.066 116.404 182.426 115.328 182.426C114.266 182.426 113.48 182.075 112.97 181.373C112.459 180.667 112.195 179.614 112.177 178.215V176.526C112.177 175.063 112.43 173.977 112.936 173.266C113.441 172.555 114.234 172.199 115.314 172.199C116.385 172.199 117.174 172.543 117.68 173.231C118.186 173.915 118.445 174.972 118.459 176.403V178.044ZM117.194 176.314C117.194 175.243 117.044 174.464 116.743 173.977C116.442 173.484 115.966 173.238 115.314 173.238C114.667 173.238 114.196 173.482 113.899 173.97C113.603 174.457 113.451 175.207 113.441 176.219V178.242C113.441 179.318 113.596 180.113 113.906 180.628C114.221 181.138 114.695 181.394 115.328 181.394C115.952 181.394 116.415 181.152 116.716 180.669C117.021 180.186 117.181 179.425 117.194 178.386V176.314ZM126.32 178.044C126.32 179.525 126.067 180.626 125.562 181.346C125.056 182.066 124.265 182.426 123.189 182.426C122.128 182.426 121.341 182.075 120.831 181.373C120.321 180.667 120.056 179.614 120.038 178.215V176.526C120.038 175.063 120.291 173.977 120.797 173.266C121.303 172.555 122.096 172.199 123.176 172.199C124.247 172.199 125.035 172.543 125.541 173.231C126.047 173.915 126.307 174.972 126.32 176.403V178.044ZM125.056 176.314C125.056 175.243 124.905 174.464 124.604 173.977C124.304 173.484 123.827 173.238 123.176 173.238C122.529 173.238 122.057 173.482 121.761 173.97C121.465 174.457 121.312 175.207 121.303 176.219V178.242C121.303 179.318 121.458 180.113 121.768 180.628C122.082 181.138 122.556 181.394 123.189 181.394C123.814 181.394 124.276 181.152 124.577 180.669C124.882 180.186 125.042 179.425 125.056 178.386V176.314ZM134.182 178.044C134.182 179.525 133.929 180.626 133.423 181.346C132.917 182.066 132.126 182.426 131.051 182.426C129.989 182.426 129.203 182.075 128.692 181.373C128.182 180.667 127.918 179.614 127.899 178.215V176.526C127.899 175.063 128.152 173.977 128.658 173.266C129.164 172.555 129.957 172.199 131.037 172.199C132.108 172.199 132.896 172.543 133.402 173.231C133.908 173.915 134.168 174.972 134.182 176.403V178.044ZM132.917 176.314C132.917 175.243 132.767 174.464 132.466 173.977C132.165 173.484 131.689 173.238 131.037 173.238C130.39 173.238 129.918 173.482 129.622 173.97C129.326 174.457 129.173 175.207 129.164 176.219V178.242C129.164 179.318 129.319 180.113 129.629 180.628C129.943 181.138 130.417 181.394 131.051 181.394C131.675 181.394 132.138 181.152 132.438 180.669C132.744 180.186 132.903 179.425 132.917 178.386V176.314ZM143.663 180.614L146.179 174.893H147.758V182.289H146.493V176.909L144.101 182.289H143.226L140.785 176.793V182.289H139.521V174.893H141.161L143.663 180.614ZM154.054 180.614L156.569 174.893H158.148V182.289H156.884V176.909L154.491 182.289H153.616L151.176 176.793V182.289H149.911V174.893H151.552L154.054 180.614Z" fill="black"/>
<path d="M41.9746 32.2725C41.9746 33.387 41.7871 34.361 41.4121 35.1943C41.0371 36.0225 40.5059 36.6553 39.8184 37.0928C39.1309 37.5303 38.3288 37.749 37.4121 37.749C36.5215 37.749 35.735 37.5355 35.0527 37.1084L34.2949 38.3193H33.1855L34.3105 36.5146C33.321 35.5146 32.8262 34.0771 32.8262 32.2021V31.5537C32.8262 30.46 33.0163 29.4938 33.3965 28.6553C33.7767 27.8167 34.3132 27.1761 35.0059 26.7334C35.7038 26.2855 36.5007 26.0615 37.3965 26.0615C38.5111 26.0615 39.4538 26.387 40.2246 27.0381L41.0293 25.749H42.1309L40.8887 27.7412C41.6022 28.7152 41.9642 29.9678 41.9746 31.499V32.2725ZM34.3184 32.2725C34.3184 33.5433 34.5736 34.5459 35.084 35.2803L39.4902 28.2178C38.959 27.6396 38.2611 27.3506 37.3965 27.3506C36.4486 27.3506 35.7012 27.7126 35.1543 28.4365C34.6126 29.1553 34.334 30.1553 34.3184 31.4365V32.2725ZM40.4824 31.5381C40.4824 30.5902 40.3366 29.7751 40.0449 29.0928L35.7559 35.9756C36.2298 36.3089 36.7819 36.4756 37.4121 36.4756C38.3809 36.4756 39.1309 36.124 39.6621 35.4209C40.1934 34.7126 40.4668 33.6995 40.4824 32.3818V31.5381ZM54.7168 29.1865C54.7168 29.7542 54.5658 30.2594 54.2637 30.7021C53.9668 31.1449 53.5632 31.4912 53.0527 31.7412C53.6465 31.9964 54.1152 32.3688 54.459 32.8584C54.8079 33.348 54.9824 33.9027 54.9824 34.5225C54.9824 35.5068 54.6491 36.2907 53.9824 36.874C53.321 37.4574 52.4486 37.749 51.3652 37.749C50.2715 37.749 49.3939 37.4574 48.7324 36.874C48.0762 36.2855 47.748 35.5016 47.748 34.5225C47.748 33.9079 47.9147 33.3532 48.248 32.8584C48.5866 32.3636 49.0527 31.9886 49.6465 31.7334C49.1413 31.4834 48.7428 31.137 48.4512 30.6943C48.1595 30.2516 48.0137 29.749 48.0137 29.1865C48.0137 28.2282 48.321 27.4678 48.9355 26.9053C49.5501 26.3428 50.36 26.0615 51.3652 26.0615C52.3652 26.0615 53.1725 26.3428 53.7871 26.9053C54.4069 27.4678 54.7168 28.2282 54.7168 29.1865ZM53.5371 34.4912C53.5371 33.8558 53.334 33.3376 52.9277 32.9365C52.5267 32.5355 52.0007 32.335 51.3496 32.335C50.6986 32.335 50.1751 32.5329 49.7793 32.9287C49.3887 33.3245 49.1934 33.8454 49.1934 34.4912C49.1934 35.137 49.3835 35.6449 49.7637 36.0146C50.1491 36.3844 50.6829 36.5693 51.3652 36.5693C52.0423 36.5693 52.5736 36.3844 52.959 36.0146C53.3444 35.6396 53.5371 35.1318 53.5371 34.4912ZM51.3652 27.249C50.7975 27.249 50.3366 27.4261 49.9824 27.7803C49.6335 28.1292 49.459 28.6058 49.459 29.21C49.459 29.7881 49.6309 30.2568 49.9746 30.6162C50.3236 30.9704 50.7871 31.1475 51.3652 31.1475C51.9434 31.1475 52.4043 30.9704 52.748 30.6162C53.097 30.2568 53.2715 29.7881 53.2715 29.21C53.2715 28.6318 53.0918 28.1605 52.7324 27.7959C52.373 27.4313 51.9173 27.249 51.3652 27.249ZM62.3418 32.5928C62.0397 32.9521 61.6777 33.2412 61.2559 33.46C60.8392 33.6787 60.3809 33.7881 59.8809 33.7881C59.2246 33.7881 58.6517 33.6266 58.1621 33.3037C57.6777 32.9808 57.3027 32.5277 57.0371 31.9443C56.7715 31.3558 56.6387 30.7074 56.6387 29.999C56.6387 29.2386 56.7819 28.5537 57.0684 27.9443C57.36 27.335 57.7715 26.8688 58.3027 26.5459C58.834 26.223 59.4538 26.0615 60.1621 26.0615C61.2871 26.0615 62.1725 26.4834 62.8184 27.3271C63.4694 28.1657 63.7949 29.3115 63.7949 30.7646V31.1865C63.7949 33.4001 63.3574 35.0173 62.4824 36.0381C61.6074 37.0537 60.2871 37.5745 58.5215 37.6006H58.2402V36.3818H58.5449C59.7376 36.361 60.6543 36.0511 61.2949 35.4521C61.9355 34.848 62.2845 33.8949 62.3418 32.5928ZM60.1152 32.5928C60.5996 32.5928 61.0449 32.4443 61.4512 32.1475C61.8626 31.8506 62.1621 31.4834 62.3496 31.0459V30.4678C62.3496 29.5199 62.1439 28.749 61.7324 28.1553C61.321 27.5615 60.8001 27.2646 60.1699 27.2646C59.5345 27.2646 59.0241 27.5094 58.6387 27.999C58.2533 28.4834 58.0605 29.124 58.0605 29.9209C58.0605 30.6969 58.2454 31.3376 58.6152 31.8428C58.9902 32.3428 59.4902 32.5928 60.1152 32.5928ZM74.7715 35.6787L77.6465 29.1396H79.4512V37.5928H78.0059V31.4443L75.2715 37.5928H74.2715L71.4824 31.3115V37.5928H70.0371V29.1396H71.9121L74.7715 35.6787ZM86.6465 35.6787L89.5215 29.1396H91.3262V37.5928H89.8809V31.4443L87.1465 37.5928H86.1465L83.3574 31.3115V37.5928H81.9121V29.1396H83.7871L86.6465 35.6787Z" fill="black"/>
<path d="M271.312 85.3486L271.312 78.8271L272.221 78.8271L276.049 82.2725C276.628 82.7829 277.097 83.1338 277.457 83.3252C277.822 83.5212 278.198 83.6191 278.585 83.6191C279.104 83.6191 279.531 83.4619 279.863 83.1475C280.196 82.833 280.362 82.4137 280.362 81.8896C280.362 81.2607 280.182 80.7708 279.822 80.4199C279.467 80.0736 278.97 79.9004 278.332 79.9004L278.332 78.6357C279.248 78.6357 279.989 78.9297 280.554 79.5176C281.119 80.11 281.401 80.9007 281.401 81.8896C281.401 82.8148 281.158 83.5462 280.67 84.084C280.187 84.6217 279.542 84.8906 278.735 84.8906C277.756 84.8906 276.589 84.2663 275.235 83.0176L272.344 80.3516L272.344 85.3486L271.312 85.3486ZM276.302 87.2695L281.265 87.7754L281.265 92.875L280.096 92.875L280.096 88.8486L277.382 88.5479C277.669 89.0355 277.812 89.5892 277.812 90.209C277.812 91.1159 277.512 91.8359 276.91 92.3691C276.313 92.9023 275.504 93.1689 274.483 93.1689C273.458 93.1689 272.649 92.891 272.057 92.335C271.469 91.7835 271.175 91.0111 271.175 90.0176C271.175 89.138 271.419 88.4202 271.906 87.8643C272.394 87.3083 273.068 86.9915 273.93 86.9141L273.93 88.1104C273.36 88.1878 272.929 88.3906 272.638 88.7187C272.351 89.0469 272.207 89.4798 272.207 90.0176C272.207 90.6055 272.408 91.0658 272.809 91.3984C273.21 91.7357 273.763 91.9043 274.47 91.9043C275.135 91.9043 275.668 91.722 276.069 91.3574C276.475 90.9974 276.678 90.5166 276.678 89.915C276.678 89.3636 276.557 88.9307 276.315 88.6162L276.042 88.2812L276.302 87.2695ZM275.557 100.791C274.076 100.791 272.975 100.538 272.255 100.032C271.535 99.5264 271.175 98.7357 271.175 97.6602C271.175 96.5983 271.526 95.8122 272.228 95.3018C272.934 94.7913 273.987 94.527 275.386 94.5088L277.074 94.5088C278.537 94.5088 279.624 94.7617 280.335 95.2676C281.046 95.7734 281.401 96.5664 281.401 97.6465C281.401 98.7174 281.057 99.5059 280.369 100.012C279.686 100.518 278.628 100.777 277.197 100.791L275.557 100.791ZM277.286 99.5264C278.357 99.5264 279.136 99.376 279.624 99.0752C280.116 98.7744 280.362 98.2982 280.362 97.6465C280.362 96.9993 280.118 96.5277 279.631 96.2314C279.143 95.9352 278.394 95.7826 277.382 95.7734L275.358 95.7734C274.283 95.7734 273.488 95.9284 272.973 96.2383C272.462 96.5527 272.207 97.0267 272.207 97.6602C272.207 98.2845 272.449 98.7471 272.932 99.0479C273.415 99.3532 274.176 99.5127 275.215 99.5264L277.286 99.5264ZM272.986 110.272L278.708 112.788L278.708 114.367L271.312 114.367L271.312 113.103L276.691 113.103L271.312 110.71L271.312 109.835L276.808 107.395L271.312 107.395L271.312 106.13L278.708 106.13L278.708 107.771L272.986 110.272ZM272.986 120.663L278.708 123.179L278.708 124.758L271.312 124.758L271.312 123.493L276.691 123.493L271.312 121.101L271.312 120.226L276.808 117.785L271.312 117.785L271.312 116.521L278.708 116.521L278.708 118.161L272.986 120.663Z" fill="black"/>
</g>
<defs>
<clipPath id="clip0">
<rect width="223" height="288" fill="white" transform="translate(0 223) rotate(-90)"/>
</clipPath>
</defs>
</svg>
