<svg width="288" height="224" viewBox="0 0 288 224" fill="none" xmlns="http://www.w3.org/2000/svg">
<g clip-path="url(#clip0)">
<path d="M51.2341 77.9699L51.2341 129.659L19.3096 138.683L19.3096 68.9468L51.2341 77.9699Z" stroke="black" stroke-miterlimit="10"/>
<path d="M233.679 111.87C233.679 111.87 235.581 108.261 222.404 101.171C209.226 94.0817 213.03 94.0817 213.03 94.0817L224.034 93.8239L236.396 96.402L256.366 101.945L261.257 103.62L261.8 106.585L239.385 111.612L233.951 113.417L233.679 111.87Z" fill="#484848"/>
<path d="M226.207 93.9539C226.207 93.9539 228.109 70.7516 231.913 70.7516C235.716 70.7516 241.286 76.1654 245.09 86.8643C248.758 97.1764 246.992 115.48 246.992 115.48C246.992 115.48 246.856 115.48 226.207 93.9539Z" fill="#231F20" stroke="black" stroke-miterlimit="10"/>
<path d="M226.208 93.9539L260.442 103.106C262.072 103.622 262.072 105.813 260.442 106.2L226.208 115.352L36.1549 115.352C36.1549 115.352 30.4492 111.742 30.4492 104.653C30.4492 99.2389 36.1549 93.9539 36.1549 93.9539L226.208 93.9539Z" stroke="black" stroke-miterlimit="10"/>
<path d="M24.8789 104.652L39.9581 104.652" stroke="black" stroke-miterlimit="10"/>
<path d="M38.0566 129.659L38.0566 115.48L47.4302 115.48L38.0566 129.659Z" stroke="black" stroke-miterlimit="10"/>
<path d="M38.0566 79.774L38.0566 93.9531L47.4302 93.9531L38.0566 79.774Z" stroke="black" stroke-miterlimit="10"/>
<path d="M28.6827 130.562C28.6827 129.067 27.8312 127.855 26.7808 127.855C25.7304 127.855 24.8789 129.067 24.8789 130.562C24.8789 132.057 25.7304 133.269 26.7808 133.269C27.8312 133.269 28.6827 132.057 28.6827 130.562Z" stroke="black" stroke-miterlimit="10"/>
<path d="M47.5659 125.276C47.5659 123.781 47.1402 122.57 46.615 122.57C46.0898 122.57 45.6641 123.781 45.6641 125.276C45.6641 126.771 46.0898 127.983 46.615 127.983C47.1402 127.983 47.5659 126.771 47.5659 125.276Z" stroke="black" stroke-miterlimit="10"/>
<path d="M44.3062 115.352C44.3062 115.352 39.959 110.067 39.959 104.653C39.959 101.043 44.3062 93.9539 44.3062 93.9539" stroke="black" stroke-miterlimit="10"/>
<path d="M224.306 117.156C224.306 117.156 224.306 138.554 220.503 138.554C216.699 138.554 209.227 122.441 211.129 104.653C213.031 86.8641 209.227 118.961 224.306 117.156Z" stroke="black" stroke-miterlimit="10"/>
<path d="M28.6827 78.8722C28.6827 77.3772 27.8312 76.1652 26.7808 76.1652C25.7304 76.1652 24.8789 77.3772 24.8789 78.8722C24.8789 80.3672 25.7304 81.5791 26.7808 81.5791C27.8312 81.5791 28.6827 80.3672 28.6827 78.8722Z" stroke="black" stroke-miterlimit="10"/>
<path d="M47.5659 82.3526C47.5659 80.8577 47.1402 79.6457 46.615 79.6457C46.0898 79.6457 45.6641 80.8577 45.6641 82.3526C45.6641 83.8476 46.0898 85.0596 46.615 85.0596C47.1402 85.0596 47.5659 83.8476 47.5659 82.3526Z" stroke="black" stroke-miterlimit="10"/>
<path d="M261.936 102.977L261.936 159.178L30.585 159.178L30.585 102.977" stroke="#919191" stroke-width="0.5" stroke-miterlimit="10"/>
<path d="M237 70.5L269 70.5L269 138.5L237 138.5" stroke="#919191" stroke-width="0.5" stroke-miterlimit="10"/>
<path d="M82.6455 179.022C82.6455 178.298 82.7868 177.646 83.0693 177.067C83.3564 176.489 83.7529 176.042 84.2588 175.728C84.7692 175.413 85.3503 175.256 86.002 175.256C87.0091 175.256 87.8226 175.604 88.4424 176.302C89.0667 176.999 89.3789 177.926 89.3789 179.084V179.173C89.3789 179.893 89.2399 180.54 88.9619 181.114C88.6885 181.684 88.2943 182.128 87.7793 182.447C87.2689 182.766 86.681 182.926 86.0156 182.926C85.013 182.926 84.1995 182.577 83.5752 181.88C82.9554 181.183 82.6455 180.26 82.6455 179.111V179.022ZM83.917 179.173C83.917 179.993 84.1061 180.652 84.4844 181.148C84.8672 181.645 85.3776 181.894 86.0156 181.894C86.6582 181.894 87.1686 181.643 87.5469 181.142C87.9251 180.636 88.1143 179.929 88.1143 179.022C88.1143 178.211 87.9206 177.555 87.5332 177.054C87.1504 176.548 86.64 176.295 86.002 176.295C85.3776 176.295 84.874 176.543 84.4912 177.04C84.1084 177.537 83.917 178.248 83.917 179.173ZM96.3105 176.418H93.8291V182.789H92.5645V176.418H90.1309V175.393H96.3105V176.418ZM107.405 182.789H100.884V181.88L104.329 178.052C104.84 177.473 105.19 177.004 105.382 176.644C105.578 176.279 105.676 175.903 105.676 175.516C105.676 174.996 105.519 174.57 105.204 174.237C104.89 173.905 104.47 173.738 103.946 173.738C103.317 173.738 102.827 173.918 102.477 174.278C102.13 174.634 101.957 175.131 101.957 175.769H100.692C100.692 174.853 100.986 174.112 101.574 173.547C102.167 172.982 102.957 172.699 103.946 172.699C104.871 172.699 105.603 172.943 106.141 173.431C106.678 173.914 106.947 174.559 106.947 175.365C106.947 176.345 106.323 177.512 105.074 178.865L102.408 181.757H107.405V182.789ZM118.459 178.544C118.459 180.025 118.206 181.126 117.7 181.846C117.194 182.566 116.404 182.926 115.328 182.926C114.266 182.926 113.48 182.575 112.97 181.873C112.459 181.167 112.195 180.114 112.177 178.715V177.026C112.177 175.563 112.43 174.477 112.936 173.766C113.441 173.055 114.234 172.699 115.314 172.699C116.385 172.699 117.174 173.043 117.68 173.731C118.186 174.415 118.445 175.472 118.459 176.903V178.544ZM117.194 176.814C117.194 175.743 117.044 174.964 116.743 174.477C116.442 173.984 115.966 173.738 115.314 173.738C114.667 173.738 114.196 173.982 113.899 174.47C113.603 174.957 113.451 175.707 113.441 176.719V178.742C113.441 179.818 113.596 180.613 113.906 181.128C114.221 181.638 114.695 181.894 115.328 181.894C115.952 181.894 116.415 181.652 116.716 181.169C117.021 180.686 117.181 179.925 117.194 178.886V176.814ZM126.32 178.544C126.32 180.025 126.067 181.126 125.562 181.846C125.056 182.566 124.265 182.926 123.189 182.926C122.128 182.926 121.341 182.575 120.831 181.873C120.321 181.167 120.056 180.114 120.038 178.715V177.026C120.038 175.563 120.291 174.477 120.797 173.766C121.303 173.055 122.096 172.699 123.176 172.699C124.247 172.699 125.035 173.043 125.541 173.731C126.047 174.415 126.307 175.472 126.32 176.903V178.544ZM125.056 176.814C125.056 175.743 124.905 174.964 124.604 174.477C124.304 173.984 123.827 173.738 123.176 173.738C122.529 173.738 122.057 173.982 121.761 174.47C121.465 174.957 121.312 175.707 121.303 176.719V178.742C121.303 179.818 121.458 180.613 121.768 181.128C122.082 181.638 122.556 181.894 123.189 181.894C123.814 181.894 124.276 181.652 124.577 181.169C124.882 180.686 125.042 179.925 125.056 178.886V176.814ZM134.182 178.544C134.182 180.025 133.929 181.126 133.423 181.846C132.917 182.566 132.126 182.926 131.051 182.926C129.989 182.926 129.203 182.575 128.692 181.873C128.182 181.167 127.918 180.114 127.899 178.715V177.026C127.899 175.563 128.152 174.477 128.658 173.766C129.164 173.055 129.957 172.699 131.037 172.699C132.108 172.699 132.896 173.043 133.402 173.731C133.908 174.415 134.168 175.472 134.182 176.903V178.544ZM132.917 176.814C132.917 175.743 132.767 174.964 132.466 174.477C132.165 173.984 131.689 173.738 131.037 173.738C130.39 173.738 129.918 173.982 129.622 174.47C129.326 174.957 129.173 175.707 129.164 176.719V178.742C129.164 179.818 129.319 180.613 129.629 181.128C129.943 181.638 130.417 181.894 131.051 181.894C131.675 181.894 132.138 181.652 132.438 181.169C132.744 180.686 132.903 179.925 132.917 178.886V176.814ZM143.663 181.114L146.179 175.393H147.758V182.789H146.493V177.409L144.101 182.789H143.226L140.785 177.293V182.789H139.521V175.393H141.161L143.663 181.114ZM154.054 181.114L156.569 175.393H158.148V182.789H156.884V177.409L154.491 182.789H153.616L151.176 177.293V182.789H149.911V175.393H151.552L154.054 181.114Z" fill="black"/>
<path d="M41.9746 32.7725C41.9746 33.887 41.7871 34.861 41.4121 35.6943C41.0371 36.5225 40.5059 37.1553 39.8184 37.5928C39.1309 38.0303 38.3288 38.249 37.4121 38.249C36.5215 38.249 35.735 38.0355 35.0527 37.6084L34.2949 38.8193H33.1855L34.3105 37.0146C33.321 36.0146 32.8262 34.5771 32.8262 32.7021V32.0537C32.8262 30.96 33.0163 29.9938 33.3965 29.1553C33.7767 28.3167 34.3132 27.6761 35.0059 27.2334C35.7038 26.7855 36.5007 26.5615 37.3965 26.5615C38.5111 26.5615 39.4538 26.887 40.2246 27.5381L41.0293 26.249H42.1309L40.8887 28.2412C41.6022 29.2152 41.9642 30.4678 41.9746 31.999V32.7725ZM34.3184 32.7725C34.3184 34.0433 34.5736 35.0459 35.084 35.7803L39.4902 28.7178C38.959 28.1396 38.2611 27.8506 37.3965 27.8506C36.4486 27.8506 35.7012 28.2126 35.1543 28.9365C34.6126 29.6553 34.334 30.6553 34.3184 31.9365V32.7725ZM40.4824 32.0381C40.4824 31.0902 40.3366 30.2751 40.0449 29.5928L35.7559 36.4756C36.2298 36.8089 36.7819 36.9756 37.4121 36.9756C38.3809 36.9756 39.1309 36.624 39.6621 35.9209C40.1934 35.2126 40.4668 34.1995 40.4824 32.8818V32.0381ZM52.5684 38.0928H51.1152V28.46L48.2012 29.5303V28.2178L52.3418 26.6631H52.5684V38.0928ZM63.9355 33.2412C63.9355 34.9339 63.6465 36.1917 63.0684 37.0146C62.4902 37.8376 61.5866 38.249 60.3574 38.249C59.1439 38.249 58.2454 37.848 57.6621 37.0459C57.0788 36.2386 56.7767 35.0355 56.7559 33.4365V31.5068C56.7559 29.835 57.0449 28.5928 57.623 27.7803C58.2012 26.9678 59.1074 26.5615 60.3418 26.5615C61.5658 26.5615 62.4668 26.9548 63.0449 27.7412C63.623 28.5225 63.9199 29.7308 63.9355 31.3662V33.2412ZM62.4902 31.2646C62.4902 30.0407 62.3184 29.1501 61.9746 28.5928C61.6309 28.0303 61.0866 27.749 60.3418 27.749C59.6022 27.749 59.0632 28.0277 58.7246 28.585C58.3861 29.1423 58.2116 29.999 58.2012 31.1553V33.4678C58.2012 34.6969 58.3783 35.6058 58.7324 36.1943C59.0918 36.7777 59.6335 37.0693 60.3574 37.0693C61.071 37.0693 61.5996 36.7933 61.9434 36.2412C62.2923 35.6891 62.4746 34.8193 62.4902 33.6318V31.2646ZM72.6855 29.6865C72.6855 30.2542 72.5345 30.7594 72.2324 31.2021C71.9355 31.6449 71.5319 31.9912 71.0215 32.2412C71.6152 32.4964 72.084 32.8688 72.4277 33.3584C72.7767 33.848 72.9512 34.4027 72.9512 35.0225C72.9512 36.0068 72.6178 36.7907 71.9512 37.374C71.2897 37.9574 70.4173 38.249 69.334 38.249C68.2402 38.249 67.3626 37.9574 66.7012 37.374C66.0449 36.7855 65.7168 36.0016 65.7168 35.0225C65.7168 34.4079 65.8835 33.8532 66.2168 33.3584C66.5553 32.8636 67.0215 32.4886 67.6152 32.2334C67.11 31.9834 66.7116 31.637 66.4199 31.1943C66.1283 30.7516 65.9824 30.249 65.9824 29.6865C65.9824 28.7282 66.2897 27.9678 66.9043 27.4053C67.5189 26.8428 68.3288 26.5615 69.334 26.5615C70.334 26.5615 71.1413 26.8428 71.7559 27.4053C72.3757 27.9678 72.6855 28.7282 72.6855 29.6865ZM71.5059 34.9912C71.5059 34.3558 71.3027 33.8376 70.8965 33.4365C70.4954 33.0355 69.9694 32.835 69.3184 32.835C68.6673 32.835 68.1439 33.0329 67.748 33.4287C67.3574 33.8245 67.1621 34.3454 67.1621 34.9912C67.1621 35.637 67.3522 36.1449 67.7324 36.5146C68.1178 36.8844 68.6517 37.0693 69.334 37.0693C70.0111 37.0693 70.5423 36.8844 70.9277 36.5146C71.3132 36.1396 71.5059 35.6318 71.5059 34.9912ZM69.334 27.749C68.7663 27.749 68.3053 27.9261 67.9512 28.2803C67.6022 28.6292 67.4277 29.1058 67.4277 29.71C67.4277 30.2881 67.5996 30.7568 67.9434 31.1162C68.2923 31.4704 68.7559 31.6475 69.334 31.6475C69.9121 31.6475 70.373 31.4704 70.7168 31.1162C71.0658 30.7568 71.2402 30.2881 71.2402 29.71C71.2402 29.1318 71.0605 28.6605 70.7012 28.2959C70.3418 27.9313 69.8861 27.749 69.334 27.749ZM83.7559 36.1787L86.6309 29.6396H88.4355V38.0928H86.9902V31.9443L84.2559 38.0928H83.2559L80.4668 31.8115V38.0928H79.0215V29.6396H80.8965L83.7559 36.1787ZM95.6309 36.1787L98.5059 29.6396H100.311V38.0928H98.8652V31.9443L96.1309 38.0928H95.1309L92.3418 31.8115V38.0928H90.8965V29.6396H92.7715L95.6309 36.1787Z" fill="black"/>
<path d="M276.903 87.666L276.903 88.6162C276.912 89.2132 277.07 89.6826 277.375 90.0244C277.68 90.3662 278.093 90.5371 278.612 90.5371C279.779 90.5371 280.362 89.9561 280.362 88.7939C280.362 88.2471 280.205 87.8096 279.891 87.4814C279.581 87.1579 279.168 86.9961 278.653 86.9961L278.653 85.7314C279.442 85.7314 280.096 86.0186 280.615 86.5928C281.139 87.1715 281.401 87.9053 281.401 88.7939C281.401 89.7327 281.153 90.4687 280.656 91.002C280.16 91.5352 279.469 91.8018 278.585 91.8018C278.152 91.8018 277.733 91.6605 277.327 91.3779C276.922 91.0999 276.618 90.7194 276.418 90.2363C276.245 90.7832 275.958 91.2048 275.557 91.501C275.156 91.8018 274.666 91.9521 274.087 91.9521C273.194 91.9521 272.485 91.6605 271.961 91.0771C271.437 90.4938 271.175 89.735 271.175 88.8008C271.175 87.8665 271.428 87.1055 271.934 86.5176C272.439 85.9342 273.107 85.6426 273.937 85.6426L273.937 86.9141C273.412 86.9141 272.993 87.085 272.679 87.4268C272.364 87.7686 272.207 88.2266 272.207 88.8008C272.207 89.4115 272.367 89.8786 272.686 90.2021C273.005 90.5257 273.463 90.6875 274.06 90.6875C274.638 90.6875 275.083 90.5098 275.393 90.1543C275.702 89.7988 275.862 89.2861 275.871 88.6162L275.871 87.666L276.903 87.666ZM275.557 99.9297C274.076 99.9297 272.975 99.6768 272.255 99.1709C271.535 98.665 271.175 97.8743 271.175 96.7988C271.175 95.737 271.526 94.9508 272.228 94.4404C272.934 93.93 273.987 93.6657 275.386 93.6475L277.074 93.6475C278.537 93.6475 279.624 93.9004 280.335 94.4062C281.046 94.9121 281.401 95.7051 281.401 96.7852C281.401 97.8561 281.057 98.6445 280.369 99.1504C279.686 99.6562 278.628 99.916 277.197 99.9297L275.557 99.9297ZM277.286 98.665C278.357 98.665 279.136 98.5146 279.624 98.2139C280.116 97.9131 280.362 97.4368 280.362 96.7852C280.362 96.138 280.118 95.6663 279.631 95.3701C279.143 95.0739 278.394 94.9212 277.382 94.9121L275.358 94.9121C274.283 94.9121 273.488 95.0671 272.973 95.377C272.462 95.6914 272.207 96.1654 272.207 96.7988C272.207 97.4232 272.449 97.8857 272.932 98.1865C273.415 98.4919 274.176 98.6514 275.215 98.665L277.286 98.665ZM275.557 107.791C274.076 107.791 272.975 107.538 272.255 107.032C271.535 106.526 271.175 105.736 271.175 104.66C271.175 103.598 271.526 102.812 272.228 102.302C272.934 101.791 273.987 101.527 275.386 101.509L277.074 101.509C278.537 101.509 279.624 101.762 280.335 102.268C281.046 102.773 281.401 103.566 281.401 104.646C281.401 105.717 281.057 106.506 280.369 107.012C279.686 107.518 278.628 107.777 277.197 107.791L275.557 107.791ZM277.286 106.526C278.357 106.526 279.136 106.376 279.624 106.075C280.116 105.774 280.362 105.298 280.362 104.646C280.362 103.999 280.118 103.528 279.631 103.231C279.143 102.935 278.394 102.783 277.382 102.773L275.358 102.773C274.283 102.773 273.488 102.928 272.973 103.238C272.462 103.553 272.207 104.027 272.207 104.66C272.207 105.285 272.449 105.747 272.932 106.048C273.415 106.353 274.176 106.513 275.215 106.526L277.286 106.526ZM272.986 117.272L278.708 119.788L278.708 121.367L271.312 121.367L271.312 120.103L276.691 120.103L271.312 117.71L271.312 116.835L276.808 114.395L271.312 114.395L271.312 113.13L278.708 113.13L278.708 114.771L272.986 117.272ZM272.986 127.663L278.708 130.179L278.708 131.758L271.312 131.758L271.312 130.493L276.691 130.493L271.312 128.101L271.312 127.226L276.808 124.785L271.312 124.785L271.312 123.521L278.708 123.521L278.708 125.161L272.986 127.663Z" fill="black"/>
</g>
<defs>
<clipPath id="clip0">
<rect width="223" height="288" fill="white" transform="translate(0 223.5) rotate(-90)"/>
</clipPath>
</defs>
</svg>
