<svg width="223" height="288" viewBox="0 0 223 288" fill="none" xmlns="http://www.w3.org/2000/svg">
<g clip-path="url(#clip0)">
<path d="M145.53 51.2341H93.84L84.8169 19.3096H154.553L145.53 51.2341Z" stroke="black" stroke-miterlimit="10"/>
<path d="M111.629 233.679C111.629 233.679 115.239 235.581 122.328 222.404C129.418 209.226 129.418 213.03 129.418 213.03L129.676 224.034L127.098 236.396L121.555 256.366L119.879 261.257L116.914 261.8L111.887 239.385L110.083 233.951L111.629 233.679Z" fill="#484848"/>
<path d="M129.546 226.207C129.546 226.207 152.748 228.109 152.748 231.913C152.748 235.716 147.335 241.286 136.636 245.09C126.324 248.758 108.02 246.992 108.02 246.992C108.02 246.992 108.02 246.856 129.546 226.207Z" fill="#231F20" stroke="black" stroke-miterlimit="10"/>
<path d="M129.546 226.208L120.394 260.442C119.878 262.072 117.687 262.072 117.3 260.442L108.148 226.208V36.1549C108.148 36.1549 111.758 30.4492 118.847 30.4492C124.261 30.4492 129.546 36.1549 129.546 36.1549V226.208Z" stroke="black" stroke-miterlimit="10"/>
<path d="M118.848 24.8789V39.9581" stroke="black" stroke-miterlimit="10"/>
<path d="M93.8408 38.0566H108.02V47.4302L93.8408 38.0566Z" stroke="black" stroke-miterlimit="10"/>
<path d="M143.726 38.0566H129.546V47.4302L143.726 38.0566Z" stroke="black" stroke-miterlimit="10"/>
<path d="M92.9384 28.6827C94.4334 28.6827 95.6453 27.8312 95.6453 26.7808C95.6453 25.7304 94.4334 24.8789 92.9384 24.8789C91.4434 24.8789 90.2314 25.7304 90.2314 26.7808C90.2314 27.8312 91.4434 28.6827 92.9384 28.6827Z" stroke="black" stroke-miterlimit="10"/>
<path d="M98.2231 47.5659C99.7181 47.5659 100.93 47.1402 100.93 46.615C100.93 46.0898 99.7181 45.6641 98.2231 45.6641C96.728 45.6641 95.5161 46.0898 95.5161 46.615C95.5161 47.1402 96.728 47.5659 98.2231 47.5659Z" stroke="black" stroke-miterlimit="10"/>
<path d="M108.148 44.3062C108.148 44.3062 113.433 39.959 118.847 39.959C122.457 39.959 129.546 44.3062 129.546 44.3062" stroke="black" stroke-miterlimit="10"/>
<path d="M106.344 224.306C106.344 224.306 84.9463 224.306 84.9463 220.503C84.9463 216.699 101.059 209.227 118.847 211.129C136.636 213.031 104.539 209.227 106.344 224.306Z" stroke="black" stroke-miterlimit="10"/>
<path d="M144.628 28.6827C146.123 28.6827 147.335 27.8312 147.335 26.7808C147.335 25.7304 146.123 24.8789 144.628 24.8789C143.133 24.8789 141.921 25.7304 141.921 26.7808C141.921 27.8312 143.133 28.6827 144.628 28.6827Z" stroke="black" stroke-miterlimit="10"/>
<path d="M141.147 47.5659C142.642 47.5659 143.854 47.1402 143.854 46.615C143.854 46.0898 142.642 45.6641 141.147 45.6641C139.652 45.6641 138.44 46.0898 138.44 46.615C138.44 47.1402 139.652 47.5659 141.147 47.5659Z" stroke="black" stroke-miterlimit="10"/>
<path d="M120.523 261.936H64.3218V30.585H120.523" stroke="#919191" stroke-width="0.5" stroke-miterlimit="10"/>
<path d="M153 237L153 269L85 269L85 237" stroke="#919191" stroke-width="0.5" stroke-miterlimit="10"/>
<path d="M51.6323 164.904C50.9077 164.904 50.256 164.763 49.6772 164.48C49.0985 164.193 48.6519 163.797 48.3374 163.291C48.0229 162.781 47.8657 162.2 47.8657 161.548C47.8657 160.541 48.2144 159.727 48.9116 159.107C49.6089 158.483 50.5363 158.171 51.6938 158.171H51.7827C52.5028 158.171 53.1499 158.31 53.7241 158.588C54.2938 158.861 54.7381 159.256 55.0571 159.771C55.3761 160.281 55.5356 160.869 55.5356 161.534C55.5356 162.537 55.187 163.35 54.4897 163.975C53.7925 164.594 52.8696 164.904 51.7212 164.904H51.6323ZM51.7827 163.633C52.603 163.633 53.2616 163.444 53.7583 163.065C54.255 162.683 54.5034 162.172 54.5034 161.534C54.5034 160.892 54.2528 160.381 53.7515 160.003C53.2456 159.625 52.5392 159.436 51.6323 159.436C50.8211 159.436 50.1649 159.629 49.6636 160.017C49.1577 160.399 48.9048 160.91 48.9048 161.548C48.9048 162.172 49.1532 162.676 49.6499 163.059C50.1466 163.441 50.8576 163.633 51.7827 163.633ZM49.0278 151.239V153.721H55.3989V154.985H49.0278V157.419H48.0024V151.239H49.0278ZM55.3989 140.145V146.666H54.4897L50.6616 143.221C50.0828 142.71 49.6134 142.359 49.2534 142.168C48.8888 141.972 48.5129 141.874 48.1255 141.874C47.606 141.874 47.1799 142.031 46.8472 142.346C46.5145 142.66 46.3481 143.079 46.3481 143.604C46.3481 144.232 46.5282 144.722 46.8882 145.073C47.2437 145.42 47.7404 145.593 48.3784 145.593V146.857C47.4624 146.857 46.7218 146.563 46.1567 145.976C45.5916 145.383 45.3091 144.592 45.3091 143.604C45.3091 142.678 45.5529 141.947 46.0405 141.409C46.5236 140.871 47.1685 140.603 47.9751 140.603C48.9549 140.603 50.1216 141.227 51.4751 142.476L54.3667 145.142V140.145H55.3989ZM51.1538 129.091C52.6349 129.091 53.7355 129.344 54.4556 129.85C55.1756 130.355 55.5356 131.146 55.5356 132.222C55.5356 133.284 55.1847 134.07 54.4829 134.58C53.7765 135.09 52.7238 135.355 51.3247 135.373H49.6362C48.1733 135.373 47.0864 135.12 46.3755 134.614C45.6646 134.108 45.3091 133.315 45.3091 132.235C45.3091 131.164 45.6532 130.376 46.3413 129.87C47.0249 129.364 48.0822 129.104 49.5132 129.091H51.1538ZM49.4243 130.355C48.3534 130.355 47.5741 130.506 47.0864 130.807C46.5942 131.107 46.3481 131.584 46.3481 132.235C46.3481 132.882 46.592 133.354 47.0796 133.65C47.5672 133.947 48.3169 134.099 49.3286 134.108H51.3521C52.4276 134.108 53.2228 133.953 53.7378 133.644C54.2482 133.329 54.5034 132.855 54.5034 132.222C54.5034 131.597 54.2619 131.135 53.7788 130.834C53.2957 130.529 52.5347 130.369 51.4956 130.355H49.4243ZM51.1538 121.229C52.6349 121.229 53.7355 121.482 54.4556 121.988C55.1756 122.494 55.5356 123.285 55.5356 124.36C55.5356 125.422 55.1847 126.208 54.4829 126.719C53.7765 127.229 52.7238 127.493 51.3247 127.512H49.6362C48.1733 127.512 47.0864 127.259 46.3755 126.753C45.6646 126.247 45.3091 125.454 45.3091 124.374C45.3091 123.303 45.6532 122.515 46.3413 122.009C47.0249 121.503 48.0822 121.243 49.5132 121.229H51.1538ZM49.4243 122.494C48.3534 122.494 47.5741 122.645 47.0864 122.945C46.5942 123.246 46.3481 123.722 46.3481 124.374C46.3481 125.021 46.592 125.493 47.0796 125.789C47.5672 126.085 48.3169 126.238 49.3286 126.247H51.3521C52.4276 126.247 53.2228 126.092 53.7378 125.782C54.2482 125.468 54.5034 124.994 54.5034 124.36C54.5034 123.736 54.2619 123.273 53.7788 122.973C53.2957 122.667 52.5347 122.508 51.4956 122.494H49.4243ZM51.1538 113.368C52.6349 113.368 53.7355 113.621 54.4556 114.127C55.1756 114.633 55.5356 115.424 55.5356 116.499C55.5356 117.561 55.1847 118.347 54.4829 118.857C53.7765 119.368 52.7238 119.632 51.3247 119.65H49.6362C48.1733 119.65 47.0864 119.397 46.3755 118.892C45.6646 118.386 45.3091 117.593 45.3091 116.513C45.3091 115.442 45.6532 114.653 46.3413 114.147C47.0249 113.642 48.0822 113.382 49.5132 113.368H51.1538ZM49.4243 114.633C48.3534 114.633 47.5741 114.783 47.0864 115.084C46.5942 115.385 46.3481 115.861 46.3481 116.513C46.3481 117.16 46.592 117.632 47.0796 117.928C47.5672 118.224 48.3169 118.377 49.3286 118.386H51.3521C52.4276 118.386 53.2228 118.231 53.7378 117.921C54.2482 117.606 54.5034 117.132 54.5034 116.499C54.5034 115.875 54.2619 115.412 53.7788 115.111C53.2957 114.806 52.5347 114.646 51.4956 114.633H49.4243ZM53.7241 103.887L48.0024 101.371V99.792H55.3989V101.057H50.019L55.3989 103.449V104.324L49.9028 106.765H55.3989V108.029H48.0024V106.389L53.7241 103.887ZM53.7241 93.4961L48.0024 90.9805V89.4014H55.3989V90.666H50.019L55.3989 93.0586V93.9336L49.9028 96.374H55.3989V97.6387H48.0024L48.0024 95.998L53.7241 93.4961Z" fill="black"/>
<path d="M163.07 77.6797C163.07 78.7943 162.883 79.7682 162.508 80.6016C162.133 81.4297 161.602 82.0625 160.914 82.5C160.227 82.9375 159.424 83.1562 158.508 83.1562C157.617 83.1562 156.831 82.9427 156.148 82.5156L155.391 83.7266H154.281L155.406 81.9219C154.417 80.9219 153.922 79.4844 153.922 77.6094V76.9609C153.922 75.8672 154.112 74.901 154.492 74.0625C154.872 73.224 155.409 72.5833 156.102 72.1406C156.799 71.6927 157.596 71.4688 158.492 71.4688C159.607 71.4688 160.549 71.7943 161.32 72.4453L162.125 71.1562H163.227L161.984 73.1484C162.698 74.1224 163.06 75.375 163.07 76.9062V77.6797ZM155.414 77.6797C155.414 78.9505 155.669 79.9531 156.18 80.6875L160.586 73.625C160.055 73.0469 159.357 72.7578 158.492 72.7578C157.544 72.7578 156.797 73.1198 156.25 73.8438C155.708 74.5625 155.43 75.5625 155.414 76.8438V77.6797ZM161.578 76.9453C161.578 75.9974 161.432 75.1823 161.141 74.5L156.852 81.3828C157.326 81.7161 157.878 81.8828 158.508 81.8828C159.477 81.8828 160.227 81.5312 160.758 80.8281C161.289 80.1198 161.562 79.1068 161.578 77.7891V76.9453ZM173.664 83H172.211V73.3672L169.297 74.4375V73.125L173.438 71.5703H173.664V83ZM185.031 78.1484C185.031 79.8411 184.742 81.099 184.164 81.9219C183.586 82.7448 182.682 83.1562 181.453 83.1562C180.24 83.1562 179.341 82.7552 178.758 81.9531C178.174 81.1458 177.872 79.9427 177.852 78.3438V76.4141C177.852 74.7422 178.141 73.5 178.719 72.6875C179.297 71.875 180.203 71.4688 181.438 71.4688C182.661 71.4688 183.562 71.862 184.141 72.6484C184.719 73.4297 185.016 74.638 185.031 76.2734V78.1484ZM183.586 76.1719C183.586 74.9479 183.414 74.0573 183.07 73.5C182.727 72.9375 182.182 72.6562 181.438 72.6562C180.698 72.6562 180.159 72.9349 179.82 73.4922C179.482 74.0495 179.307 74.9062 179.297 76.0625V78.375C179.297 79.6042 179.474 80.513 179.828 81.1016C180.188 81.6849 180.729 81.9766 181.453 81.9766C182.167 81.9766 182.695 81.7005 183.039 81.1484C183.388 80.5964 183.57 79.7266 183.586 78.5391V76.1719ZM193.781 74.5938C193.781 75.1615 193.63 75.6667 193.328 76.1094C193.031 76.5521 192.628 76.8984 192.117 77.1484C192.711 77.4036 193.18 77.776 193.523 78.2656C193.872 78.7552 194.047 79.3099 194.047 79.9297C194.047 80.9141 193.714 81.6979 193.047 82.2812C192.385 82.8646 191.513 83.1562 190.43 83.1562C189.336 83.1562 188.458 82.8646 187.797 82.2812C187.141 81.6927 186.812 80.9089 186.812 79.9297C186.812 79.3151 186.979 78.7604 187.312 78.2656C187.651 77.7708 188.117 77.3958 188.711 77.1406C188.206 76.8906 187.807 76.5443 187.516 76.1016C187.224 75.6589 187.078 75.1562 187.078 74.5938C187.078 73.6354 187.385 72.875 188 72.3125C188.615 71.75 189.424 71.4688 190.43 71.4688C191.43 71.4688 192.237 71.75 192.852 72.3125C193.471 72.875 193.781 73.6354 193.781 74.5938ZM192.602 79.8984C192.602 79.263 192.398 78.7448 191.992 78.3438C191.591 77.9427 191.065 77.7422 190.414 77.7422C189.763 77.7422 189.24 77.9401 188.844 78.3359C188.453 78.7318 188.258 79.2526 188.258 79.8984C188.258 80.5443 188.448 81.0521 188.828 81.4219C189.214 81.7917 189.747 81.9766 190.43 81.9766C191.107 81.9766 191.638 81.7917 192.023 81.4219C192.409 81.0469 192.602 80.5391 192.602 79.8984ZM190.43 72.6562C189.862 72.6562 189.401 72.8333 189.047 73.1875C188.698 73.5365 188.523 74.013 188.523 74.6172C188.523 75.1953 188.695 75.6641 189.039 76.0234C189.388 76.3776 189.852 76.5547 190.43 76.5547C191.008 76.5547 191.469 76.3776 191.812 76.0234C192.161 75.6641 192.336 75.1953 192.336 74.6172C192.336 74.0391 192.156 73.5677 191.797 73.2031C191.438 72.8385 190.982 72.6562 190.43 72.6562ZM204.852 81.0859L207.727 74.5469H209.531V83H208.086V76.8516L205.352 83H204.352L201.562 76.7188V83H200.117V74.5469H201.992L204.852 81.0859ZM216.727 81.0859L219.602 74.5469H221.406V83H219.961V76.8516L217.227 83H216.227L213.438 76.7188V83H211.992V74.5469H213.867L216.727 81.0859Z" fill="black"/>
<path d="M98.666 280.408H99.6162C100.213 280.399 100.683 280.242 101.024 279.937C101.366 279.631 101.537 279.219 101.537 278.699C101.537 277.533 100.956 276.949 99.7939 276.949C99.2471 276.949 98.8096 277.106 98.4814 277.421C98.1579 277.731 97.9961 278.143 97.9961 278.658H96.7314C96.7314 277.87 97.0186 277.216 97.5928 276.696C98.1715 276.172 98.9053 275.91 99.7939 275.91C100.733 275.91 101.469 276.159 102.002 276.655C102.535 277.152 102.802 277.842 102.802 278.727C102.802 279.16 102.66 279.579 102.378 279.984C102.1 280.39 101.719 280.693 101.236 280.894C101.783 281.067 102.205 281.354 102.501 281.755C102.802 282.156 102.952 282.646 102.952 283.225C102.952 284.118 102.66 284.826 102.077 285.351C101.494 285.875 100.735 286.137 99.8008 286.137C98.8665 286.137 98.1055 285.884 97.5176 285.378C96.9342 284.872 96.6426 284.204 96.6426 283.375H97.9141C97.9141 283.899 98.085 284.318 98.4268 284.633C98.7686 284.947 99.2266 285.104 99.8008 285.104C100.411 285.104 100.879 284.945 101.202 284.626C101.526 284.307 101.688 283.849 101.688 283.252C101.688 282.673 101.51 282.229 101.154 281.919C100.799 281.609 100.286 281.45 99.6162 281.44H98.666V280.408ZM110.93 281.755C110.93 283.236 110.677 284.337 110.171 285.057C109.665 285.777 108.874 286.137 107.799 286.137C106.737 286.137 105.951 285.786 105.44 285.084C104.93 284.378 104.666 283.325 104.647 281.926V280.237C104.647 278.774 104.9 277.688 105.406 276.977C105.912 276.266 106.705 275.91 107.785 275.91C108.856 275.91 109.645 276.254 110.15 276.942C110.656 277.626 110.916 278.683 110.93 280.114V281.755ZM109.665 280.025C109.665 278.954 109.515 278.175 109.214 277.688C108.913 277.195 108.437 276.949 107.785 276.949C107.138 276.949 106.666 277.193 106.37 277.681C106.074 278.168 105.921 278.918 105.912 279.93V281.953C105.912 283.029 106.067 283.824 106.377 284.339C106.691 284.849 107.165 285.104 107.799 285.104C108.423 285.104 108.886 284.863 109.187 284.38C109.492 283.897 109.651 283.136 109.665 282.097V280.025ZM118.791 281.755C118.791 283.236 118.538 284.337 118.032 285.057C117.526 285.777 116.736 286.137 115.66 286.137C114.598 286.137 113.812 285.786 113.302 285.084C112.791 284.378 112.527 283.325 112.509 281.926V280.237C112.509 278.774 112.762 277.688 113.268 276.977C113.773 276.266 114.566 275.91 115.646 275.91C116.717 275.91 117.506 276.254 118.012 276.942C118.518 277.626 118.777 278.683 118.791 280.114V281.755ZM117.526 280.025C117.526 278.954 117.376 278.175 117.075 277.688C116.774 277.195 116.298 276.949 115.646 276.949C114.999 276.949 114.528 277.193 114.231 277.681C113.935 278.168 113.783 278.918 113.773 279.93V281.953C113.773 283.029 113.928 283.824 114.238 284.339C114.553 284.849 115.027 285.104 115.66 285.104C116.285 285.104 116.747 284.863 117.048 284.38C117.353 283.897 117.513 283.136 117.526 282.097V280.025ZM128.272 284.325L130.788 278.604H132.367V286H131.103V280.62L128.71 286H127.835L125.395 280.504V286H124.13V278.604H125.771L128.272 284.325ZM138.663 284.325L141.179 278.604H142.758V286H141.493V280.62L139.101 286H138.226L135.785 280.504V286H134.521V278.604H136.161L138.663 284.325Z" fill="black"/>
</g>
<defs>
<clipPath id="clip0">
<rect width="223" height="288" fill="white"/>
</clipPath>
</defs>
</svg>
