<svg width="7" height="34" viewBox="0 0 7 34" fill="none" xmlns="http://www.w3.org/2000/svg"><path d="M5.505 0.599999V13.47C5.505 14.82 5.445 16.1475 5.325 17.4525C5.205 18.7425 5.0475 20.1375 4.8525 21.6375H1.59C1.38 20.1375 1.215 18.7425 1.095 17.4525C0.99 16.1475 0.9375 14.82 0.9375 13.47V0.599999H5.505ZM0.0150001 30.21C0.0150001 29.775 0.0900001 29.37 0.24 28.995C0.405 28.605 0.63 28.2675 0.915 27.9825C1.2 27.6975 1.53 27.4725 1.905 27.3075C2.28 27.1425 2.6925 27.06 3.1425 27.06C3.5775 27.06 3.9825 27.1425 4.3575 27.3075C4.7475 27.4725 5.0775 27.6975 5.3475 27.9825C5.6325 28.2675 5.8575 28.605 6.0225 28.995C6.1875 29.37 6.27 29.775 6.27 30.21C6.27 30.66 6.1875 31.0725 6.0225 31.4475C5.8575 31.8225 5.6325 32.1525 5.3475 32.4375C5.0775 32.7225 4.7475 32.94 4.3575 33.09C3.9825 33.255 3.5775 33.3375 3.1425 33.3375C2.6925 33.3375 2.28 33.255 1.905 33.09C1.53 32.94 1.2 32.7225 0.915 32.4375C0.63 32.1525 0.405 31.8225 0.24 31.4475C0.0900001 31.0725 0.0150001 30.66 0.0150001 30.21Z" fill="#FF3C11"/></svg>