<svg xmlns="http://www.w3.org/2000/svg" width="20" height="20" viewBox="0 0 20 20"><g><g><path fill="#fff" d="M10 20a9.935 9.935 0 0 1-7.071-2.929A9.935 9.935 0 0 1 0 10a9.935 9.935 0 0 1 2.929-7.071A9.935 9.935 0 0 1 10 0a9.935 9.935 0 0 1 7.071 2.929A9.935 9.935 0 0 1 20 10a9.935 9.935 0 0 1-2.929 7.071A9.935 9.935 0 0 1 10 20zm0-18.438c-4.652 0-8.438 3.786-8.438 8.438 0 4.652 3.786 8.438 8.438 8.438 4.652 0 8.438-3.786 8.438-8.438 0-4.652-3.786-8.438-8.438-8.438zm4.116 12.554A5.803 5.803 0 0 1 10 15.818a5.802 5.802 0 0 1-4.116-1.702 5.827 5.827 0 0 1 0-8.232 5.827 5.827 0 0 1 8.232 0L13.01 6.99a4.263 4.263 0 0 0-6.022 0 4.263 4.263 0 0 0 0 6.022 4.262 4.262 0 0 0 6.022 0z"/></g></g></svg>