<svg xmlns="http://www.w3.org/2000/svg" width="50" height="43" viewBox="0 0 50 43"><g><g><path fill="#ff9800" d="M0 0h50v43H0z"/></g><g><path fill="#fff" d="M8.884 23.141c.409-.07 6.743-1.507 9.858-2.216V0h11.684v15.516l.246.014c2.25.122 6.532.356 7.436.456 1.693.188 5.117.642 6.313 1.129.924.376.616.94-.047 1.239-.459.206-1.639.564-4.265 1.206-2.31.564-4.23.715-5.009.833l-4.674.532-1.533 5.497c1.071.177 3.463.43 4.595.66 1.848.377 3.234.753 5.081 1.505.992.404.698 1.148.308 1.505-.616.564-4.156 1.714-5.543 2.069-1.11.283-4.709 1.236-6.34 1.797-.535 1.922-1.694 5.941-2.044 6.65-.351.71-.73.296-.877 0l-1.095-3.103c-.828-3.25-2.512-9.753-2.63-9.753-.145 0-7.01-.71-8.908-.798-1.899-.089-4.966-.887-5.988-1.419-.818-.425-.341-.827 0-.975.973-.443 3.023-1.348 3.432-1.419z"/></g></g></svg>