<svg width="243" height="127" viewBox="0 0 243 127" fill="none" xmlns="http://www.w3.org/2000/svg">
<g clip-path="url(#clip0)">
<path d="M52.3715 39.5513C52.3715 42.5438 42.4023 45.0254 38.3523 45.0254C34.3023 45.0254 31 42.5438 31 39.5513C31 36.5588 34.3023 34.0771 38.3523 34.0771C42.4023 34.0771 52.3715 36.4858 52.3715 39.5513Z" fill="#FEFEFE"/>
<path d="M54.1785 27.2893C53.1192 29.187 45.9538 26.0485 43.3369 24.1508C40.72 22.2531 39.4738 19.1146 40.5331 17.2169C41.5923 15.3192 44.5208 15.2462 47.0754 17.2169C49.6923 19.1146 55.2377 25.3916 54.1785 27.2893Z" fill="#FEFEFE"/>
<path d="M63.1508 20.0634C61.9669 21.3772 56.6085 17.2168 54.8638 15.0272C53.0569 12.8375 52.5585 10.0639 53.7423 8.67716C54.9261 7.36337 57.2938 8.02027 59.1008 10.1369C60.8454 12.3266 64.3346 18.6766 63.1508 20.0634Z" fill="#FEFEFE"/>
<path d="M197.237 40.2813C197.237 43.2738 207.206 45.7554 211.256 45.7554C215.306 45.7554 218.608 43.2738 218.608 40.2813C218.608 37.2887 215.306 34.8071 211.256 34.8071C207.144 34.8071 197.237 37.2157 197.237 40.2813Z" fill="#FEFEFE"/>
<path d="M195.43 28.019C196.489 29.9167 203.655 26.7782 206.272 24.8805C208.888 22.9828 210.135 19.8443 209.075 17.9466C208.016 16.0489 205.088 15.9759 202.533 17.9466C199.978 19.9173 194.371 26.1213 195.43 28.019Z" fill="#FEFEFE"/>
<path d="M186.395 20.7934C187.579 22.1071 192.938 17.9468 194.682 15.7571C196.489 13.5675 196.988 10.7939 195.804 9.40714C194.62 8.09335 192.252 8.75025 190.445 10.8669C188.701 13.0566 185.212 19.4066 186.395 20.7934Z" fill="#FEFEFE"/>
<path d="M90.3792 37.2885C90.5662 36.8506 91.3762 35.3178 92.7469 32.6902L93.0585 32.1063C94.4915 29.2597 95.7377 27.1431 96.6723 25.7563C97.6069 24.3695 98.3546 23.5666 98.7908 23.2747C99.2269 22.9827 99.7254 22.8368 100.286 22.8368C100.785 22.8368 101.221 22.9827 101.47 23.2017C101.719 23.4207 101.906 23.9316 101.906 24.6615C101.906 25.3184 101.408 26.1942 100.348 27.435C98.7285 29.3327 96.3608 33.2741 93.1831 39.3322C91.3138 42.9086 89.9431 45.3172 89.1331 46.485C88.3231 47.6529 87.3262 48.5287 86.2046 49.1126C85.0831 49.6965 84.0238 49.9885 83.0269 49.9885C81.8431 49.9885 80.9085 49.6965 80.0985 49.1126C79.2885 48.5287 78.9146 47.7258 78.9146 46.85C78.9146 45.9741 79.1638 45.6092 79.7246 45.6092C79.9738 45.6092 80.41 45.7552 80.9708 46.0471C81.5315 46.3391 82.03 46.558 82.4662 46.558C83.8992 46.558 85.1454 45.8281 86.2046 44.2954C87.2638 42.7626 87.8246 41.7408 87.8246 41.1569C87.8246 40.5 86.7031 37.9454 84.3977 33.6391C82.7777 30.5006 81.7185 28.1649 81.22 26.5592C80.7215 24.9534 80.4723 24.0046 80.4723 23.5666C80.4723 23.1287 80.7215 22.7638 81.2823 22.3258C81.8431 21.8879 82.2169 21.6689 82.5285 21.6689C82.9023 21.6689 83.2138 21.8149 83.5877 22.1069C83.9615 22.3988 84.2108 22.7638 84.2731 23.3477C84.7715 25.6833 85.5815 27.946 86.7031 30.0626L90.3792 37.2885Z" fill="white"/>
<path d="M105.084 49.1858C103.464 49.1858 102.218 48.6749 101.345 47.653C100.473 46.6312 100.099 45.1714 100.099 43.3467C100.099 40.4272 101.096 37.2887 103.152 33.8582C105.208 30.5007 107.14 28.749 109.134 28.749C110.068 28.749 110.878 29.2599 111.564 30.3548C112.249 31.4496 112.561 32.6174 112.561 33.7852C112.561 34.8801 112.374 35.6099 112.062 36.0479C111.688 36.4128 111.377 36.6318 111.065 36.6318C110.131 36.6318 109.57 35.8289 109.383 34.2961C109.258 33.1283 109.009 32.6174 108.635 32.6174C107.888 32.6174 106.828 33.9312 105.582 36.4858C104.336 39.0404 103.713 41.303 103.713 43.2737C103.713 44.8065 104.461 45.6094 105.894 45.6094C107.514 45.6094 109.072 44.9525 110.692 43.6387C111.439 42.9818 112.062 42.6898 112.498 42.6898C113.059 42.6898 113.308 42.9818 113.308 43.6387C113.308 44.5145 112.436 45.6824 110.692 47.1421C108.822 48.4559 107.015 49.1858 105.084 49.1858Z" fill="white"/>
<path d="M128.512 45.6823C128.013 44.6605 127.702 42.6898 127.452 39.8432C127.265 36.8507 126.767 35.3909 126.019 35.3909C125.334 35.3909 124.088 36.9237 122.343 39.9892C120.598 43.0547 119.539 45.3174 119.103 46.8501C119.041 47.2881 118.854 47.653 118.605 47.945C118.355 48.2369 118.106 48.3829 117.857 48.3829C116.362 48.3829 115.614 47.58 115.614 45.9743C115.614 45.4634 115.738 44.2226 116.05 42.2519C116.424 39.7703 116.611 36.7047 116.611 33.0553C116.611 32.5444 116.798 31.9605 117.234 31.3036C117.608 30.7197 118.044 30.3547 118.542 30.3547C119.103 30.3547 119.539 30.5007 119.851 30.8657C120.162 31.2306 120.287 32.1065 120.287 33.5662C120.287 34.6611 119.975 36.7777 119.415 39.9892C121.533 34.0772 123.963 31.1576 126.58 31.1576C128.885 31.1576 130.194 33.2743 130.63 37.5076C131.004 41.8139 131.502 43.9306 132.001 43.9306C132.25 43.9306 132.499 43.8576 132.811 43.7846C133.185 43.6386 133.434 43.5657 133.683 43.5657C134.182 43.5657 134.368 43.8576 134.368 44.5145C134.368 45.0984 134.057 45.7553 133.372 46.4122C132.748 47.0691 131.876 47.434 130.942 47.434C129.82 47.434 128.948 46.8501 128.512 45.6823Z" fill="white"/>
<path d="M149.385 42.2519C149.385 43.4197 148.512 44.8795 146.768 46.5582C145.023 48.2369 143.092 49.0398 140.911 49.0398C139.228 49.0398 137.92 48.4559 136.985 47.2151C136.051 45.9743 135.552 44.2956 135.552 42.0329C135.552 38.8214 136.549 35.7559 138.481 32.9094C140.412 30.0628 142.531 28.676 144.774 28.676C145.895 28.676 146.768 29.114 147.453 29.9168C148.138 30.7197 148.45 31.7415 148.45 32.8364C148.45 34.88 147.64 36.7777 145.958 38.6025C144.338 40.4272 142.219 41.668 139.602 42.3979C139.291 42.4709 139.166 42.6898 139.166 43.0548C139.166 43.6387 139.353 44.1496 139.789 44.6605C140.225 45.1714 140.786 45.3904 141.472 45.3904C143.465 45.3904 145.459 44.2226 147.391 41.814C147.765 41.376 148.138 41.0841 148.512 41.0841C149.073 41.0841 149.385 41.449 149.385 42.2519ZM139.415 39.1864C140.973 38.8214 142.344 38.0186 143.528 36.8507C144.712 35.6829 145.335 34.5881 145.335 33.6392C145.335 33.2743 145.272 32.9094 145.085 32.6904C144.898 32.3984 144.649 32.3255 144.4 32.3255C143.528 32.3255 142.593 33.0553 141.534 34.5151C140.475 35.9019 139.789 37.5076 139.415 39.1864Z" fill="white"/>
<path d="M162.282 41.8869C161.348 43.9306 160.226 45.5363 158.98 46.7041C157.734 47.8719 156.488 48.5288 155.179 48.5288C154.432 48.5288 153.622 48.0909 152.874 47.1421C152.126 46.1932 151.69 44.7334 151.69 42.8357C151.69 41.449 152.002 39.4053 152.562 36.6317C153.061 34.3691 153.31 32.6173 153.31 31.3765C153.684 30.4277 154.307 29.9168 155.179 29.9168C155.74 29.9168 156.238 30.1357 156.55 30.5737C156.862 31.0116 157.048 31.4495 157.048 31.8875C157.048 32.6903 156.799 33.8581 156.301 35.3909C155.989 36.2668 155.678 37.5806 155.366 39.1863C155.055 40.865 154.868 41.8869 154.868 42.3248C154.868 43.8576 155.117 44.6604 155.678 44.6604C156.55 44.6604 157.672 43.7116 159.167 41.7409C160.6 39.8432 161.597 37.7995 162.033 35.8288C162.469 33.8581 162.843 32.5444 163.217 31.9604C163.591 31.3765 164.027 31.0116 164.712 31.0116C165.709 31.0116 166.27 31.6685 166.27 33.0553C166.27 33.2742 166.208 33.6392 166.021 34.2231C165.46 36.2668 165.148 38.6024 165.148 41.157C165.148 44.1495 165.585 45.9742 166.457 46.5581C166.768 46.7771 166.893 46.9961 166.893 47.288C166.893 47.726 166.644 48.0909 166.145 48.4558C165.647 48.8208 165.148 49.0398 164.712 49.0398C163.902 49.0398 163.342 48.3829 162.905 47.0691C162.469 45.7553 162.282 44.0035 162.282 41.8869ZM167.08 22.399C167.08 22.6179 167.018 22.9099 166.955 23.2018C166.831 23.5668 166.706 23.8587 166.519 24.2967C166.332 24.6616 166.083 25.0265 165.834 25.3915C165.585 25.7564 165.273 26.0484 164.899 26.3403C164.65 26.5593 164.401 26.7053 164.027 26.8513C163.715 26.9972 163.342 27.1432 162.968 27.2892C162.594 27.4352 162.22 27.5081 161.846 27.5811C161.472 27.6541 161.098 27.6541 160.787 27.6541C160.226 27.6541 159.665 27.5811 159.167 27.4352C158.668 27.2892 158.17 27.0702 157.734 26.7783C157.298 26.4863 156.862 26.1944 156.55 25.7564C156.238 25.3185 155.927 24.9535 155.678 24.5156C155.615 24.3696 155.553 24.2237 155.491 24.0047C155.428 23.7857 155.366 23.6398 155.304 23.4208C155.242 23.2018 155.242 23.0558 155.179 22.9099C155.179 22.7639 155.117 22.6909 155.117 22.6179C155.117 22.253 155.179 21.961 155.242 21.7421C155.366 21.5231 155.428 21.3771 155.615 21.2311C155.74 21.0852 155.927 21.0122 156.052 21.0122C156.238 21.0122 156.363 20.9392 156.488 20.9392C156.862 20.9392 157.173 21.0122 157.422 21.2311C157.734 21.4501 157.858 21.7421 157.921 22.253C157.921 22.5449 157.983 22.8369 158.108 23.1288C158.232 23.4938 158.357 23.7857 158.606 24.0047C158.855 24.2237 159.167 24.4426 159.541 24.6616C159.915 24.8076 160.413 24.9536 160.912 24.9536C161.036 24.9536 161.161 24.9535 161.348 24.8806C161.535 24.8806 161.722 24.8076 161.846 24.7346C162.033 24.6616 162.22 24.5886 162.345 24.5156C162.532 24.4426 162.656 24.3696 162.781 24.2967C162.968 24.1507 163.155 24.0047 163.279 23.7857C163.404 23.5668 163.528 23.3478 163.653 23.1288C163.778 22.9099 163.84 22.6909 163.902 22.4719C163.965 22.253 164.027 22.034 164.089 21.888C164.152 21.6691 164.214 21.5231 164.338 21.3771C164.463 21.2311 164.588 21.1581 164.712 21.0122C164.837 20.9392 164.962 20.8662 165.148 20.7932C165.273 20.7202 165.398 20.7202 165.522 20.7202C165.958 20.7202 166.27 20.8662 166.519 21.0852C166.955 21.3771 167.08 21.7421 167.08 22.399Z" fill="white"/>
<path d="M70.3785 66.9221C70.8146 67.0681 71.2508 67.2871 71.6869 67.652C72.0608 68.0169 72.5592 68.6009 73.12 69.4767C74.1792 71.2284 75.0515 72.3963 75.6746 72.9072C76.2977 73.4181 76.9831 73.71 77.7308 73.71C78.4785 73.71 78.8523 74.002 78.8523 74.5129C78.8523 75.0238 78.6031 75.6077 78.0423 76.1187C77.5438 76.6296 76.6715 76.9215 75.55 76.9215C73.8054 76.9215 71.9985 75.2428 70.2538 71.8123C69.1946 69.8417 68.3223 68.8198 67.6369 68.8198C67.5746 68.8198 67.2631 68.8928 66.8892 69.0388C66.4531 69.1848 66.2038 69.3307 66.0792 69.4767C65.9546 69.6227 65.83 70.3526 65.7677 71.8123L65.5808 75.1698C65.5808 75.6807 65.3938 76.1917 65.02 76.5566C64.6461 76.9215 64.21 77.1405 63.6492 77.1405C63.0885 77.1405 62.6523 76.9215 62.3408 76.5566C62.0292 76.1917 61.8423 75.8267 61.8423 75.4618C61.8423 75.0238 61.9669 74.002 62.2161 72.4692C62.8392 68.6738 63.3377 64.0026 63.7115 58.4555C63.7738 57.7256 64.0231 57.1417 64.4592 56.5577C64.8954 55.9738 65.4562 55.6819 66.0792 55.6819C66.5154 55.6819 66.8269 55.9009 67.1385 56.3388C67.3877 56.7767 67.5746 57.2876 67.5746 57.7986C67.5746 58.2365 67.5123 58.6744 67.3877 59.1123C67.2631 59.6233 67.0138 60.7181 66.7023 62.3238C66.3908 63.9296 66.2661 65.1704 66.2038 66.0463C67.45 65.6083 68.3846 65.0244 69.07 64.2215C69.7554 63.4187 70.6277 62.1779 71.6246 60.4991C72.4969 59.1123 73.2446 58.0175 73.9923 57.3606C74.74 56.7037 75.55 56.3388 76.4223 56.3388C76.9208 56.3388 77.3569 56.5577 77.7931 57.0687C78.2292 57.5796 78.4162 58.0175 78.4162 58.6014C78.4162 59.0394 78.2915 59.4043 78.0423 59.6233C77.7931 59.8422 77.4192 60.0612 76.7962 60.2802C76.0485 60.4991 75.3008 61.229 74.4285 62.3238C72.7462 64.8054 71.3754 66.3382 70.3785 66.9221Z" fill="white"/>
<path d="M91.8123 70.9364C88.6346 73.9289 86.1423 75.3887 84.3977 75.3887C83.2761 75.3887 82.4038 74.8777 81.7185 73.8559C81.0954 72.8341 80.7215 71.5932 80.7215 70.0605C80.7215 68.1628 81.0331 65.8272 81.7185 62.9806C82.3415 60.1341 82.9023 58.5283 83.3385 58.0904C83.7746 57.6524 84.3354 57.4335 85.0831 57.4335C85.5192 57.4335 85.8931 57.6524 86.2046 58.1634C86.5162 58.6743 86.6408 59.1852 86.6408 59.8421C86.6408 59.9881 86.2669 61.0829 85.5192 62.9076C84.5846 65.1703 84.1485 67.141 84.1485 68.8197C84.1485 69.6226 84.2731 70.2795 84.46 70.7174C84.7092 71.2283 84.8961 71.4473 85.1454 71.4473C85.6438 71.4473 86.2046 71.3013 86.89 70.9364C87.5754 70.5714 88.3854 69.9875 89.32 69.1116C90.3169 68.2358 90.8777 67.5789 91.1892 67.068C91.4385 66.63 91.6877 66.0461 91.8746 65.3162C92.0615 64.5864 92.1861 62.9806 92.2485 60.645C92.3108 59.2582 92.3731 58.3823 92.4354 58.0174C92.4977 57.6524 92.6846 57.2875 92.9961 56.9956C93.3077 56.7036 93.6815 56.5576 94.18 56.5576C94.8654 56.5576 95.3638 56.7036 95.6131 57.0685C95.9246 57.4335 96.0492 58.2364 96.0492 59.4772C96.0492 61.1559 95.8 64.8053 95.2392 70.4254C94.6785 76.0455 93.7438 80.0599 92.3731 82.5415C91.0023 85.0231 89.1331 86.2639 86.7654 86.2639C84.6469 86.2639 82.84 85.607 81.2823 84.3662C79.7246 83.0524 78.9146 81.9576 78.9146 80.9358C78.9146 80.3519 79.0392 79.9139 79.2885 79.549C79.5377 79.1841 79.8492 79.0381 80.2231 79.0381C80.5346 79.0381 80.8461 79.1841 81.0954 79.549C82.5908 81.5197 84.3354 82.5415 86.4538 82.5415C89.32 82.6145 91.0023 78.7461 91.8123 70.9364Z" fill="white"/>
<path d="M112.623 73.5641C112.125 72.4692 111.751 70.4256 111.564 67.433C111.315 64.2945 110.816 62.7618 110.068 62.7618C109.321 62.7618 108.012 64.3675 106.205 67.579C104.398 70.7905 103.215 73.1991 102.841 74.7319C102.778 75.1698 102.592 75.6077 102.342 75.8997C102.093 76.1916 101.844 76.3376 101.595 76.3376C100.037 76.3376 99.2269 75.4618 99.2269 73.783C99.2269 73.1991 99.3515 71.8853 99.6631 69.9146C100.037 67.2871 100.286 64.0756 100.286 60.2802C100.286 59.6962 100.473 59.1123 100.909 58.4554C101.345 57.7985 101.782 57.5066 102.28 57.5066C102.903 57.5066 103.339 57.6526 103.651 58.0175C103.962 58.3825 104.149 59.3313 104.149 60.7911C104.149 61.9589 103.838 64.1485 103.277 67.506C105.52 61.375 108.012 58.2365 110.816 58.2365C113.246 58.2365 114.617 60.4261 115.053 64.8784C115.489 69.4037 115.925 71.6664 116.486 71.6664C116.735 71.6664 116.985 71.5934 117.296 71.5204C117.67 71.3744 117.982 71.3014 118.168 71.3014C118.667 71.3014 118.916 71.6664 118.916 72.3233C118.916 72.9072 118.605 73.5641 117.919 74.2939C117.234 75.0238 116.362 75.3158 115.365 75.3158C113.994 75.3888 113.122 74.8049 112.623 73.5641Z" fill="white"/>
<path d="M131.502 69.5496C130.505 71.6663 129.384 73.345 128.075 74.5858C126.767 75.8266 125.458 76.4835 124.088 76.4835C123.278 76.4835 122.468 75.9726 121.658 75.0238C120.848 74.0749 120.412 72.5422 120.412 70.4985C120.412 69.0387 120.723 66.8491 121.346 64.0025C121.907 61.5939 122.156 59.7692 122.156 58.5284C122.592 57.5065 123.215 56.9956 124.088 56.9956C124.711 56.9956 125.147 57.2146 125.521 57.7255C125.895 58.1634 126.082 58.6743 126.082 59.1123C126.082 59.9881 125.832 61.2289 125.334 62.7617C125.022 63.7105 124.711 65.0243 124.337 66.7761C123.963 68.5278 123.838 69.6226 123.838 70.0605C123.838 71.6663 124.15 72.4692 124.711 72.4692C125.583 72.4692 126.829 71.4473 128.387 69.4037C129.945 67.36 130.942 65.3163 131.378 63.1996C131.814 61.156 132.25 59.7692 132.624 59.1123C132.998 58.4554 133.496 58.1634 134.182 58.1634C135.241 58.1634 135.802 58.8933 135.802 60.2801C135.802 60.4991 135.739 60.864 135.552 61.5209C134.929 63.6376 134.618 66.1192 134.618 68.7468C134.618 71.8853 135.054 73.783 135.988 74.3669C136.3 74.5858 136.425 74.8048 136.425 75.0968C136.425 75.5347 136.175 75.9726 135.615 76.3376C135.116 76.7025 134.555 76.9215 134.119 76.9215C133.309 76.9215 132.686 76.2646 132.25 74.8778C131.814 73.491 131.502 71.8123 131.502 69.5496Z" fill="white"/>
<path d="M144.026 75.0967C143.902 76.3375 143.278 76.9944 142.219 76.9944C140.848 76.9944 140.163 75.8266 140.163 73.5639C140.163 69.8415 140.35 66.703 140.662 64.0754C140.911 62.0317 141.035 59.988 141.035 58.0174C141.035 57.5794 141.16 57.1415 141.409 56.8495C141.658 56.5576 142.032 56.3386 142.468 56.3386C144.026 56.3386 144.774 57.4335 144.774 59.6231C144.774 60.353 144.525 62.1777 143.964 65.0972C143.652 66.849 143.465 68.0898 143.465 68.8926C146.456 61.3018 149.073 57.5064 151.503 57.5064C152.438 57.5064 153.248 57.9444 153.808 58.8202C154.369 59.6961 154.681 61.7398 154.743 64.8053C154.743 67.6518 154.868 69.0386 155.117 69.0386C155.304 69.0386 155.927 67.6518 157.048 64.9513C158.295 61.9587 159.354 59.9151 160.226 58.9662C161.098 58.0174 162.033 57.5064 162.968 57.5064C164.089 57.5064 164.962 58.0903 165.46 59.2582C165.958 60.426 166.332 62.3967 166.519 65.0972C166.644 67.2869 166.893 68.8926 167.142 70.0605C167.392 71.1553 167.89 71.8852 168.513 72.2501C169.012 72.5421 169.261 72.98 169.261 73.5639C169.261 74.0748 168.949 74.5857 168.388 75.1697C167.828 75.6806 167.205 75.9725 166.582 75.9725C165.522 75.9725 164.712 75.3886 164.089 74.1478C163.466 72.907 163.092 70.4984 162.905 66.776C162.781 65.0243 162.656 63.8564 162.532 63.2725C162.407 62.6886 162.22 62.3967 161.971 62.3967C161.722 62.3967 161.41 62.8346 160.974 63.7105C160.538 64.5863 159.79 66.338 158.731 68.8926C157.796 71.2283 156.986 72.834 156.301 73.7829C155.615 74.7317 154.868 75.1697 154.12 75.1697C153.497 75.1697 152.936 74.8777 152.313 74.2938C151.69 73.7099 151.378 71.5202 151.316 67.7248C151.254 64.3674 151.067 62.6156 150.755 62.6156C150.319 62.6156 149.26 64.1484 147.64 67.1409C146.145 69.9875 144.898 72.688 144.026 75.0967Z" fill="white"/>
<path d="M175.865 63.9295C177.922 61.229 179.978 59.8422 182.034 59.8422C183.405 59.8422 184.526 60.3531 185.398 61.302C186.333 62.2508 186.769 63.4186 186.769 64.6594C186.769 67.652 185.461 70.3525 182.906 72.9071C180.289 75.4617 177.859 76.7025 175.554 76.7025C174.245 76.7025 173.311 76.1186 172.625 74.8778C171.94 73.637 171.628 71.8853 171.628 69.6226C171.628 65.7543 172.189 61.8859 173.373 58.0175C173.498 57.6525 173.56 57.2876 173.622 56.9226C173.747 56.4847 174.121 56.0468 174.744 55.7548C175.367 55.4629 175.865 55.3169 176.115 55.3169C176.426 55.3169 176.738 55.4629 176.987 55.7548C177.236 56.0468 177.361 56.4117 177.361 56.9956C177.361 57.2876 177.174 58.1634 176.8 59.6962C176.364 61.3749 176.052 62.7617 175.865 63.9295ZM175.492 67.9439C175.429 68.6008 175.367 69.1847 175.367 69.6226C175.367 71.0824 175.492 71.9583 175.803 72.2502C176.115 72.5422 176.364 72.6882 176.613 72.6882C177.485 72.6882 178.732 72.0313 180.352 70.6445C181.972 69.2577 182.782 67.7249 182.782 66.0462C182.782 65.3163 182.595 64.7324 182.283 64.2945C181.972 63.8566 181.598 63.6376 181.099 63.6376C179.479 63.6376 177.984 64.6594 176.426 66.7761C176.052 67.579 175.678 67.9439 175.492 67.9439Z" fill="white"/>
</g>
<defs>
<clipPath id="clip0">
<path d="M0 4C0 1.79086 1.79086 0 4 0H243V127H0V4Z" fill="white"/>
</clipPath>
</defs>
</svg>
