<svg width="243" height="108" viewBox="0 0 243 108" fill="none" xmlns="http://www.w3.org/2000/svg">
<g clip-path="url(#clip0)">
<path d="M243 66.4138L124.615 105.517L0 66.4138V0H243V66.4138Z" fill="#FF0000"/>
<path d="M50.0331 36.2482C50.0331 38.793 40.0639 40.9034 36.0139 40.9034C31.9639 40.9034 28.6615 38.793 28.6615 36.2482C28.6615 33.7034 31.9639 31.593 36.0139 31.593C40.0639 31.593 50.0331 33.6413 50.0331 36.2482Z" fill="#FEFEFE"/>
<path d="M51.84 25.8207C50.7808 27.4345 43.6154 24.7656 40.9985 23.1518C38.3815 21.538 37.1354 18.869 38.1946 17.2552C39.2539 15.6414 42.1823 15.5794 44.7369 17.2552C47.3539 18.869 52.8992 24.2069 51.84 25.8207Z" fill="#FEFEFE"/>
<path d="M60.8123 19.6759C59.6285 20.7931 54.27 17.2552 52.5254 15.3931C50.7185 13.531 50.22 11.1724 51.4038 9.99309C52.5877 8.87585 54.9554 9.43447 56.7623 11.2345C58.5069 13.0965 61.9962 18.4965 60.8123 19.6759Z" fill="#FEFEFE"/>
<path d="M194.898 36.869C194.898 39.4139 204.868 41.5242 208.918 41.5242C212.968 41.5242 216.27 39.4139 216.27 36.869C216.27 34.3242 212.968 32.2139 208.918 32.2139C204.805 32.2139 194.898 34.2621 194.898 36.869Z" fill="#FEFEFE"/>
<path d="M193.092 26.4413C194.151 28.0551 201.316 25.3862 203.933 23.7724C206.55 22.1586 207.796 19.4896 206.737 17.8758C205.678 16.262 202.749 16.2 200.195 17.8758C197.64 19.5517 192.032 24.8275 193.092 26.4413Z" fill="#FEFEFE"/>
<path d="M184.057 20.2965C185.241 21.4137 190.599 17.8758 192.344 16.0137C194.151 14.1516 194.649 11.793 193.465 10.6137C192.282 9.49646 189.914 10.0551 188.107 11.8551C186.362 13.7171 182.873 19.1171 184.057 20.2965Z" fill="#FEFEFE"/>
<path d="M88.0408 34.324C88.2277 33.9516 89.0377 32.6482 90.4085 30.4137L90.72 29.9171C92.1531 27.4964 93.3992 25.6964 94.3339 24.5171C95.2685 23.3378 96.0162 22.6551 96.4523 22.4068C96.8885 22.1585 97.3869 22.0344 97.9477 22.0344C98.4462 22.0344 98.8823 22.1585 99.1316 22.3447C99.3808 22.5309 99.5677 22.9654 99.5677 23.5861C99.5677 24.1447 99.0693 24.8895 98.01 25.9447C96.39 27.5585 94.0223 30.9102 90.8446 36.0619C88.9754 39.1033 87.6046 41.1516 86.7946 42.1447C85.9846 43.1378 84.9877 43.8826 83.8662 44.3792C82.7446 44.8757 81.6854 45.124 80.6885 45.124C79.5046 45.124 78.57 44.8757 77.76 44.3792C76.95 43.8826 76.5762 43.1999 76.5762 42.4551C76.5762 41.7102 76.8254 41.3999 77.3862 41.3999C77.6354 41.3999 78.0716 41.524 78.6323 41.7723C79.1931 42.0206 79.6916 42.2068 80.1277 42.2068C81.5608 42.2068 82.8069 41.5861 83.8662 40.2826C84.9254 38.9792 85.4862 38.1102 85.4862 37.6137C85.4862 37.0551 84.3646 34.8826 82.0592 31.2206C80.4392 28.5516 79.38 26.5654 78.8816 25.1999C78.3831 23.8344 78.1339 23.0275 78.1339 22.6551C78.1339 22.2826 78.3831 21.9723 78.9439 21.5999C79.5046 21.2275 79.8785 21.0413 80.19 21.0413C80.5639 21.0413 80.8754 21.1654 81.2492 21.4137C81.6231 21.6619 81.8723 21.9723 81.9346 22.4688C82.4331 24.4551 83.2431 26.3792 84.3646 28.1792L88.0408 34.324Z" fill="white"/>
<path d="M102.745 44.4413C101.125 44.4413 99.8792 44.0068 99.0069 43.1379C98.1346 42.2689 97.7608 41.0275 97.7608 39.4758C97.7608 36.993 98.7577 34.3241 100.814 31.4068C102.87 28.5517 104.802 27.062 106.795 27.062C107.73 27.062 108.54 27.4965 109.225 28.4275C109.911 29.3586 110.222 30.3517 110.222 31.3448C110.222 32.2758 110.035 32.8965 109.724 33.2689C109.35 33.5793 109.038 33.7655 108.727 33.7655C107.792 33.7655 107.232 33.0827 107.045 31.7793C106.92 30.7862 106.671 30.3517 106.297 30.3517C105.549 30.3517 104.49 31.4689 103.244 33.6413C101.998 35.8137 101.375 37.7379 101.375 39.4137C101.375 40.7172 102.122 41.3999 103.555 41.3999C105.175 41.3999 106.733 40.8413 108.353 39.7241C109.101 39.1655 109.724 38.9172 110.16 38.9172C110.721 38.9172 110.97 39.1655 110.97 39.7241C110.97 40.4689 110.098 41.462 108.353 42.7034C106.484 43.8206 104.677 44.4413 102.745 44.4413Z" fill="white"/>
<path d="M126.173 41.462C125.675 40.593 125.363 38.9171 125.114 36.4965C124.927 33.9516 124.428 32.7102 123.681 32.7102C122.995 32.7102 121.749 34.0137 120.005 36.6206C118.26 39.2275 117.201 41.1516 116.765 42.4551C116.702 42.8275 116.515 43.1378 116.266 43.3861C116.017 43.6344 115.768 43.7585 115.518 43.7585C114.023 43.7585 113.275 43.0758 113.275 41.7102C113.275 41.2758 113.4 40.2206 113.712 38.5447C114.085 36.4344 114.272 33.8275 114.272 30.724C114.272 30.2896 114.459 29.793 114.895 29.2344C115.269 28.7378 115.705 28.4275 116.204 28.4275C116.765 28.4275 117.201 28.5516 117.512 28.862C117.824 29.1723 117.948 29.9171 117.948 31.1585C117.948 32.0896 117.637 33.8896 117.076 36.6206C119.195 31.593 121.625 29.1103 124.242 29.1103C126.547 29.1103 127.855 30.9102 128.292 34.5102C128.665 38.1723 129.164 39.9723 129.662 39.9723C129.912 39.9723 130.161 39.9102 130.472 39.8482C130.846 39.724 131.095 39.662 131.345 39.662C131.843 39.662 132.03 39.9102 132.03 40.4689C132.03 40.9654 131.718 41.524 131.033 42.0827C130.41 42.6413 129.538 42.9516 128.603 42.9516C127.482 42.9516 126.609 42.4551 126.173 41.462Z" fill="white"/>
<path d="M147.046 38.5448C147.046 39.5379 146.174 40.7793 144.429 42.2069C142.685 43.6345 140.753 44.3172 138.572 44.3172C136.89 44.3172 135.582 43.8207 134.647 42.7655C133.712 41.7103 133.214 40.2828 133.214 38.3586C133.214 35.6276 134.211 33.0207 136.142 30.6C138.074 28.1793 140.192 27 142.435 27C143.557 27 144.429 27.3724 145.115 28.0552C145.8 28.7379 146.112 29.6069 146.112 30.5379C146.112 32.2759 145.302 33.8897 143.619 35.4414C141.999 36.9931 139.881 38.0483 137.264 38.669C136.952 38.731 136.828 38.9172 136.828 39.2276C136.828 39.7241 137.015 40.1586 137.451 40.5931C137.887 41.0276 138.448 41.2138 139.133 41.2138C141.127 41.2138 143.121 40.2207 145.052 38.1724C145.426 37.8 145.8 37.5517 146.174 37.5517C146.735 37.5517 147.046 37.8621 147.046 38.5448ZM137.077 35.9379C138.635 35.6276 140.005 34.9448 141.189 33.9517C142.373 32.9586 142.996 32.0276 142.996 31.2207C142.996 30.9103 142.934 30.6 142.747 30.4138C142.56 30.1655 142.311 30.1034 142.062 30.1034C141.189 30.1034 140.255 30.7241 139.195 31.9655C138.136 33.1448 137.451 34.5103 137.077 35.9379Z" fill="white"/>
<path d="M159.944 38.2344C159.009 39.9723 157.888 41.3378 156.642 42.3309C155.395 43.324 154.149 43.8826 152.841 43.8826C152.093 43.8826 151.283 43.5102 150.535 42.7033C149.788 41.8964 149.352 40.6551 149.352 39.0413C149.352 37.862 149.663 36.124 150.224 33.7654C150.722 31.8413 150.972 30.3516 150.972 29.2964C151.345 28.4895 151.968 28.0551 152.841 28.0551C153.402 28.0551 153.9 28.2413 154.212 28.6137C154.523 28.9861 154.71 29.3585 154.71 29.7309C154.71 30.4137 154.461 31.4068 153.962 32.7102C153.651 33.4551 153.339 34.5723 153.028 35.9378C152.716 37.3654 152.529 38.2344 152.529 38.6068C152.529 39.9102 152.778 40.593 153.339 40.593C154.212 40.593 155.333 39.7861 156.828 38.1102C158.262 36.4964 159.258 34.7585 159.695 33.0827C160.131 31.4068 160.505 30.2895 160.878 29.793C161.252 29.2964 161.688 28.9861 162.374 28.9861C163.371 28.9861 163.932 29.5447 163.932 30.724C163.932 30.9102 163.869 31.2206 163.682 31.7171C163.122 33.4551 162.81 35.4413 162.81 37.6137C162.81 40.1585 163.246 41.7102 164.118 42.2068C164.43 42.393 164.555 42.5792 164.555 42.8275C164.555 43.1999 164.305 43.5102 163.807 43.8206C163.308 44.1309 162.81 44.3171 162.374 44.3171C161.564 44.3171 161.003 43.7585 160.567 42.6413C160.131 41.524 159.944 40.0344 159.944 38.2344ZM164.742 21.662C164.742 21.8482 164.679 22.0964 164.617 22.3447C164.492 22.6551 164.368 22.9033 164.181 23.2758C163.994 23.5861 163.745 23.8964 163.495 24.2068C163.246 24.5171 162.935 24.7654 162.561 25.0137C162.312 25.1999 162.062 25.324 161.688 25.4482C161.377 25.5723 161.003 25.6964 160.629 25.8206C160.255 25.9447 159.882 26.0068 159.508 26.0689C159.134 26.1309 158.76 26.1309 158.448 26.1309C157.888 26.1309 157.327 26.0689 156.828 25.9447C156.33 25.8206 155.832 25.6344 155.395 25.3861C154.959 25.1378 154.523 24.8895 154.212 24.5171C153.9 24.1447 153.588 23.8344 153.339 23.462C153.277 23.3378 153.215 23.2137 153.152 23.0275C153.09 22.8413 153.028 22.7171 152.965 22.5309C152.903 22.3447 152.903 22.2206 152.841 22.0964C152.841 21.9723 152.778 21.9102 152.778 21.8482C152.778 21.5378 152.841 21.2895 152.903 21.1033C153.028 20.9171 153.09 20.793 153.277 20.6689C153.402 20.5447 153.588 20.4827 153.713 20.4827C153.9 20.4827 154.025 20.4206 154.149 20.4206C154.523 20.4206 154.835 20.4827 155.084 20.6689C155.395 20.8551 155.52 21.1033 155.582 21.5378C155.582 21.7861 155.645 22.0344 155.769 22.2827C155.894 22.593 156.018 22.8413 156.268 23.0275C156.517 23.2137 156.828 23.3999 157.202 23.5861C157.576 23.7102 158.075 23.8344 158.573 23.8344C158.698 23.8344 158.822 23.8344 159.009 23.7723C159.196 23.7723 159.383 23.7102 159.508 23.6482C159.695 23.5861 159.882 23.524 160.006 23.462C160.193 23.3999 160.318 23.3378 160.442 23.2758C160.629 23.1516 160.816 23.0275 160.941 22.8413C161.065 22.6551 161.19 22.4689 161.315 22.2827C161.439 22.0964 161.502 21.9102 161.564 21.724C161.626 21.5378 161.688 21.3516 161.751 21.2275C161.813 21.0413 161.875 20.9171 162 20.793C162.125 20.6689 162.249 20.6068 162.374 20.4827C162.498 20.4206 162.623 20.3585 162.81 20.2964C162.935 20.2344 163.059 20.2344 163.184 20.2344C163.62 20.2344 163.932 20.3585 164.181 20.5447C164.617 20.793 164.742 21.1033 164.742 21.662Z" fill="white"/>
<path d="M68.04 59.5242C68.4762 59.6483 68.9123 59.8345 69.3485 60.1449C69.7223 60.4552 70.2208 60.9518 70.7815 61.6966C71.8408 63.1863 72.7131 64.1794 73.3362 64.6139C73.9592 65.0483 74.6446 65.2966 75.3923 65.2966C76.14 65.2966 76.5139 65.5449 76.5139 65.9794C76.5139 66.4139 76.2646 66.9104 75.7039 67.3449C75.2054 67.7794 74.3331 68.0276 73.2115 68.0276C71.4669 68.0276 69.66 66.6001 67.9154 63.6828C66.8562 62.007 65.9839 61.138 65.2985 61.138C65.2362 61.138 64.9246 61.2001 64.5508 61.3242C64.1146 61.4483 63.8654 61.5725 63.7408 61.6966C63.6162 61.8207 63.4915 62.4414 63.4292 63.6828L63.2423 66.538C63.2423 66.9725 63.0554 67.407 62.6815 67.7173C62.3077 68.0276 61.8715 68.2139 61.3108 68.2139C60.75 68.2139 60.3138 68.0276 60.0023 67.7173C59.6908 67.407 59.5038 67.0966 59.5038 66.7863C59.5038 66.4139 59.6285 65.5449 59.8777 64.2414C60.5008 61.0139 60.9992 57.0414 61.3731 52.3242C61.4354 51.7035 61.6846 51.207 62.1208 50.7104C62.5569 50.2139 63.1177 49.9656 63.7408 49.9656C64.1769 49.9656 64.4885 50.1518 64.8 50.5242C65.0492 50.8966 65.2362 51.3311 65.2362 51.7656C65.2362 52.138 65.1739 52.5104 65.0492 52.8828C64.9246 53.3173 64.6754 54.2483 64.3639 55.6139C64.0523 56.9794 63.9277 58.0345 63.8654 58.7794C65.1115 58.407 66.0462 57.9104 66.7315 57.2276C67.4169 56.5449 68.2892 55.4897 69.2862 54.0621C70.1585 52.8828 70.9062 51.9518 71.6539 51.3932C72.4015 50.8345 73.2115 50.5242 74.0839 50.5242C74.5823 50.5242 75.0185 50.7104 75.4546 51.1449C75.8908 51.5794 76.0777 51.9518 76.0777 52.4483C76.0777 52.8207 75.9531 53.1311 75.7039 53.3173C75.4546 53.5035 75.0808 53.6897 74.4577 53.8759C73.71 54.0621 72.9623 54.6828 72.09 55.6139C70.4077 57.7242 69.0369 59.0276 68.04 59.5242Z" fill="white"/>
<path d="M89.4739 62.938C86.2962 65.4829 83.8039 66.7242 82.0592 66.7242C80.9377 66.7242 80.0654 66.2898 79.38 65.4208C78.7569 64.5518 78.3831 63.4967 78.3831 62.1932C78.3831 60.5794 78.6946 58.5932 79.38 56.1725C80.0031 53.7518 80.5639 52.3863 81 52.0139C81.4362 51.6415 81.9969 51.4553 82.7446 51.4553C83.1808 51.4553 83.5546 51.6415 83.8662 52.076C84.1777 52.5105 84.3023 52.9449 84.3023 53.5036C84.3023 53.6277 83.9285 54.5587 83.1808 56.1105C82.2462 58.0346 81.81 59.7105 81.81 61.138C81.81 61.8208 81.9346 62.3794 82.1216 62.7518C82.3708 63.1863 82.5577 63.3725 82.8069 63.3725C83.3054 63.3725 83.8662 63.2484 84.5516 62.938C85.2369 62.6277 86.0469 62.1311 86.9816 61.3863C87.9785 60.6415 88.5392 60.0829 88.8508 59.6484C89.1 59.276 89.3492 58.7794 89.5362 58.1587C89.7231 57.538 89.8477 56.1725 89.91 54.1863C89.9723 53.007 90.0346 52.2622 90.0969 51.9518C90.1592 51.6415 90.3462 51.3311 90.6577 51.0829C90.9692 50.8346 91.3431 50.7104 91.8415 50.7104C92.5269 50.7104 93.0254 50.8346 93.2746 51.1449C93.5862 51.4553 93.7108 52.138 93.7108 53.1932C93.7108 54.6208 93.4616 57.7242 92.9008 62.5036C92.34 67.2829 91.4054 70.6967 90.0346 72.807C88.6639 74.9174 86.7946 75.9725 84.4269 75.9725C82.3085 75.9725 80.5016 75.4139 78.9439 74.3587C77.3862 73.2415 76.5762 72.3105 76.5762 71.4415C76.5762 70.9449 76.7008 70.5725 76.95 70.2622C77.1992 69.9518 77.5108 69.8277 77.8846 69.8277C78.1962 69.8277 78.5077 69.9518 78.7569 70.2622C80.2523 71.938 81.9969 72.807 84.1154 72.807C86.9816 72.8691 88.6639 69.5794 89.4739 62.938Z" fill="white"/>
<path d="M110.285 65.1725C109.786 64.2415 109.412 62.5035 109.225 59.9587C108.976 57.2897 108.478 55.9863 107.73 55.9863C106.982 55.9863 105.674 57.3518 103.867 60.0829C102.06 62.8139 100.876 64.8622 100.502 66.1656C100.44 66.538 100.253 66.9104 100.004 67.1587C99.7546 67.407 99.5054 67.5311 99.2562 67.5311C97.6985 67.5311 96.8885 66.7863 96.8885 65.3587C96.8885 64.8622 97.0131 63.7449 97.3246 62.0691C97.6985 59.8346 97.9477 57.1035 97.9477 53.876C97.9477 53.3794 98.1346 52.8829 98.5708 52.3242C99.0069 51.7656 99.4431 51.5173 99.9415 51.5173C100.565 51.5173 101.001 51.6415 101.312 51.9518C101.624 52.2622 101.811 53.0691 101.811 54.3104C101.811 55.3035 101.499 57.1656 100.938 60.0208C103.182 54.807 105.674 52.138 108.478 52.138C110.908 52.138 112.278 54.0001 112.715 57.7863C113.151 61.6346 113.587 63.5587 114.148 63.5587C114.397 63.5587 114.646 63.4966 114.958 63.4346C115.332 63.3104 115.643 63.2484 115.83 63.2484C116.328 63.2484 116.578 63.5587 116.578 64.1173C116.578 64.6139 116.266 65.1725 115.581 65.7932C114.895 66.4139 114.023 66.6622 113.026 66.6622C111.655 66.7242 110.783 66.2277 110.285 65.1725Z" fill="white"/>
<path d="M129.164 61.7586C128.167 63.5586 127.045 64.9862 125.737 66.0414C124.428 67.0966 123.12 67.6552 121.749 67.6552C120.939 67.6552 120.129 67.2207 119.319 66.4138C118.509 65.6069 118.073 64.3035 118.073 62.5655C118.073 61.3241 118.385 59.4621 119.008 57.0414C119.568 54.9931 119.818 53.4414 119.818 52.3862C120.254 51.5172 120.877 51.0828 121.749 51.0828C122.372 51.0828 122.808 51.269 123.182 51.7035C123.556 52.0759 123.743 52.5103 123.743 52.8828C123.743 53.6276 123.494 54.6828 122.995 55.9862C122.684 56.7931 122.372 57.9103 121.998 59.4C121.625 60.8897 121.5 61.8207 121.5 62.1931C121.5 63.5586 121.812 64.2414 122.372 64.2414C123.245 64.2414 124.491 63.3724 126.048 61.6345C127.606 59.8966 128.603 58.1586 129.039 56.3586C129.475 54.6207 129.912 53.4414 130.285 52.8828C130.659 52.3241 131.158 52.0759 131.843 52.0759C132.902 52.0759 133.463 52.6966 133.463 53.8759C133.463 54.0621 133.401 54.3724 133.214 54.931C132.591 56.731 132.279 58.8414 132.279 61.0759C132.279 63.7448 132.715 65.3586 133.65 65.8552C133.962 66.0414 134.086 66.2276 134.086 66.4759C134.086 66.8483 133.837 67.2207 133.276 67.531C132.778 67.8414 132.217 68.0276 131.781 68.0276C130.971 68.0276 130.348 67.469 129.912 66.2897C129.475 65.1104 129.164 63.6828 129.164 61.7586Z" fill="white"/>
<path d="M141.688 66.4759C141.563 67.5311 140.94 68.0897 139.881 68.0897C138.51 68.0897 137.825 67.0966 137.825 65.1725C137.825 62.0069 138.012 59.338 138.323 57.1035C138.572 55.3656 138.697 53.6276 138.697 51.9518C138.697 51.5793 138.822 51.2069 139.071 50.9587C139.32 50.7104 139.694 50.5242 140.13 50.5242C141.688 50.5242 142.435 51.4552 142.435 53.3173C142.435 53.938 142.186 55.4897 141.625 57.9724C141.314 59.4621 141.127 60.5173 141.127 61.2C144.118 54.7449 146.735 51.5173 149.165 51.5173C150.099 51.5173 150.909 51.8897 151.47 52.6345C152.031 53.3793 152.342 55.1173 152.405 57.7242C152.405 60.1449 152.529 61.3242 152.778 61.3242C152.965 61.3242 153.588 60.1449 154.71 57.8483C155.956 55.3035 157.015 53.5655 157.888 52.7587C158.76 51.9518 159.695 51.5173 160.629 51.5173C161.751 51.5173 162.623 52.0138 163.122 53.0069C163.62 54 163.994 55.6759 164.181 57.9724C164.305 59.8345 164.555 61.2 164.804 62.1931C165.053 63.1242 165.552 63.7449 166.175 64.0552C166.673 64.3035 166.922 64.6759 166.922 65.1725C166.922 65.6069 166.611 66.0414 166.05 66.538C165.489 66.9724 164.866 67.2207 164.243 67.2207C163.184 67.2207 162.374 66.7242 161.751 65.669C161.128 64.6138 160.754 62.5656 160.567 59.4C160.442 57.9104 160.318 56.9173 160.193 56.4207C160.068 55.9242 159.882 55.6759 159.632 55.6759C159.383 55.6759 159.072 56.0483 158.635 56.7931C158.199 57.538 157.452 59.0276 156.392 61.2C155.458 63.1862 154.648 64.5518 153.962 65.3587C153.277 66.1656 152.529 66.538 151.782 66.538C151.158 66.538 150.598 66.2897 149.975 65.7931C149.352 65.2966 149.04 63.4345 148.978 60.2069C148.915 57.3518 148.728 55.8621 148.417 55.8621C147.981 55.8621 146.922 57.1655 145.302 59.7104C143.806 62.1311 142.56 64.4276 141.688 66.4759Z" fill="white"/>
<path d="M173.527 56.9794C175.583 54.6829 177.639 53.5035 179.695 53.5035C181.066 53.5035 182.188 53.938 183.06 54.7449C183.995 55.5518 184.431 56.5449 184.431 57.6001C184.431 60.1449 183.122 62.4415 180.568 64.6139C177.951 66.7863 175.521 67.8415 173.215 67.8415C171.907 67.8415 170.972 67.3449 170.287 66.2898C169.602 65.2346 169.29 63.7449 169.29 61.8208C169.29 58.5311 169.851 55.2415 171.035 51.9518C171.159 51.6415 171.222 51.3311 171.284 51.0208C171.408 50.6484 171.782 50.276 172.405 50.0277C173.028 49.7794 173.527 49.6553 173.776 49.6553C174.088 49.6553 174.399 49.7794 174.648 50.0277C174.898 50.276 175.022 50.5863 175.022 51.0829C175.022 51.3311 174.835 52.076 174.462 53.3794C174.025 54.807 173.714 55.9863 173.527 56.9794ZM173.153 60.3932C173.091 60.9518 173.028 61.4484 173.028 61.8208C173.028 63.0622 173.153 63.807 173.465 64.0553C173.776 64.3035 174.025 64.4277 174.275 64.4277C175.147 64.4277 176.393 63.8691 178.013 62.6898C179.633 61.5104 180.443 60.207 180.443 58.7794C180.443 58.1587 180.256 57.6622 179.945 57.2898C179.633 56.9173 179.259 56.7311 178.761 56.7311C177.141 56.7311 175.645 57.6001 174.088 59.4001C173.714 60.0829 173.34 60.3932 173.153 60.3932Z" fill="white"/>
</g>
<defs>
<clipPath id="clip0">
<path d="M0 4C0 1.79086 1.79086 0 4 0H243V108H0V4Z" fill="white"/>
</clipPath>
</defs>
</svg>
