<svg width="199" height="175" viewBox="0 0 199 175" fill="none" xmlns="http://www.w3.org/2000/svg">
	<path d="M177.895 85.2317L3.7041 55.6103V29.1738L186 29.1733L177.895 85.2317Z" fill="url(#paint0_linear)"/>
	<g filter="url(#filter0_d)">
		<path d="M118.727 148.056H36L21 59.5005L164.762 79.3823L118.727 148.056Z" fill="white"/>
	</g>
	<g filter="url(#filter1_d)">
		<path d="M129.5 92C155.181 92 176 71.4051 176 46C176 20.5949 155.181 0 129.5 0C103.819 0 83 20.5949 83 46C83 71.4051 103.819 92 129.5 92Z" fill="white"/>
	</g>
	<path opacity="0.41" d="M130.5 86C152.868 86 171 68.0914 171 46C171 23.9086 152.868 6 130.5 6C108.132 6 90 23.9086 90 46C90 68.0914 108.132 86 130.5 86Z" fill="#A5A5A5"/>
	<path d="M130.5 85C152.315 85 170 67.5391 170 46C170 24.4609 152.315 7 130.5 7C108.685 7 91 24.4609 91 46C91 67.5391 108.685 85 130.5 85Z" fill="#FF9800"/>
	<g filter="url(#filter2_d)">
		<path d="M138.916 167H6L12.8401 126H147L138.916 167Z" fill="#FF9800"/>
	</g>
	<g filter="url(#filter3_d)">
		<path d="M108.909 55.0743L4.36816 73.8035V24.1246L103.868 6.3252L108.909 55.0743Z" fill="url(#paint1_linear)"/>
	</g>
	<path d="M4.36816 73.8032L22.9415 70.6152L24.9315 83.1013L4.36816 73.8032Z" fill="url(#paint2_linear)"/>
	<g filter="url(#filter4_d)">
		<path d="M178.028 142.344L47.2188 125.209L62.0774 67.4272L194.081 85.8908L178.028 142.344Z" fill="url(#paint3_linear)"/>
	</g>
	<path d="M149.771 153.104L153.618 139.156L178.028 142.344L149.771 153.104Z" fill="url(#paint4_linear)"/>
	<path d="M125.009 54.8516C125.869 52.6917 126.766 51.0682 127.699 49.9811C128.633 48.894 130.093 47.8501 132.081 46.8495L137.069 44.5125C139.26 43.3594 140.733 41.7874 141.487 39.7963C142.213 37.8783 142.278 36.1899 141.681 34.7309C141.092 33.2537 139.839 32.1512 137.921 31.4234C136.059 30.7164 134.375 30.6412 132.869 31.1979C131.363 31.7545 130.296 32.864 129.666 34.5262L124.599 32.6028C125.756 29.6575 127.709 27.6722 130.457 26.6471C133.23 25.6106 136.279 25.7231 139.602 26.9846C143.053 28.2947 145.385 30.2452 146.597 32.8361C147.834 35.4158 147.84 38.3222 146.616 41.5553C145.406 44.752 142.734 47.3415 138.6 49.324L134.494 51.1499C132.6 52.1235 131.128 53.9985 130.077 56.775L125.009 54.8516ZM121.502 63.4541C121.813 62.6321 122.319 62.0407 123.019 61.6799C123.745 61.3077 124.601 61.3087 125.587 61.683C126.573 62.0573 127.214 62.6246 127.511 63.385C127.815 64.127 127.811 64.9091 127.5 65.7311C127.189 66.5531 126.674 67.141 125.955 67.4949C125.243 67.8306 124.394 67.8113 123.408 67.437C122.422 67.0627 121.774 66.5136 121.463 65.7898C121.177 65.0547 121.19 64.2761 121.502 63.4541Z" fill="black"/>
	<path d="M24.4092 46.2367L26.4672 35.7832L29.0367 35.3065L25.6894 50.3854C25.4549 51.3507 25.1996 52.0536 24.9236 52.4942C24.6462 52.9271 24.2917 53.2868 23.8601 53.5735C23.4347 53.8511 22.8725 54.0547 22.1735 54.1844C21.5666 54.297 21.1723 54.3344 20.9905 54.2966L20.7355 52.5322L21.7926 52.3838C22.5991 52.2341 23.1265 51.735 23.3747 50.8864L23.5519 50.2337L23.7999 49.1269L15.7858 37.7649L18.2631 37.3052L24.4092 46.2367ZM39.1536 41.4154C39.0455 40.8315 38.7375 40.4119 38.2294 40.1566C37.7199 39.8935 37.0772 39.834 36.3013 39.9779C35.5485 40.1176 34.9549 40.4303 34.5204 40.9162C34.0936 41.4006 33.9292 41.9079 34.0273 42.438L31.9072 42.8313C31.7067 41.7481 31.9957 40.7767 32.7742 39.9171C33.5527 39.0575 34.6218 38.5016 35.9814 38.2494C37.4409 37.9786 38.6361 38.0827 39.567 38.5615C40.4964 39.0327 41.0685 39.8484 41.2831 41.0084C41.3869 41.5692 41.3132 42.1153 41.0619 42.6466C40.8106 43.1779 40.3995 43.6396 39.8284 44.0316C41.3713 44.2539 42.2763 45.0872 42.5436 46.5315C42.7555 47.6762 42.4815 48.6646 41.7218 49.4969C40.9621 50.3292 39.8448 50.8821 38.3699 51.1557C36.9335 51.4222 35.6819 51.2929 34.6154 50.7676C33.5551 50.2333 32.9141 49.3669 32.6923 48.1685L34.8124 47.7751C34.9247 48.382 35.2903 48.8546 35.909 49.1927C36.5341 49.5217 37.2499 49.6114 38.0564 49.4618C38.8707 49.3107 39.4927 49.0006 39.9223 48.5316C40.3519 48.0625 40.5113 47.5283 40.4004 46.9291C40.2711 46.23 39.9674 45.7699 39.4895 45.5486C39.0178 45.3183 38.3402 45.2851 37.4568 45.449L35.3252 45.8444L34.9925 44.0468L37.3085 43.6171C38.7532 43.3093 39.3683 42.5754 39.1536 41.4154ZM56.1433 47.6319L54.0116 48.0273L53.0264 42.7035L47.2997 43.7659L48.2849 49.0898L46.1417 49.4874L43.8342 37.019L45.9774 36.6213L46.9776 42.0259L52.7044 40.9634L51.7042 35.5589L53.8358 35.1634L56.1433 47.6319ZM67.2741 45.5668C67.1057 45.3438 66.9248 44.9244 66.7314 44.3087C65.931 45.522 64.8433 46.2562 63.4682 46.5113C62.2392 46.7393 61.165 46.581 60.2459 46.0364C59.3329 45.4827 58.7777 44.6719 58.5801 43.604C58.3398 42.3057 58.6452 41.2081 59.4962 40.3112C60.3535 39.4053 61.6771 38.7862 63.4669 38.4542L65.541 38.0694L65.3597 37.0899C65.2218 36.3447 64.8896 35.7945 64.363 35.4393C63.835 35.0763 63.137 34.9754 62.2689 35.1364C61.5084 35.2775 60.9064 35.5879 60.4628 36.0675C60.0192 36.5471 59.8479 37.0596 59.9488 37.6051L57.8056 38.0027C57.6905 37.3804 57.7985 36.7406 58.1297 36.0831C58.4672 35.4166 58.9811 34.8445 59.6714 34.3668C60.3693 33.8877 61.1715 33.5641 62.0779 33.3959C63.5144 33.1294 64.7066 33.2817 65.6545 33.8528C66.601 34.4162 67.2062 35.325 67.4701 36.5792L68.5321 42.3179C68.7439 43.4626 69.0584 44.3458 69.4754 44.9677L69.5095 45.1521L67.2741 45.5668ZM63.436 44.5983C64.1043 44.4743 64.706 44.1839 65.2412 43.727C65.7764 43.2701 66.1273 42.7402 66.2938 42.1372L65.8203 39.579L64.1496 39.8889C61.5378 40.3735 60.3734 41.3802 60.6563 42.9089C60.78 43.5773 61.0994 44.0584 61.6146 44.3522C62.1298 44.6459 62.737 44.728 63.436 44.5983ZM79.5054 32.189L75.3227 32.965L77.3103 43.7049L75.1786 44.1004L73.191 33.3604L69.089 34.1215L68.7691 32.3929L79.1855 30.4604L79.5054 32.189ZM84.3826 33.9421L87.6204 33.3414C89.0367 33.0945 90.2226 33.2559 91.1782 33.8256C92.1338 34.3952 92.726 35.2985 92.9549 36.5353C93.1853 37.7799 92.9476 38.857 92.2419 39.7666C91.5363 40.6762 90.469 41.2636 89.0403 41.5287L83.7629 42.5078L81.4554 30.0393L83.5871 29.6438L84.3826 33.9421ZM84.7046 35.6821L85.5726 40.3722L88.7413 39.7844C89.5402 39.6361 90.1209 39.3178 90.4834 38.8294C90.8445 38.3334 90.9589 37.7281 90.8267 37.0136C90.6987 36.3222 90.3791 35.7975 89.8679 35.4394C89.363 35.0722 88.725 34.9522 87.954 35.0793L84.7046 35.6821Z" fill="white"/>
	<path d="M78.8547 82.8699L82.5872 83.3972L79.0471 108.52L92.9327 110.482L96.4727 85.3587L100.186 85.8833L96.6568 110.929L99.6157 111.347L97.8723 121.2L94.5266 120.727L95.4831 113.939L74.8868 111.029L78.8547 82.8699ZM111.809 116.64C108.973 116.239 106.796 114.985 105.278 112.877C103.762 110.756 103.224 108.135 103.664 105.015L103.756 104.357C104.049 102.281 104.703 100.487 105.718 98.9733C106.748 97.4488 108.037 96.329 109.584 95.6139C111.146 94.8877 112.759 94.6421 114.422 94.877C117.142 95.2613 119.13 96.4561 120.386 98.4614C121.642 100.467 122.035 103.139 121.564 106.478L121.354 107.968L107.179 105.965C106.94 108.035 107.304 109.79 108.272 111.228C109.254 112.656 110.635 113.495 112.414 113.747C113.677 113.925 114.784 113.818 115.733 113.426C116.683 113.035 117.546 112.46 118.323 111.701L120.269 113.712C118.136 116.159 115.316 117.135 111.809 116.64ZM114.008 97.8168C112.564 97.6128 111.277 97.9702 110.148 98.889C109.021 99.795 108.208 101.179 107.709 103.042L118.191 104.523L118.229 104.252C118.382 102.419 118.09 100.945 117.353 99.828C116.618 98.6984 115.503 98.028 114.008 97.8168ZM141.278 120.408L137.701 119.903L138.96 110.968L129.348 109.61L128.089 118.545L124.492 118.037L127.441 97.1107L131.038 97.6188L129.76 106.689L139.371 108.047L140.649 98.9766L144.227 99.482L141.278 120.408ZM154.626 116.948L161.71 101.952L165.539 102.493L153.723 125.46C151.93 128.757 149.615 130.206 146.779 129.805L146.11 129.651L144.811 129.211L145.22 126.31L146.176 126.524C147.388 126.696 148.364 126.584 149.103 126.188C149.855 125.795 150.543 124.978 151.164 123.738L152.257 121.722L147.708 99.9738L151.615 100.526L154.626 116.948Z" fill="white"/>
	<path d="M25.889 147.636L28.8412 140.213L30.8012 140.215L26.2635 150.871C25.9581 151.55 25.6734 152.033 25.4095 152.32C25.1455 152.601 24.8347 152.818 24.4771 152.97C24.1254 153.116 23.683 153.188 23.1498 153.188C22.6869 153.187 22.391 153.161 22.2621 153.108L22.3163 151.772L23.1161 151.808C23.7313 151.809 24.1886 151.513 24.4881 150.922L24.7083 150.465L25.0431 149.683L20.6938 140.204L22.5834 140.206L25.889 147.636ZM42.497 150.871L45.7391 143.518L47.7694 143.52L47.7593 153.029L46.1333 153.028L46.1407 146.111L43.0572 153.024L41.9322 153.023L38.802 145.954L38.7945 153.02L37.1685 153.018L37.1786 143.508L39.288 143.511L42.497 150.871ZM54.3246 153.212C53.0355 153.211 51.9871 152.788 51.1794 151.943C50.3717 151.093 49.9686 149.959 49.9701 148.541L49.9705 148.242C49.9715 147.298 50.1511 146.458 50.5093 145.72C50.8733 144.976 51.3779 144.397 52.0228 143.981C52.6737 143.56 53.377 143.35 54.1329 143.351C55.3692 143.352 56.3297 143.76 57.0144 144.575C57.6991 145.391 58.0406 146.557 58.039 148.075L58.0383 148.751L51.5959 148.745C51.6183 149.682 51.89 150.441 52.4109 151.022C52.9376 151.597 53.6053 151.884 54.4139 151.885C54.9881 151.886 55.4745 151.769 55.8732 151.535C56.2719 151.301 56.6209 150.991 56.9201 150.605L57.9125 151.379C57.1143 152.603 55.9183 153.214 54.3246 153.212ZM54.1315 144.687C53.4752 144.686 52.9242 144.926 52.4783 145.406C52.0325 145.88 51.7564 146.547 51.6501 147.409L56.4137 147.414L56.4139 147.291C56.3679 146.464 56.1459 145.826 55.7479 145.374C55.35 144.916 54.8111 144.687 54.1315 144.687ZM67.6929 153.051L66.0669 153.049L66.0712 148.988L61.7031 148.984L61.6988 153.044L60.064 153.043L60.0741 143.533L61.7089 143.535L61.7045 147.657L66.0727 147.661L66.077 143.539L67.703 143.541L67.6929 153.051ZM74.2582 153.233C72.9691 153.232 71.9207 152.809 71.113 151.964C70.3053 151.114 69.9022 149.98 69.9037 148.562L69.904 148.263C69.905 147.32 70.0847 146.479 70.4429 145.741C70.8069 144.997 71.3114 144.418 71.9564 144.002C72.6073 143.581 73.3106 143.371 74.0665 143.372C75.3028 143.373 76.2633 143.781 76.948 144.597C77.6327 145.412 77.9742 146.578 77.9726 148.096L77.9719 148.773L71.5295 148.766C71.5519 149.703 71.8236 150.462 72.3445 151.043C72.8712 151.618 73.5389 151.906 74.3475 151.906C74.9217 151.907 75.4081 151.79 75.8068 151.556C76.2055 151.322 76.5545 151.012 76.8537 150.626L77.846 151.4C77.0479 152.624 75.8519 153.235 74.2582 153.233ZM74.065 144.708C73.4088 144.707 72.8578 144.947 72.4119 145.427C71.9661 145.901 71.69 146.569 71.5836 147.43L76.3473 147.435L76.3474 147.312C76.3014 146.486 76.0795 145.847 75.6815 145.395C75.2836 144.938 74.7447 144.709 74.065 144.708ZM79.7793 151.736L80.3425 151.043C80.9762 150.223 81.3379 148.993 81.4275 147.352L81.5809 143.556L87.7069 143.562L87.6982 151.745L88.9199 151.746L88.9155 155.868L87.2896 155.866L87.2925 153.072L80.6568 153.064L80.6538 155.859L79.0278 155.858L79.041 151.736L79.7793 151.736ZM81.7041 151.738L86.0723 151.743L86.0793 145.063L83.1526 145.06L83.0535 147.328C82.9519 149.22 82.5021 150.69 81.7041 151.738ZM98.3096 148.952L97.167 148.951L97.1626 153.082L95.5367 153.08L95.541 148.949L94.3985 148.948L91.731 153.076L89.6744 153.074L93.0809 148.156L90.0096 143.565L91.9784 143.567L94.4264 147.507L95.5426 147.508L95.5467 143.57L97.1727 143.572L97.1686 147.51L98.276 147.511L100.75 143.576L102.719 143.578L99.6288 148.172L103.025 153.088L100.968 153.086L98.3096 148.952ZM108.272 153.27C106.983 153.268 105.934 152.845 105.127 152.001C104.319 151.15 103.916 150.016 103.917 148.598L103.918 148.299C103.919 147.356 104.098 146.515 104.457 145.777C104.821 145.033 105.325 144.454 105.97 144.039C106.621 143.617 107.324 143.407 108.08 143.408C109.316 143.409 110.277 143.818 110.962 144.633C111.646 145.448 111.988 146.614 111.986 148.132L111.986 148.809L105.543 148.802C105.566 149.739 105.837 150.498 106.358 151.079C106.885 151.654 107.553 151.942 108.361 151.943C108.935 151.943 109.422 151.826 109.82 151.593C110.219 151.359 110.568 151.048 110.867 150.662L111.86 151.436C111.062 152.66 109.866 153.271 108.272 153.27ZM108.079 144.744C107.422 144.743 106.871 144.983 106.426 145.463C105.98 145.937 105.704 146.605 105.597 147.466L110.361 147.471L110.361 147.348C110.315 146.522 110.093 145.883 109.695 145.431C109.297 144.974 108.758 144.745 108.079 144.744ZM121.909 148.459C121.907 149.906 121.575 151.072 120.912 151.956C120.249 152.84 119.352 153.281 118.221 153.28C117.067 153.279 116.159 152.912 115.498 152.179L115.493 156.758L113.867 156.756L113.881 143.59L115.366 143.592L115.444 144.646C116.107 143.827 117.027 143.418 118.205 143.419C119.348 143.42 120.25 143.852 120.911 144.714C121.578 145.576 121.911 146.774 121.909 148.309L121.909 148.459ZM120.283 148.273C120.284 147.2 120.057 146.353 119.6 145.732C119.144 145.11 118.517 144.799 117.72 144.798C116.736 144.797 115.997 145.233 115.504 146.105L115.499 150.649C115.985 151.517 116.728 151.951 117.73 151.952C118.51 151.953 119.128 151.646 119.586 151.032C120.049 150.411 120.282 149.491 120.283 148.273ZM129.849 153.117C129.756 152.929 129.68 152.595 129.622 152.115C128.865 152.899 127.962 153.291 126.913 153.289C125.976 153.288 125.206 153.024 124.603 152.496C124.006 151.962 123.708 151.288 123.708 150.473C123.709 149.483 124.085 148.716 124.836 148.172C125.592 147.622 126.653 147.348 128.018 147.349L129.6 147.351L129.601 146.604C129.602 146.035 129.432 145.584 129.093 145.25C128.753 144.909 128.253 144.739 127.59 144.738C127.01 144.738 126.524 144.884 126.131 145.176C125.738 145.469 125.541 145.823 125.541 146.239L123.906 146.237C123.907 145.763 124.074 145.306 124.409 144.867C124.749 144.422 125.206 144.071 125.781 143.814C126.361 143.556 126.997 143.428 127.689 143.429C128.784 143.43 129.642 143.706 130.263 144.258C130.883 144.803 131.205 145.557 131.227 146.518L131.223 150.895C131.222 151.768 131.332 152.462 131.554 152.978L131.554 153.119L129.849 153.117ZM127.152 151.875C127.662 151.875 128.146 151.744 128.603 151.481C129.06 151.217 129.392 150.875 129.597 150.453L129.599 148.502L128.325 148.501C126.333 148.499 125.336 149.081 125.335 150.247C125.334 150.756 125.504 151.155 125.843 151.443C126.183 151.73 126.619 151.874 127.152 151.875Z" fill="black"/>
	<defs>
		<filter id="filter0_d" x="17" y="59.5005" width="151.762" height="96.5556" filterUnits="userSpaceOnUse" color-interpolation-filters="sRGB">
			<feFlood flood-opacity="0" result="BackgroundImageFix"/>
			<feColorMatrix in="SourceAlpha" type="matrix" values="0 0 0 0 0 0 0 0 0 0 0 0 0 0 0 0 0 0 127 0"/>
			<feOffset dy="4"/>
			<feGaussianBlur stdDeviation="2"/>
			<feColorMatrix type="matrix" values="0 0 0 0 0 0 0 0 0 0 0 0 0 0 0 0 0 0 0.25 0"/>
			<feBlend mode="normal" in2="BackgroundImageFix" result="effect1_dropShadow"/>
			<feBlend mode="normal" in="SourceGraphic" in2="effect1_dropShadow" result="shape"/>
		</filter>
		<filter id="filter1_d" x="79" y="0" width="101" height="100" filterUnits="userSpaceOnUse" color-interpolation-filters="sRGB">
			<feFlood flood-opacity="0" result="BackgroundImageFix"/>
			<feColorMatrix in="SourceAlpha" type="matrix" values="0 0 0 0 0 0 0 0 0 0 0 0 0 0 0 0 0 0 127 0"/>
			<feOffset dy="4"/>
			<feGaussianBlur stdDeviation="2"/>
			<feColorMatrix type="matrix" values="0 0 0 0 0 0 0 0 0 0 0 0 0 0 0 0 0 0 0.25 0"/>
			<feBlend mode="normal" in2="BackgroundImageFix" result="effect1_dropShadow"/>
			<feBlend mode="normal" in="SourceGraphic" in2="effect1_dropShadow" result="shape"/>
		</filter>
		<filter id="filter2_d" x="2" y="126" width="149" height="49" filterUnits="userSpaceOnUse" color-interpolation-filters="sRGB">
			<feFlood flood-opacity="0" result="BackgroundImageFix"/>
			<feColorMatrix in="SourceAlpha" type="matrix" values="0 0 0 0 0 0 0 0 0 0 0 0 0 0 0 0 0 0 127 0"/>
			<feOffset dy="4"/>
			<feGaussianBlur stdDeviation="2"/>
			<feColorMatrix type="matrix" values="0 0 0 0 0 0 0 0 0 0 0 0 0 0 0 0 0 0 0.25 0"/>
			<feBlend mode="normal" in2="BackgroundImageFix" result="effect1_dropShadow"/>
			<feBlend mode="normal" in="SourceGraphic" in2="effect1_dropShadow" result="shape"/>
		</filter>
		<filter id="filter3_d" x="0.368164" y="6.3252" width="112.541" height="75.4783" filterUnits="userSpaceOnUse" color-interpolation-filters="sRGB">
			<feFlood flood-opacity="0" result="BackgroundImageFix"/>
			<feColorMatrix in="SourceAlpha" type="matrix" values="0 0 0 0 0 0 0 0 0 0 0 0 0 0 0 0 0 0 127 0"/>
			<feOffset dy="4"/>
			<feGaussianBlur stdDeviation="2"/>
			<feColorMatrix type="matrix" values="0 0 0 0 0 0 0 0 0 0 0 0 0 0 0 0 0 0 0.25 0"/>
			<feBlend mode="normal" in2="BackgroundImageFix" result="effect1_dropShadow"/>
			<feBlend mode="normal" in="SourceGraphic" in2="effect1_dropShadow" result="shape"/>
		</filter>
		<filter id="filter4_d" x="43.2188" y="67.4272" width="154.862" height="82.9169" filterUnits="userSpaceOnUse" color-interpolation-filters="sRGB">
			<feFlood flood-opacity="0" result="BackgroundImageFix"/>
			<feColorMatrix in="SourceAlpha" type="matrix" values="0 0 0 0 0 0 0 0 0 0 0 0 0 0 0 0 0 0 127 0"/>
			<feOffset dy="4"/>
			<feGaussianBlur stdDeviation="2"/>
			<feColorMatrix type="matrix" values="0 0 0 0 0 0 0 0 0 0 0 0 0 0 0 0 0 0 0.25 0"/>
			<feBlend mode="normal" in2="BackgroundImageFix" result="effect1_dropShadow"/>
			<feBlend mode="normal" in="SourceGraphic" in2="effect1_dropShadow" result="shape"/>
		</filter>
		<linearGradient id="paint0_linear" x1="5.69835" y1="65.6817" x2="186.28" y2="33.6656" gradientUnits="userSpaceOnUse">
			<stop stop-color="white"/>
			<stop offset="1" stop-color="#DDDDDD"/>
		</linearGradient>
		<linearGradient id="paint1_linear" x1="5.35812" y1="47.0495" x2="108.889" y2="32.347" gradientUnits="userSpaceOnUse">
			<stop stop-color="#4EB171"/>
			<stop offset="1" stop-color="#1B873F"/>
		</linearGradient>
		<linearGradient id="paint2_linear" x1="14.4664" y1="72.6386" x2="33.0354" y2="81.5958" gradientUnits="userSpaceOnUse">
			<stop stop-color="#1B873F"/>
			<stop offset="1" stop-color="#4EB171"/>
		</linearGradient>
		<linearGradient id="paint3_linear" x1="47.2704" y1="104.868" x2="194.066" y2="104.868" gradientUnits="userSpaceOnUse">
			<stop stop-color="#4EB171"/>
			<stop offset="1" stop-color="#1B873F"/>
		</linearGradient>
		<linearGradient id="paint4_linear" x1="149.785" y1="146.164" x2="177.979" y2="146.164" gradientUnits="userSpaceOnUse">
			<stop stop-color="#4EB171"/>
			<stop offset="1" stop-color="#1B873F"/>
		</linearGradient>
	</defs>
</svg>
