<svg width="16" height="16" viewBox="0 0 16 16" fill="none" xmlns="http://www.w3.org/2000/svg"><path d="M0.323303 7.8232L7.8233 0.323197C7.87019 0.276329 7.93376 0.25 8.00005 0.25C8.06634 0.25 8.12992 0.276329 8.1768 0.323197L15.6768 7.8232C15.7118 7.85816 15.7356 7.9027 15.7452 7.95119C15.7548 7.99968 15.7499 8.04994 15.731 8.09561C15.7121 8.14129 15.68 8.18033 15.6389 8.2078C15.5978 8.23527 15.5495 8.24994 15.5001 8.24995H14.2501V14.2499H14.5001C14.5664 14.2499 14.6299 14.2763 14.6768 14.3232C14.7237 14.3701 14.7501 14.4336 14.7501 14.4999V15.4999C14.7501 15.5663 14.7237 15.6298 14.6768 15.6767C14.6299 15.7236 14.5664 15.7499 14.5001 15.7499H1.50005C1.43375 15.7499 1.37016 15.7236 1.32328 15.6767C1.27639 15.6298 1.25005 15.5663 1.25005 15.4999V14.4999C1.25005 14.4336 1.27639 14.3701 1.32328 14.3232C1.37016 14.2763 1.43375 14.2499 1.50005 14.2499H1.75005V8.24995H0.500053C0.450616 8.24994 0.402291 8.23527 0.361189 8.2078C0.320086 8.18033 0.288051 8.14129 0.269134 8.09561C0.250216 8.04994 0.245266 7.99968 0.254908 7.95119C0.264549 7.9027 0.288351 7.85816 0.323303 7.8232ZM1.75005 15.2499H14.2501V14.7499H1.75005V15.2499ZM9.25005 14.2499H12.2501V9.74995H9.25005V14.2499ZM8.75005 14.2499V9.49995C8.75005 9.43364 8.77639 9.37006 8.82328 9.32317C8.87016 9.27629 8.93375 9.24995 9.00005 9.24995H12.5001C12.5664 9.24995 12.6299 9.27629 12.6768 9.32317C12.7237 9.37006 12.7501 9.43364 12.7501 9.49995V14.2499H13.7501V8.10345L8.00005 2.35345L2.25005 8.10345V14.2499H8.75005ZM1.89655 7.74995L7.8233 1.8232C7.87019 1.77633 7.93376 1.75 8.00005 1.75C8.06634 1.75 8.12992 1.77633 8.1768 1.8232L14.1036 7.74995H14.8966L8.00005 0.853447L1.10355 7.74995H1.89655Z" fill="white"/><path d="M6.25 6.5C6.25 6.15388 6.35264 5.81554 6.54493 5.52775C6.73722 5.23997 7.01053 5.01566 7.3303 4.88321C7.65007 4.75076 8.00194 4.7161 8.34141 4.78363C8.68087 4.85115 8.99269 5.01782 9.23744 5.26256C9.48218 5.50731 9.64885 5.81913 9.71637 6.15859C9.7839 6.49806 9.74924 6.84993 9.61679 7.1697C9.48434 7.48947 9.26003 7.76278 8.97225 7.95507C8.68446 8.14737 8.34612 8.25 8 8.25C7.53603 8.24947 7.09122 8.06493 6.76315 7.73685C6.43507 7.40878 6.25053 6.96397 6.25 6.5ZM9.25 6.5C9.25 6.25277 9.17669 6.0111 9.03934 5.80554C8.90198 5.59998 8.70676 5.43976 8.47835 5.34515C8.24995 5.25054 7.99861 5.22579 7.75614 5.27402C7.51366 5.32225 7.29093 5.4413 7.11612 5.61612C6.9413 5.79093 6.82225 6.01366 6.77402 6.25614C6.72579 6.49861 6.75054 6.74995 6.84515 6.97836C6.93976 7.20676 7.09997 7.40199 7.30554 7.53934C7.5111 7.67669 7.75277 7.75 8 7.75C8.3314 7.7496 8.64911 7.61778 8.88344 7.38345C9.11778 7.14911 9.2496 6.8314 9.25 6.5Z" fill="white"/><path d="M3 9.25H8C8.0663 9.25 8.12989 9.27634 8.17678 9.32322C8.22366 9.37011 8.25 9.4337 8.25 9.5V13C8.25 13.0663 8.22366 13.1299 8.17678 13.1768C8.12989 13.2237 8.0663 13.25 8 13.25H3C2.9337 13.25 2.87011 13.2237 2.82322 13.1768C2.77634 13.1299 2.75 13.0663 2.75 13V9.5C2.75 9.4337 2.77634 9.37011 2.82322 9.32322C2.87011 9.27634 2.9337 9.25 3 9.25ZM3.25 11H5.25V9.75H3.25V11ZM5.75 9.75V11H7.75V9.75H5.75ZM7.75 11.5H5.75V12.75H7.75V11.5ZM5.25 12.75V11.5H3.25V12.75H5.25Z" fill="white"/><path d="M11.25 11.25H11.75V12.25H11.25V11.25Z" fill="white"/></svg>
