<svg xmlns="http://www.w3.org/2000/svg" width="46" height="50" viewBox="0 0 46 50"><g><g opacity=".9"><g opacity=".9"><g opacity=".9"><g opacity=".9"><path fill="#ff9800" d="M19.872 6.25c-.576 0-1.042.466-1.042 1.042v6.25a1.041 1.041 0 1 0 2.083 0v-6.25c0-.576-.466-1.042-1.041-1.042z"/></g><g opacity=".9"><path fill="#ff9800" d="M26.122 6.25c-.576 0-1.042.466-1.042 1.042v6.25a1.041 1.041 0 1 0 2.083 0v-6.25c0-.576-.466-1.042-1.041-1.042z"/></g><g opacity=".9"><path fill="#212121" d="M43.83 6.25c1.536 0 2.083 2.152 2.083 4.167 0 2.014-.547 4.166-2.083 4.166H33.413v5.209c0 .575-.466 1.041-1.041 1.041H31.33V25a4.171 4.171 0 0 1-4.167 4.167V43.75c0 .19-.05.374-.148.536l-3.125 5.208a1.04 1.04 0 0 1-1.786 0l-3.125-5.208a1.036 1.036 0 0 1-.149-.536V29.167A4.172 4.172 0 0 1 14.663 25v-4.167h-1.041a1.041 1.041 0 0 1-1.042-1.041v-5.209H2.163C.627 14.583.08 12.431.08 10.417c0-2.014.547-4.167 2.083-4.167H12.58V4.167A4.171 4.171 0 0 1 16.747 0h12.5a4.171 4.171 0 0 1 4.166 4.167V6.25zM12.58 12.5V8.333H2.49c-.14.313-.327 1.025-.327 2.084 0 1.059.187 1.77.328 2.083zm12.5 30.961V29.167h-4.167V43.46l2.084 3.473 2.083-3.473zm4.167-22.628h-12.5V25c0 1.148.934 2.083 2.083 2.083h8.333c1.15 0 2.084-.935 2.084-2.083zm2.083-2.083V4.167a2.085 2.085 0 0 0-2.083-2.084h-12.5c-1.15 0-2.084.935-2.084 2.084V18.75zm12.172-6.25c.14-.312.328-1.024.328-2.083 0-1.06-.187-1.771-.328-2.084H33.413V12.5z"/></g></g></g></g></g></svg>