<svg xmlns="http://www.w3.org/2000/svg" width="55" height="47" viewBox="0 0 55 47"><g><g><path fill="#212121" d="M53.926.86C54.519.86 55 1.34 55 1.934v24.734c0 .593-.481 1.074-1.074 1.074h-3.647l-.271 2.896a1.074 1.074 0 0 1-1.623.82l-6.193-3.716h-6.864V40.81c0 .594-.481 1.075-1.074 1.075H13.85l-5.715 4.063a1.074 1.074 0 0 1-1.694-.798l-.235-3.265H1.074A1.074 1.074 0 0 1 0 40.809V14.102c0-.593.48-1.074 1.074-1.074h21.05V1.934c0-.593.48-1.074 1.074-1.074zM33.18 15.176H2.148v24.56h5.057c.564 0 1.031.434 1.072.996l.17 2.357 4.437-3.155c.182-.13.4-.199.623-.199H33.18zM52.852 3.008h-28.58v10.02h9.982c.593 0 1.074.48 1.074 1.074v11.492h7.162c.194 0 .385.053.552.153l4.986 2.991.203-2.17a1.074 1.074 0 0 1 1.07-.974h3.55z"/></g><g><path fill="#ff9800" d="M20.75 20.194a1.074 1.074 0 0 0-1.406.574l-5.18 12.33a1.074 1.074 0 0 0 1.981.832l5.18-12.33a1.074 1.074 0 0 0-.575-1.406z"/></g><g><path fill="#ff9800" d="M13.683 26.992c-1.854 0-3.363-1.674-3.363-3.731s1.509-3.731 3.363-3.731 3.363 1.674 3.363 3.731-1.509 3.731-3.363 3.731zm1.214-3.731c0-.858-.556-1.583-1.214-1.583-.658 0-1.215.725-1.215 1.583s.557 1.583 1.215 1.583 1.214-.725 1.214-1.583z"/></g><g><path fill="#ff9800" d="M25.016 31.691c0 2.057-1.509 3.731-3.363 3.731s-3.363-1.674-3.363-3.731 1.509-3.731 3.363-3.731 3.363 1.674 3.363 3.731zm-2.149 0c0-.858-.556-1.583-1.214-1.583-.658 0-1.215.725-1.215 1.583s.557 1.583 1.215 1.583 1.214-.725 1.214-1.583z"/></g></g></svg>