<svg width="16" height="16" viewBox="0 0 16 16" fill="none" xmlns="http://www.w3.org/2000/svg"><path d="M15.2953 0.586307C15.2553 0.569698 15.2113 0.565334 15.1689 0.573769C15.1265 0.582204 15.0875 0.603057 15.0569 0.633682L0.633529 15.0571C0.60289 15.0876 0.582016 15.1266 0.573554 15.1691C0.565092 15.2115 0.569422 15.2555 0.585996 15.2955C0.602569 15.3355 0.63064 15.3697 0.666651 15.3937C0.702662 15.4177 0.744993 15.4305 0.788279 15.4304H15.2115C15.2403 15.4304 15.2687 15.4248 15.2953 15.4138C15.3218 15.4028 15.3459 15.3867 15.3662 15.3664C15.3866 15.3461 15.4027 15.322 15.4137 15.2954C15.4246 15.2689 15.4303 15.2404 15.4303 15.2117V0.788432C15.4303 0.745167 15.4175 0.702872 15.3934 0.666894C15.3694 0.630916 15.3352 0.602871 15.2953 0.586307ZM13.7043 14.9929V14.5876C13.7043 14.5295 13.6812 14.4739 13.6402 14.4329C13.5992 14.3919 13.5435 14.3688 13.4855 14.3688C13.4275 14.3688 13.3719 14.3919 13.3308 14.4329C13.2898 14.4739 13.2668 14.5295 13.2668 14.5876V14.9933H12.8918V14.1501C12.8918 14.092 12.8687 14.0364 12.8277 13.9954C12.7867 13.9544 12.731 13.9313 12.673 13.9313C12.615 13.9313 12.5594 13.9544 12.5183 13.9954C12.4773 14.0364 12.4543 14.092 12.4543 14.1501V14.9924H12.0793V14.5876C12.0793 14.5295 12.0562 14.4739 12.0152 14.4329C11.9742 14.3919 11.9185 14.3688 11.8605 14.3688C11.8025 14.3688 11.7469 14.3919 11.7058 14.4329C11.6648 14.4739 11.6418 14.5295 11.6418 14.5876V14.9933H10.5888V14.5876C10.5888 14.5295 10.5657 14.4739 10.5247 14.4329C10.4837 14.3919 10.428 14.3688 10.37 14.3688C10.312 14.3688 10.2564 14.3919 10.2153 14.4329C10.1743 14.4739 10.1513 14.5295 10.1513 14.5876V14.9933H9.77628V14.1501C9.77628 14.092 9.75323 14.0364 9.71221 13.9954C9.67119 13.9544 9.61554 13.9313 9.55753 13.9313C9.49951 13.9313 9.44387 13.9544 9.40285 13.9954C9.36183 14.0364 9.33878 14.092 9.33878 14.1501V14.9924H8.96378V14.5876C8.96378 14.5295 8.94073 14.4739 8.89971 14.4329C8.85869 14.3919 8.80304 14.3688 8.74503 14.3688C8.68701 14.3688 8.63137 14.3919 8.59035 14.4329C8.54933 14.4739 8.52628 14.5295 8.52628 14.5876V14.9933H7.47328V14.5876C7.47328 14.5295 7.45023 14.4739 7.40921 14.4329C7.36819 14.3919 7.31255 14.3688 7.25453 14.3688C7.19651 14.3688 7.14087 14.3919 7.09985 14.4329C7.05883 14.4739 7.03578 14.5295 7.03578 14.5876V14.9933H6.66078V14.1501C6.66078 14.092 6.63773 14.0364 6.59671 13.9954C6.55569 13.9544 6.50005 13.9313 6.44203 13.9313C6.38401 13.9313 6.32837 13.9544 6.28735 13.9954C6.24633 14.0364 6.22328 14.092 6.22328 14.1501V14.9924H5.84828V14.5876C5.84828 14.5295 5.82523 14.4739 5.78421 14.4329C5.74319 14.3919 5.68755 14.3688 5.62953 14.3688C5.57151 14.3688 5.51587 14.3919 5.47485 14.4329C5.43383 14.4739 5.41078 14.5295 5.41078 14.5876V14.9933H4.3579V14.5876C4.3579 14.5295 4.33486 14.4739 4.29383 14.4329C4.25281 14.3919 4.19717 14.3688 4.13915 14.3688C4.08114 14.3688 4.0255 14.3919 3.98447 14.4329C3.94345 14.4739 3.9204 14.5295 3.9204 14.5876V14.9933H3.5454V14.1501C3.5454 14.092 3.52236 14.0364 3.48133 13.9954C3.44031 13.9544 3.38467 13.9313 3.32665 13.9313C3.26864 13.9313 3.213 13.9544 3.17197 13.9954C3.13095 14.0364 3.1079 14.092 3.1079 14.1501V14.9924H2.7329V14.5876C2.7329 14.5295 2.70986 14.4739 2.66883 14.4329C2.62781 14.3919 2.57217 14.3688 2.51415 14.3688C2.45614 14.3688 2.4005 14.3919 2.35947 14.4329C2.31845 14.4739 2.2954 14.5295 2.2954 14.5876V14.9933H1.31628L14.9928 1.31656V2.29568H14.5874C14.5294 2.29568 14.4737 2.31873 14.4327 2.35975C14.3917 2.40078 14.3687 2.45642 14.3687 2.51443C14.3687 2.57245 14.3917 2.62809 14.4327 2.66911C14.4737 2.71013 14.5294 2.73318 14.5874 2.73318H14.9932V3.10818H14.1499C14.0919 3.10818 14.0362 3.13123 13.9952 3.17225C13.9542 3.21328 13.9312 3.26892 13.9312 3.32693C13.9312 3.38495 13.9542 3.44059 13.9952 3.48161C14.0362 3.52263 14.0919 3.54568 14.1499 3.54568H14.9924V3.92068H14.5874C14.5294 3.92068 14.4737 3.94373 14.4327 3.98475C14.3917 4.02578 14.3687 4.08142 14.3687 4.13943C14.3687 4.19745 14.3917 4.25309 14.4327 4.29411C14.4737 4.33513 14.5294 4.35818 14.5874 4.35818H14.9932V5.41131H14.5874C14.5294 5.41131 14.4737 5.43435 14.4327 5.47538C14.3917 5.5164 14.3687 5.57204 14.3687 5.63006C14.3687 5.68807 14.3917 5.74371 14.4327 5.78474C14.4737 5.82576 14.5294 5.84881 14.5874 5.84881H14.9932V6.22381H14.1499C14.0919 6.22381 14.0362 6.24685 13.9952 6.28788C13.9542 6.3289 13.9312 6.38454 13.9312 6.44256C13.9312 6.50057 13.9542 6.55621 13.9952 6.59724C14.0362 6.63826 14.0919 6.66131 14.1499 6.66131H14.9924V7.03631H14.5874C14.5294 7.03631 14.4737 7.05935 14.4327 7.10038C14.3917 7.1414 14.3687 7.19704 14.3687 7.25506C14.3687 7.31307 14.3917 7.36871 14.4327 7.40974C14.4737 7.45076 14.5294 7.47381 14.5874 7.47381H14.9932V8.52681H14.5874C14.5294 8.52681 14.4737 8.54985 14.4327 8.59088C14.3917 8.6319 14.3687 8.68754 14.3687 8.74556C14.3687 8.80357 14.3917 8.85921 14.4327 8.90024C14.4737 8.94126 14.5294 8.96431 14.5874 8.96431H14.9932V9.33931H14.1499C14.0919 9.33931 14.0362 9.36235 13.9952 9.40338C13.9542 9.4444 13.9312 9.50004 13.9312 9.55806C13.9312 9.61607 13.9542 9.67171 13.9952 9.71274C14.0362 9.75376 14.0919 9.77681 14.1499 9.77681H14.9924V10.1518H14.5874C14.5294 10.1518 14.4737 10.1749 14.4327 10.2159C14.3917 10.2569 14.3687 10.3125 14.3687 10.3706C14.3687 10.4286 14.3917 10.4842 14.4327 10.5252C14.4737 10.5663 14.5294 10.5893 14.5874 10.5893H14.9932V11.6424H14.5874C14.5294 11.6424 14.4737 11.6655 14.4327 11.7065C14.3917 11.7475 14.3687 11.8032 14.3687 11.8612C14.3687 11.9192 14.3917 11.9748 14.4327 12.0159C14.4737 12.0569 14.5294 12.0799 14.5874 12.0799H14.9932V12.4549H14.1499C14.0919 12.4549 14.0362 12.478 13.9952 12.519C13.9542 12.56 13.9312 12.6157 13.9312 12.6737C13.9312 12.7317 13.9542 12.7873 13.9952 12.8284C14.0362 12.8694 14.0919 12.8924 14.1499 12.8924H14.9924V13.2674H14.5874C14.5294 13.2674 14.4737 13.2905 14.4327 13.3315C14.3917 13.3725 14.3687 13.4282 14.3687 13.4862C14.3687 13.5442 14.3917 13.5998 14.4327 13.6409C14.4737 13.6819 14.5294 13.7049 14.5874 13.7049H14.9932V14.9934L13.7043 14.9929Z" fill="white"/><path d="M13.1182 5.84339C13.0783 5.82678 13.0343 5.82241 12.9919 5.83085C12.9494 5.83928 12.9104 5.86014 12.8799 5.89076L5.89036 12.8803C5.85973 12.9108 5.83886 12.9498 5.8304 12.9922C5.82193 13.0347 5.82625 13.0787 5.84281 13.1187C5.85937 13.1586 5.88742 13.1928 5.92341 13.2168C5.9594 13.2409 6.00171 13.2537 6.04499 13.2536H13.0345C13.0925 13.2536 13.1481 13.2306 13.1892 13.1896C13.2302 13.1485 13.2532 13.0929 13.2532 13.0349V6.04539C13.2533 6.00214 13.2404 5.95985 13.2164 5.92389C13.1924 5.88793 13.1582 5.85992 13.1182 5.84339ZM12.8157 12.8161H6.57311L12.8157 6.57351V12.8161Z" fill="white"/></svg>
