<svg width="375" height="376" viewBox="0 0 375 376" fill="none" xmlns="http://www.w3.org/2000/svg">
<g clip-path="url(#clip0)">
<path d="M374.6 0.399994H-0.400024V375.4H374.6V0.399994Z" fill="#FF9800"/>
<path fill-rule="evenodd" clip-rule="evenodd" d="M146.2 25.9V203.2C142.8 203.2 73.8 209.6 68.5 214.3C67.2 220.1 74.8 222.5 79.7 224C80.7 224.3 81.5999 224.6 82.2 224.8C87 226.2 92.2 227.6 98.9 229.3C105.9 231.1 114.3 233.4 125.4 236.4C131.9 238.2 136.7 239.3 140.3 240.2C148.3 242 150.9 242.6 155 247C157.8 249.9 157.8 250.1 159.4 259.3C160.1 263.5 161.2 269.7 163 278.9C166.2 295 168.1 307.1 170.1 319.2C171.8 329.5 173.4 340 175.9 353.1C176.1 354.1 176.3 355 176.4 355.9C178.3 366.2 179.5 372.7 182.6 373.3C185.7 373.9 186.3 371.8 188 366.2C188.1 365.8 188.3 365.3 188.4 364.8C190.3 358.6 198.6 325.4 200.9 316L201.1 315.2C201.5 313.6 201.8 312 202.2 310.6C203.5 304.8 204.5 300.4 207.2 300.4C210.5 300.4 223.6 301.9 235.6 303.2H236C253 305.1 286.7 306.1 294.6 304.8C300.4 303.8 306.3 301.2 306.3 297.6C306.3 294.7 306.3 294.2 288.1 287.3C284.1 285.8 274.4 282.5 263.5 278.9C247.2 273.5 228.5 267.3 223.2 264.8C212.8 260 212.5 258.1 214.5 249.4C215.8 243.7 220.4 222.8 223.7 207.5C225.4 199.6 226.8 193.1 227.3 191.1C228.4 186 232.8 185.2 237.5 184.3C238.4 184.1 239.2 184 240.1 183.8C252.3 181 255 180.1 259.5 178.7L260.2 178.5C280.3 172 271 170 262 168.2C261.4 168.1 260.8 167.9 260.2 167.8C252.7 166.2 232.5 164.4 223.3 163.8V4.69999V0.799988H220.2H146.2V25.9Z" fill="white"/>
</g>
<defs>
<clipPath id="clip0">
<rect width="374.7" height="375.2" fill="white"/>
</clipPath>
</defs>
</svg>
