<svg xmlns="http://www.w3.org/2000/svg" width="20" height="20" viewBox="0 0 20 20"><g><g opacity=".9"><g opacity=".9"/><g opacity=".9"><g opacity=".9"><g opacity=".9"><path fill="#fff" d="M17.857 2.143c1.184 0 2.143.96 2.143 2.143v13.571C20 19.041 19.04 20 17.857 20H2.143A2.143 2.143 0 0 1 0 17.857V4.286c0-1.184.96-2.143 2.143-2.143h2.143V.714a.714.714 0 0 1 1.428 0v1.429h8.572V.714a.714.714 0 1 1 1.428 0v1.429zm.714 6.428H1.43v9.286c0 .395.32.714.714.714h15.714c.395 0 .714-.32.714-.714zm0-1.428V4.286a.714.714 0 0 0-.714-.715h-2.143V5a.714.714 0 1 1-1.428 0V3.571H5.714V5a.714.714 0 1 1-1.428 0V3.571H2.143a.714.714 0 0 0-.714.715v2.857z"/></g></g></g><g opacity=".9"><g opacity=".9"><g opacity=".9"><path fill="#fff" d="M5.713 10H4.284a.714.714 0 1 0 0 1.429h1.429a.714.714 0 1 0 0-1.429z"/></g></g></g><g opacity=".9"><g opacity=".9"><g opacity=".9"><path fill="#fff" d="M10.713 10H9.284a.714.714 0 1 0 0 1.429h1.429a.714.714 0 1 0 0-1.429z"/></g></g></g><g opacity=".9"><g opacity=".9"><g opacity=".9"><path fill="#fff" d="M15.713 10h-1.429a.714.714 0 1 0 0 1.429h1.429a.714.714 0 1 0 0-1.429z"/></g></g></g><g opacity=".9"><g opacity=".9"><g opacity=".9"><path fill="#fff" d="M5.713 12.86H4.284a.714.714 0 1 0 0 1.429h1.429a.714.714 0 1 0 0-1.429z"/></g></g></g><g opacity=".9"><g opacity=".9"><g opacity=".9"><path fill="#fff" d="M10.713 12.86H9.284a.714.714 0 1 0 0 1.429h1.429a.714.714 0 1 0 0-1.429z"/></g></g></g><g opacity=".9"><g opacity=".9"><g opacity=".9"><path fill="#fff" d="M15.713 12.86h-1.429a.714.714 0 1 0 0 1.429h1.429a.714.714 0 1 0 0-1.429z"/></g></g></g><g opacity=".9"><g opacity=".9"><g opacity=".9"><path fill="#fff" d="M5.713 15.71H4.284a.714.714 0 1 0 0 1.429h1.429a.714.714 0 1 0 0-1.429z"/></g></g></g><g opacity=".9"><g opacity=".9"><g opacity=".9"><path fill="#fff" d="M10.713 15.71H9.284a.714.714 0 1 0 0 1.429h1.429a.714.714 0 1 0 0-1.429z"/></g></g></g><g opacity=".9"><g opacity=".9"><g opacity=".9"><path fill="#fff" d="M15.713 15.71h-1.429a.714.714 0 1 0 0 1.429h1.429a.714.714 0 1 0 0-1.429z"/></g></g></g></g></g></svg>