<svg xmlns="http://www.w3.org/2000/svg" width="25" height="23" viewBox="0 0 25 23"><g><g><g/><g><g><g><g><path fill="#fff" fill-opacity=".9" d="M24.69 13.55l-3.097 1.233v6.969a.49.49 0 0 1-.49.49H.49a.49.49 0 0 1-.491-.49V8.992a.485.485 0 0 1 .262-.426.48.48 0 0 1 .196-.156L19.607.785a.49.49 0 0 1 .638.274l4.72 11.852a.49.49 0 0 1-.274.638zm-4.078-4.067H.982V21.26h19.63zm-.573-.98l-.82-2.06a3.905 3.905 0 0 1-2.814-1.214L8.188 8.504zm3.833 4.317L19.514 1.879 2.882 8.5h3.046a.485.485 0 0 1 .27-.262L16.23 4.244a.554.554 0 0 1 .069-.012.486.486 0 0 1 .63.11 2.935 2.935 0 0 0 2.573 1.108c.241-.02.46.141.513.378a.41.41 0 0 1 .04.061l1.04 2.612h.007c.272 0 .491.22.491.491v4.737z"/></g><g><path fill="#fff" fill-opacity=".9" d="M1.974 17.409a.452.452 0 0 1-.014-.068v-3.926a.495.495 0 0 1 .014-.073.484.484 0 0 1 .336-.54 2.934 2.934 0 0 0 1.982-1.98.485.485 0 0 1 .54-.337.463.463 0 0 1 .073-.015h11.778a.466.466 0 0 1 .069.014c.24-.04.473.104.544.336a2.931 2.931 0 0 0 1.98 1.982c.231.07.375.301.337.54a.438.438 0 0 1 .014.073v3.926a.485.485 0 0 1-.014.072.484.484 0 0 1-.337.54 2.934 2.934 0 0 0-1.98 1.981l-.001.003a.457.457 0 0 1-.552.336.426.426 0 0 1-.06.012H4.905a.456.456 0 0 1-.068-.014.45.45 0 0 1-.075.012.49.49 0 0 1-.47-.35 2.934 2.934 0 0 0-1.982-1.98.486.486 0 0 1-.336-.544zm.968-.268a3.899 3.899 0 0 1 2.162 2.163h11.38a3.899 3.899 0 0 1 2.162-2.163v-3.527a3.895 3.895 0 0 1-2.163-2.162H5.103a3.894 3.894 0 0 1-2.161 2.162z"/></g><g><path fill="#fff" fill-opacity=".9" d="M7.85 15.375a2.945 2.945 0 1 1 5.889 0 2.945 2.945 0 0 1-5.889 0zm.982 0a1.963 1.963 0 1 0 3.926 0 1.963 1.963 0 0 0-3.926 0z"/></g><g><path fill="#fff" fill-opacity=".9" d="M4.66 15.376a.736.736 0 1 1 1.472 0 .736.736 0 0 1-1.472 0zm.49 0a.245.245 0 1 0 .492 0 .245.245 0 0 0-.491 0z"/></g><g><path fill="#fff" fill-opacity=".9" d="M15.46 15.376a.736.736 0 1 1 1.472 0 .736.736 0 0 1-1.472 0zm.49 0a.245.245 0 1 0 .492 0 .245.245 0 0 0-.491 0z"/></g></g></g></g></g></g></svg>