<svg xmlns="http://www.w3.org/2000/svg" width="23" height="25" viewBox="0 0 23 25"><g><g opacity=".9"><g opacity=".9"><g opacity=".9"><g opacity=".9"><path fill="#fff" d="M9.94 3.13a.52.52 0 0 0-.52.52v3.126a.52.52 0 1 0 1.042 0V3.65a.52.52 0 0 0-.521-.521z"/></g><g opacity=".9"><path fill="#fff" d="M13.06 3.13a.52.52 0 0 0-.52.52v3.126a.52.52 0 1 0 1.042 0V3.65a.52.52 0 0 0-.521-.521z"/></g><g opacity=".9"><path fill="#fff" d="M21.915 3.125c.768 0 1.042 1.076 1.042 2.083 0 1.007-.274 2.084-1.042 2.084h-5.208v2.604a.52.52 0 0 1-.521.52h-.521V12.5a2.086 2.086 0 0 1-2.083 2.083v7.292a.519.519 0 0 1-.075.268l-1.562 2.604a.52.52 0 0 1-.893 0l-1.563-2.604a.518.518 0 0 1-.074-.268v-7.292A2.086 2.086 0 0 1 7.332 12.5v-2.083H6.81a.52.52 0 0 1-.521-.521V7.292H1.082C.314 7.292.04 6.215.04 5.208c0-1.007.274-2.083 1.042-2.083H6.29V2.083C6.29.934 7.225 0 8.373 0h6.25c1.149 0 2.084.934 2.084 2.083v1.042zM6.29 6.25V4.167H1.245c-.07.156-.163.512-.163 1.041 0 .53.093.886.163 1.042zm6.25 15.48v-7.147h-2.083v7.147l1.041 1.737zm2.083-11.313h-6.25V12.5c0 .574.467 1.042 1.042 1.042h4.167c.574 0 1.041-.468 1.041-1.042zm1.042-1.042V2.083c0-.574-.467-1.041-1.042-1.041h-6.25c-.574 0-1.041.467-1.041 1.041v7.292zm6.086-3.125c.07-.156.164-.512.164-1.042s-.094-.885-.164-1.041h-5.044V6.25z"/></g></g></g></g></g></svg>