<svg xmlns="http://www.w3.org/2000/svg" width="25" height="25" viewBox="0 0 25 25"><g><g><g/><g opacity=".8"><g opacity=".8"><path fill="#fff" d="M.645 21.239l6.664-6.664a9.5 9.5 0 0 1-1.425-5.017C5.884 4.288 10.17 0 15.442 0 20.712 0 25 4.288 25 9.558s-4.288 9.558-9.558 9.558a9.5 9.5 0 0 1-5.016-1.426L3.76 24.355c-.43.43-.993.644-1.558.644a2.196 2.196 0 0 1-1.558-.644A2.189 2.189 0 0 1 0 22.797c0-.589.23-1.142.645-1.558zM15.442 1.465c-4.463 0-8.093 3.63-8.093 8.093s3.63 8.093 8.093 8.093 8.093-3.63 8.093-8.093-3.63-8.093-8.093-8.093zM1.682 23.319a.74.74 0 0 0 1.044 0l6.503-6.504a9.638 9.638 0 0 1-1.044-1.044L1.68 22.274a.734.734 0 0 0-.216.523c0 .197.077.382.216.522z"/></g><g opacity=".8"><path fill="#fff" d="M15.446 16.172A6.624 6.624 0 0 1 8.83 9.556a6.624 6.624 0 0 1 6.616-6.616 6.624 6.624 0 0 1 6.616 6.616 6.624 6.624 0 0 1-6.616 6.616zm0-11.767a5.157 5.157 0 0 0-5.151 5.151c0 2.84 2.31 5.152 5.151 5.152 2.84 0 5.152-2.311 5.152-5.152 0-2.84-2.311-5.151-5.152-5.151z"/></g></g></g></g></svg>