<svg width="125" height="20" viewBox="0 0 125 20" fill="none" xmlns="http://www.w3.org/2000/svg"><path d="M6.6087 11.0865L1.73913 3.10421C1.3913 2.52772 1.13043 2.39468 0.565217 2.39468H0V0H1.30435C2.6087 0 3.13043 0.177383 3.91304 1.50776L6.82609 6.4745C7.43478 7.5388 8 8.6918 8 8.6918H8.04348C8.04348 8.6918 8.6087 7.58315 9.21739 6.4745L12.087 1.50776C12.8696 0.221729 13.3913 0 14.6957 0H15.9565V2.39468H15.3913C14.8261 2.39468 14.5652 2.52772 14.1739 3.10421L9.30435 11.0865V19.6452H6.56522V10.9978L6.6087 11.0865ZM22.7391 10.8647H23.3478V10.6874C23.3478 8.24834 22.4348 7.36142 20.3043 7.36142C19.6522 7.36142 18.0435 7.5388 18.0435 8.42572V9.26829H15.5217V7.84922C15.5217 5.58758 19 5.23282 20.2174 5.23282C24.7826 5.23282 25.9565 7.58315 25.9565 10.7317V16.7184C25.9565 17.1175 26.1739 17.3392 26.5652 17.3392H27.6957V19.6452H25.2174C24 19.6452 23.5217 19.0244 23.5217 18.0488C23.5217 17.561 23.5652 17.2062 23.5652 17.2062H23.4783C23.5217 17.2062 22.3043 20 19.0435 20C16.6522 20 14.3913 18.5366 14.3913 15.8315C14.4348 11.0865 20.4348 10.8647 22.7391 10.8647ZM19.6522 17.8271C21.9565 17.8271 23.3478 15.4324 23.3478 13.3481V12.816H22.6522C20.6522 12.816 17.087 12.9933 17.087 15.5211C17.087 16.6741 17.9565 17.8271 19.6522 17.8271ZM29.6957 10.51H37.6522V12.9047H29.6957V10.51ZM41.5652 8.51441C41.5652 8.1153 41.3478 7.89357 40.9565 7.89357H39.8261V5.58758H42.3478C43.5652 5.58758 44.087 6.11973 44.087 7.13969V7.67184C44.087 8.1153 44.0435 8.47007 44.0435 8.47007H44.087C44.7391 6.82927 46.6522 5.23282 48.7826 5.23282C51.1304 5.23282 52.4783 6.29712 52.9565 8.42572H53C53.7391 6.74058 55.6522 5.23282 57.8696 5.23282C60.9565 5.23282 62.4348 7.051 62.4348 10.643V16.7184C62.4348 17.1175 62.6522 17.3392 63.0435 17.3392H64.1739V19.6452H61.5652C60.3478 19.6452 59.8261 19.1131 59.8261 17.8714V11.2195C59.8261 9.26829 59.4348 7.67184 57.3913 7.67184C55.4783 7.67184 54 9.35699 53.5652 11.2639C53.3913 11.8404 53.3043 12.4612 53.3043 13.1707V19.6009H50.6522V11.1752C50.6522 9.35698 50.3913 7.62749 48.2609 7.62749C46.2609 7.62749 44.8261 9.35699 44.3043 11.3526C44.1739 11.929 44.1304 12.5055 44.1304 13.1707V19.6009H41.5652V8.51441ZM73 5.23282C77.1304 5.23282 80.4348 8.33703 80.4348 12.5499C80.4348 16.8514 77.1304 19.9557 73 19.9557C68.8696 19.9557 65.6087 16.8514 65.6087 12.5499C65.6087 8.33703 68.8696 5.23282 73 5.23282ZM73 17.6497C75.6087 17.6497 77.7391 15.5211 77.7391 12.5942C77.7391 9.66741 75.6087 7.58315 73 7.58315C70.3913 7.58315 68.2609 9.66741 68.2609 12.5942C68.2609 15.5211 70.4348 17.6497 73 17.6497ZM83.1739 2.92683C83.1739 2.52772 82.9565 2.30599 82.5652 2.30599H81.4348V0H84.0435C85.2609 0 85.8261 0.532151 85.8261 1.77384V6.34146C85.8261 7.00665 85.7826 7.49446 85.7826 7.49446H85.8261C85.8261 7.49446 87.0435 5.18847 90.2609 5.18847C93.9565 5.18847 96.3478 8.20399 96.3478 12.5499C96.3478 17.0288 93.6957 19.9113 90.0435 19.9113C86.9565 19.9113 85.6957 17.561 85.6957 17.561H85.6522C85.6522 17.561 85.6957 18.0044 85.6957 18.6253V19.6009H83.1739V2.92683ZM89.6087 17.6497C91.7826 17.6497 93.5652 15.8315 93.5652 12.6386C93.5652 9.57871 91.9565 7.62749 89.6522 7.62749C87.5652 7.62749 85.6957 9.09091 85.6957 12.6829C85.7391 15.1663 87 17.6497 89.6087 17.6497ZM99.5217 8.51441C99.5217 8.1153 99.3043 7.89357 98.913 7.89357H97.7826V5.58758H100.391C101.652 5.58758 102.174 6.11973 102.174 7.36142V16.7184C102.174 17.1175 102.391 17.3392 102.783 17.3392H103.913V19.6452H101.304C100.087 19.6452 99.5652 19.1131 99.5652 17.8714L99.5217 8.51441ZM99.5652 0H101.957V2.79379H99.5652V0ZM106.261 2.92683C106.261 2.52772 106.043 2.30599 105.652 2.30599H104.565V0H107.174C108.391 0 108.913 0.532151 108.913 1.77384V16.7184C108.913 17.1175 109.13 17.3392 109.522 17.3392H110.652V19.6452H108.043C106.826 19.6452 106.261 19.1131 106.261 17.8714V2.92683ZM119.043 5.23282C122.957 5.23282 125 8.20399 125 11.8404C125 12.2395 124.957 12.7716 124.913 12.9933H114.87C115.043 16.0089 117.174 17.6497 119.652 17.6497C121.739 17.6497 123.261 16.3636 123.696 16.0089L124.826 17.9601C124.174 18.5366 122.087 19.9557 119.478 19.9557C115.13 19.9557 112.13 16.7627 112.13 12.5942C112.13 8.1153 115.13 5.23282 119.043 5.23282ZM122.348 11.0421C122.261 8.6031 120.783 7.36142 119 7.36142C116.957 7.36142 115.348 8.73614 114.957 11.0421H122.348Z" fill="#51D2BD"/></svg>