<svg xmlns="http://www.w3.org/2000/svg" width="45" height="39" viewBox="0 0 45 39"><g><g><g/><g><g><g><g><path fill="#212121" d="M44.444 23.199l-5.576 2.22v12.544a.883.883 0 0 1-.883.883H.883A.883.883 0 0 1 0 37.963V14.996a.874.874 0 0 1 .47-.767.866.866 0 0 1 .354-.281L35.292.223h.001a.883.883 0 0 1 1.147.494l8.497 21.333a.883.883 0 0 1-.493 1.149zm-7.343-7.32H1.767v21.2H37.1zm-1.032-1.762l-1.475-3.71a7.028 7.028 0 0 1-5.064-2.184l-14.791 5.894zm6.9 7.769L35.126 2.19 5.187 14.112h5.484a.873.873 0 0 1 .485-.471L29.214 6.45a.992.992 0 0 1 .124-.023.876.876 0 0 1 1.134.198 5.282 5.282 0 0 0 4.631 1.995.873.873 0 0 1 .923.68.734.734 0 0 1 .073.111l1.871 4.701h.015c.487 0 .883.396.883.884v8.526z"/></g><g><path fill="#ff9800" d="M3.555 30.13a.812.812 0 0 1-.025-.123V22.94a.892.892 0 0 1 .025-.13.872.872 0 0 1 .606-.972 5.282 5.282 0 0 0 3.566-3.566.873.873 0 0 1 .972-.605.834.834 0 0 1 .131-.027h21.2a.84.84 0 0 1 .125.025.873.873 0 0 1 .98.606 5.276 5.276 0 0 0 3.564 3.567.87.87 0 0 1 .606.971.796.796 0 0 1 .026.131v7.067a.893.893 0 0 1-.026.13.872.872 0 0 1-.606.973 5.281 5.281 0 0 0-3.566 3.566v.005a.822.822 0 0 1-.994.604.745.745 0 0 1-.108.022H8.83a.819.819 0 0 1-.122-.025.812.812 0 0 1-.136.02.883.883 0 0 1-.846-.63A5.282 5.282 0 0 0 4.16 31.11a.875.875 0 0 1-.606-.98zm1.742-.482a7.018 7.018 0 0 1 3.892 3.892h20.483a7.018 7.018 0 0 1 3.892-3.892v-6.35a7.012 7.012 0 0 1-3.893-3.891H9.19a7.01 7.01 0 0 1-3.892 3.892z"/></g><g><path fill="#ff9800" d="M14.13 26.48a5.3 5.3 0 1 1 10.6 0 5.3 5.3 0 0 1-10.6 0zm1.767 0a3.533 3.533 0 1 0 7.067 0 3.533 3.533 0 0 0-7.067 0z"/></g><g><path fill="#ff9800" d="M8.39 26.475a1.325 1.325 0 1 1 2.65 0 1.325 1.325 0 0 1-2.65 0zm.883 0a.442.442 0 1 0 .884 0 .442.442 0 0 0-.884 0z"/></g><g><path fill="#ff9800" d="M27.83 26.475a1.325 1.325 0 1 1 2.65 0 1.325 1.325 0 0 1-2.65 0zm.883 0a.442.442 0 1 0 .884 0 .442.442 0 0 0-.884 0z"/></g></g></g></g></g></g></svg>