<svg xmlns="http://www.w3.org/2000/svg" width="40" height="40" viewBox="0 0 40 40"><g><g><g/><g><g><g><g><path fill="#ff9800" d="M32.738 26.68H28.73v1.336h4.008z"/></g><g><path fill="#ff9800" d="M27.388 26.68H23.38v1.336h4.008z"/></g><g><path fill="#ff9800" d="M22.048 26.68H18.04v1.336h4.008z"/></g><g><path fill="#212121" d="M39.408 13.853a1.997 1.997 0 0 1-.003 2.838l-3.329 3.329v15.343a2.004 2.004 0 0 1-2.004 2.004H18.73l-1.998 1.996c-.371.378-.88.59-1.41.59h-.005a1.996 1.996 0 0 1-1.42-.59l-1.993-1.996H2.004A2.004 2.004 0 0 1 0 35.363V16.657c0-1.107.897-2.005 2.004-2.005H9.33L23.353.632a1.977 1.977 0 0 1 1.41-.592h.005c.534 0 1.045.212 1.42.591zM28.073 4.407L17.827 14.652H23.5l7.41-7.409zM11.22 14.652h4.717l11.191-11.19-1.886-1.889-.011-.01a.659.659 0 0 0-.932.01zm5.62 22.715h-3.047l1.05 1.054c.124.127.296.2.475.2a.65.65 0 0 0 .467-.2zm17.9-11.357H1.336v9.353c0 .369.3.668.668.668h32.068c.37 0 .668-.3.668-.668zm0-5.345H1.336v4.008H34.74zm0-4.008c0-.37-.299-.669-.668-.669H2.004c-.369 0-.668.3-.668.669v2.672H34.74zm3.723-.914a.655.655 0 0 0 .198-.468.668.668 0 0 0-.2-.478l-6.61-6.61-6.464 6.465h8.685c1.107 0 2.004.898 2.004 2.005v1.473z"/></g><g><path fill="#ff9800" d="M2.641 34.442a2.672 2.672 0 1 1 4.043-3.497c.403-.47.96-.785 1.572-.887h.019l.017-.004c.13-.024.263-.036.396-.034a2.672 2.672 0 0 1 2.672 2.673 2.716 2.716 0 0 1-1.16 2.202 2.649 2.649 0 0 1-3.516-.453 2.672 2.672 0 0 1-4.043 0zm4.734-1.772a1.336 1.336 0 0 0 1.313 1.359c.376 0 .734-.16.987-.438.005-.005.012-.009.016-.014.028-.034.046-.068.07-.1a1.31 1.31 0 0 0 .263-.784c0-.738-.598-1.337-1.336-1.337a1.336 1.336 0 0 0-1.313 1.314zm-4.032.023a1.336 1.336 0 1 0 2.672 0 1.336 1.336 0 0 0-2.672 0z"/></g></g></g></g></g></g></svg>