<svg xmlns="http://www.w3.org/2000/svg" width="36" height="40" viewBox="0 0 36 40"><g><g><g/><g><g><g><path fill="#ff9800" d="M29.025 22.636a8 8 0 0 0-11.07 11.069l1.117-.728a6.667 6.667 0 1 1 1.952 1.953l-.728 1.117a8 8 0 0 0 8.729-13.41z"/></g></g></g><g><g><g><path fill="#ff9800" d="M27.86 27.2l-4.528 4.529-1.53-1.529-.942.943 2 2a.667.667 0 0 0 .943 0l5-5z"/></g></g></g><g><g><g><path d="M13.99 22.67h-10v1.333h10z"/></g></g></g><g><g><g><path d="M15.334 20H8v1.333h7.334z"/></g></g></g><g><g><g><path d="M17.991 16.67H3.99v1.333h14.001z"/></g></g></g><g><g><g><path d="M24.001 14H8v1.333h16.001z"/></g></g></g><g><g><g><path d="M12.657 28.67H3.99v1.333h8.667z"/></g></g></g><g><g><g><path d="M12.667 26H8v1.333h4.667z"/></g></g></g><g><g><g><path d="M13.99 34.67h-10v1.333h10z"/></g></g></g><g><g><g><path d="M12.667 32H8v1.333h4.667z"/></g></g></g><g><g><g><path fill="#ff9800" d="M16.574 8.193a1.896 1.896 0 0 0-.966-1.134l-1.3-.65a.57.57 0 0 1 .255-1.079h.195a.57.57 0 0 1 .569.57v.097h1.333V5.9a1.9 1.9 0 0 0-1.333-1.807V3.33h-1.333v.763a1.896 1.896 0 0 0-.282 3.509l1.3.65a.57.57 0 0 1-.254 1.078h-.195a.57.57 0 0 1-.57-.569v-.097H12.66v.097a1.9 1.9 0 0 0 1.334 1.806v.764h1.333v-.764a1.896 1.896 0 0 0 1.247-2.374z"/></g></g></g><g><g><g><path d="M34.674 33.034c-2.04 5.52-8.169 8.342-13.689 6.302H1.327a.667.667 0 0 1-.667-.666V2.667A2.667 2.667 0 0 1 3.327 0h25.335a2.667 2.667 0 0 1 2.667 2.667v2.667a.667.667 0 0 1-.667.666H27.33v13.02c.353.09.701.199 1.043.325 5.52 2.04 8.342 8.169 6.302 13.69zM27.33 4.667h2.667v-2a1.333 1.333 0 1 0-2.667 0zm-8.862 33.336a10.652 10.652 0 0 1-4.388-10.027c.746-5.835 6.081-9.961 11.916-9.215V2.667c.003-.47.131-.93.371-1.334H3.326c-.736 0-1.333.597-1.333 1.334v35.336zm15.529-8.667a9.344 9.344 0 0 0-9.334-9.334 9.334 9.334 0 1 0 9.334 9.334z"/></g></g></g><g><g><g><path d="M6.663 14H5.33v1.333h1.333z"/></g></g></g><g><g><g><path d="M6.663 20H5.33v1.333h1.333z"/></g></g></g><g><g><g><path d="M6.663 26H5.33v1.333h1.333z"/></g></g></g><g><g><g><path d="M6.663 32H5.33v1.333h1.333z"/></g></g></g></g></g></svg>