<svg xmlns="http://www.w3.org/2000/svg" width="34" height="40" viewBox="0 0 34 40"><g><g><g/><g><g><g><path fill="#212121" d="M14.771 3.08H8.975a.857.857 0 0 0-.855.855c0 .47.385.855.855.855h5.796c.47 0 .855-.385.855-.855a.852.852 0 0 0-.855-.855z"/></g></g></g><g><g><g><path fill="#212121" d="M14.513 35.152a2.636 2.636 0 0 1-2.633 2.641 2.656 2.656 0 0 1-2.65-2.641 2.638 2.638 0 0 1 2.642-2.642 2.638 2.638 0 0 1 2.641 2.642zm-1.71.008a.927.927 0 0 0-.923-.932.941.941 0 0 0-.94.932c0 .513.419.932.932.932a.934.934 0 0 0 .931-.932z"/></g></g></g><g><g><g><path fill="#212121" d="M30.148 11.54c1.94 0 3.522 1.617 3.514 3.566v9.797c0 1.949-1.573 3.565-3.522 3.565h-6.737v8.027A3.506 3.506 0 0 1 19.89 40H3.852A3.515 3.515 0 0 1 .33 36.486V3.514A3.52 3.52 0 0 1 3.852 0h16.055a3.506 3.506 0 0 1 3.505 3.514v8.027zM2.04 6.678h19.662V3.505c0-.992-.812-1.795-1.804-1.795H3.852A1.8 1.8 0 0 0 2.04 3.514zm19.662 25.296H2.04v4.522c0 1 .812 1.804 1.812 1.804h16.055c1 0 1.795-.812 1.795-1.804zm0-3.497h-9.378c-1.95 0-3.53-1.616-3.53-3.565v-9.805c0-1.95 1.58-3.565 3.53-3.565h9.378V8.378H2.04v21.885h19.662zM31.97 15.072c0-1.01-.82-1.821-1.82-1.821H12.323c-1.009 0-1.82.82-1.82 1.82v9.78c0 1.01.82 1.821 1.82 1.821H30.14c1.009 0 1.82-.82 1.82-1.82h.01z"/></g></g></g><g><g><g><path fill="#ff9800" d="M24.578 23.17H12.105a.857.857 0 0 0-.855.855c0 .47.385.855.855.855h12.473c.47 0 .855-.385.855-.855a.857.857 0 0 0-.855-.855z"/></g></g></g><g><g><g><path fill="#ff9800" d="M19.197 19.544a2.639 2.639 0 0 1-3.634.872 2.653 2.653 0 0 1-1.385.394 2.58 2.58 0 0 1-1.376-.394 2.639 2.639 0 0 1-.872-3.633 2.639 2.639 0 0 1 3.633-.872 2.632 2.632 0 0 1 2.762 0 2.639 2.639 0 0 1 .872 3.633zm-1.317-1.376a.934.934 0 0 0-.932-.932.921.921 0 0 0-.718.342.874.874 0 0 1-.667.316.874.874 0 0 1-.667-.316.921.921 0 0 0-.718-.342.923.923 0 0 0-.931.932c0 .513.418.932.931.932a.947.947 0 0 0 .718-.342.864.864 0 0 1 1.334 0c.18.214.436.342.718.342a.934.934 0 0 0 .932-.932z"/></g></g></g></g></g></svg>