<svg xmlns="http://www.w3.org/2000/svg" width="40" height="40" viewBox="0 0 40 40"><g><g><g/><g><g><g><path fill="#ff9800" d="M19.996 23.996a1.333 1.333 0 1 1 1.334-1.333h1.333a2.667 2.667 0 0 0-2-2.572v-.761H19.33v.761a2.661 2.661 0 0 0 .666 5.239 1.333 1.333 0 1 1-1.333 1.333H17.33a2.667 2.667 0 0 0 2 2.572v.761h1.333v-.761a2.661 2.661 0 0 0-.667-5.239z"/></g></g></g><g><g><g><path fill="#ff9800" d="M28.672 24.666A8.666 8.666 0 1 1 20.006 16a8.676 8.676 0 0 1 8.666 8.666zm-1.333 0A7.333 7.333 0 1 0 20.006 32a7.341 7.341 0 0 0 7.333-7.333z"/></g></g></g><g><g><g><path fill="#212121" d="M37.334 14.666v19.998h2c.367 0 .666.299.666.667v4a.667.667 0 0 1-.667.667H.67a.667.667 0 0 1-.666-.667v-4c0-.368.298-.666.666-.666h2v-20H.667A.667.667 0 0 1 0 14v-2.666c0-.009.005-.016.005-.024a.657.657 0 0 1 .043-.213c.006-.008.006-.017.006-.025a.666.666 0 0 1 .133-.196.767.767 0 0 1 .062-.05.678.678 0 0 1 .097-.076L19.678.083a.663.663 0 0 1 .644 0L39.654 10.75a.677.677 0 0 1 .097.076.776.776 0 0 1 .062.05c.055.057.1.123.133.196.006.008.006.017.006.025.026.068.04.14.043.213 0 .008.005.015.005.024v2.666a.667.667 0 0 1-.667.667zm-34.076-4h33.487L20 1.428zM1.336 35.998v2.666h37.33v-2.666zm5.333-1.334V14.666H4.002v19.998zm25.332 0V14.666H8.002v19.998zm4 0V14.666h-2.667v19.998zm2.666-21.331v-1.334H1.336v1.334z"/></g></g></g></g></g></svg>