<svg xmlns="http://www.w3.org/2000/svg" width="27" height="45" viewBox="0 0 27 45"><g><g><g/><g><g><g><path fill="#ff9800" d="M6.665 13.388a.66.66 0 1 0 0-1.318H4.709a.66.66 0 0 0-.659.66v7.103c0 .364.295.659.66.659h14.738a.66.66 0 0 0 .659-.66V12.73a.66.66 0 0 0-.66-.659H9.75a.66.66 0 1 0 0 1.318h9.038v5.785H5.368v-5.785z"/></g><g><path fill="#ff9800" d="M8.387 25.878a.66.66 0 0 1-.66.659H4.71a.66.66 0 0 1-.659-.66V22.86a.66.66 0 0 1 .66-.659h3.018a.66.66 0 0 1 .659.66zm-1.318-2.36h-1.7v1.7h1.7z"/></g><g><path fill="#ff9800" d="M14.247 25.878a.66.66 0 0 1-.66.659H10.57a.66.66 0 0 1-.659-.66V22.86a.66.66 0 0 1 .66-.659h3.018a.66.66 0 0 1 .659.66zm-1.318-2.36h-1.7v1.7h1.7z"/></g><g><path fill="#ff9800" d="M20.107 25.878a.66.66 0 0 1-.66.659H16.43a.66.66 0 0 1-.659-.66V22.86a.66.66 0 0 1 .66-.659h3.018a.66.66 0 0 1 .66.66zm-1.318-2.36h-1.7v1.7h1.7z"/></g><g><path fill="#ff9800" d="M8.387 31.908a.66.66 0 0 1-.66.659H4.71a.66.66 0 0 1-.659-.66V28.89a.66.66 0 0 1 .66-.659h3.018a.66.66 0 0 1 .659.66zm-1.318-2.36h-1.7v1.7h1.7z"/></g><g><path fill="#ff9800" d="M14.247 31.908a.66.66 0 0 1-.66.659H10.57a.66.66 0 0 1-.659-.66V28.89a.66.66 0 0 1 .66-.659h3.018a.66.66 0 0 1 .659.66zm-1.318-2.36h-1.7v1.7h1.7z"/></g><g><path fill="#ff9800" d="M20.107 31.908a.66.66 0 0 1-.66.659H16.43a.66.66 0 0 1-.659-.66V28.89a.66.66 0 0 1 .66-.659h3.018a.66.66 0 0 1 .66.66zm-1.318-2.36h-1.7v1.7h1.7z"/></g><g><path fill="#ff9800" d="M7.728 34.27a.66.66 0 0 1 .66.66v3.018a.66.66 0 0 1-.66.659H4.709a.66.66 0 0 1-.659-.66V34.93a.66.66 0 0 1 .66-.659zm-.66 1.318h-1.7v1.7h1.7z"/></g><g><path fill="#ff9800" d="M13.588 34.27a.66.66 0 0 1 .659.66v3.018a.66.66 0 0 1-.66.659H10.57a.66.66 0 0 1-.659-.66V34.93a.66.66 0 0 1 .66-.659zm-.66 1.318h-1.7v1.7h1.7z"/></g><g><path fill="#ff9800" d="M19.448 34.27a.66.66 0 0 1 .66.66v3.018a.66.66 0 0 1-.66.659h-3.019a.66.66 0 0 1-.659-.66V34.93a.66.66 0 0 1 .66-.659zm-.66 1.318h-1.7v1.7h1.7z"/></g><g><path fill="#212121" d="M25.181 12.066V9.397H23.66v28.869h1.522V15.152a.66.66 0 1 1 1.319 0v23.773a.66.66 0 0 1-.66.66h-2.18v1.914a.66.66 0 0 1-.66.66h-1.383v2.182a.66.66 0 0 1-.66.659H3.202a.66.66 0 0 1-.66-.66v-2.182H1.16A.66.66 0 0 1 .5 41.5v-5.37a.66.66 0 1 1 1.318 0v4.711h20.523V6.823h-4.72v2.055h.673a.66.66 0 1 1 0 1.319H5.864a.66.66 0 1 1 0-1.319h.673V6.823H1.818v26.221a.66.66 0 1 1-1.318 0V6.164a.66.66 0 0 1 .66-.66h5.377V.66A.66.66 0 0 1 7.197 0h9.765a.66.66 0 0 1 .66.66v4.845H23a.66.66 0 0 1 .66.659v1.915h2.18a.66.66 0 0 1 .66.66v3.328a.66.66 0 1 1-1.319 0zm-8.878-3.188v-7.56H7.855v7.56zm3.995 34.804v-1.523H3.86v1.523z"/></g><g><path fill="#212121" d="M10.04 4.158h4.083a.66.66 0 1 0 0-1.318H10.04a.66.66 0 1 0 0 1.318z"/></g><g><path fill="#212121" d="M14.123 6.04H10.04a.66.66 0 1 0 0 1.318h4.084a.66.66 0 1 0 0-1.318z"/></g></g></g></g></g></svg>