<svg xmlns="http://www.w3.org/2000/svg" width="26" height="26" viewBox="0 0 26 26"><g><g><path fill="#fff" d="M.41 25.606l1.763-6.263a12.534 12.534 0 0 1-1.73-6.37C.442 6.04 6.082.4 13.015.4c6.932 0 12.573 5.64 12.573 12.573 0 6.933-5.64 12.573-12.573 12.573-2.16 0-4.276-.553-6.147-1.603zm6.789-3.95l.385.235a10.42 10.42 0 0 0 5.432 1.523c5.756 0 10.44-4.684 10.44-10.44 0-5.758-4.683-10.441-10.44-10.441s-10.44 4.683-10.44 10.44c0 2.006.57 3.954 1.648 5.633l.259.404-1.016 3.607z"/></g><g><path fill="#fff" d="M9.485 7.116l-.816-.045a.987.987 0 0 0-.701.24c-.396.344-1.028 1.008-1.222 1.873-.29 1.29.158 2.87 1.316 4.45 1.159 1.58 3.318 4.108 7.136 5.187 1.23.348 2.198.114 2.945-.364.591-.378.999-.985 1.146-1.672l.13-.608a.423.423 0 0 0-.236-.473l-2.758-1.27a.423.423 0 0 0-.511.125l-1.083 1.403a.31.31 0 0 1-.348.104c-.741-.26-3.224-1.3-4.587-3.925a.313.313 0 0 1 .04-.35l1.034-1.196a.423.423 0 0 0 .07-.442L9.85 7.372a.423.423 0 0 0-.365-.256z"/></g></g></svg>