<svg xmlns="http://www.w3.org/2000/svg" width="24" height="26" viewBox="0 0 24 26"><g><g><g><path fill="#fff" d="M23.384 6.603c.711 3.247.711 6.54 0 9.786l-.007.029c-.575 2.324-3.168 4.82-5.549 5.338l-.027.006c-1.925.367-3.864.55-5.802.55-.571 0-1.142-.018-1.712-.05l-2.63 2.734c-.65.677-1.795.216-1.795-.723v-2.595c-2.292-.655-4.691-3.035-5.242-5.26l-.007-.029c-.71-3.246-.71-6.539 0-9.786l.007-.028c.575-2.325 3.168-4.82 5.548-5.338l.028-.006a30.833 30.833 0 0 1 11.605 0l.027.006c2.381.519 4.974 3.013 5.549 5.338zm-2.08.471c-.385-1.517-2.352-3.402-3.917-3.75a28.717 28.717 0 0 0-10.777 0c-1.564.348-3.532 2.233-3.917 3.75-.64 2.935-.64 5.91 0 8.844.385 1.517 2.353 3.403 3.917 3.75v.001c.07.014.121.074.121.145v4.3c0 .214.263.32.412.164l2.042-2.095 1.92-1.971a.146.146 0 0 1 .109-.044c2.061.057 4.125-.11 6.173-.499 1.564-.348 3.532-2.234 3.916-3.75.64-2.935.64-5.91 0-8.845z"/></g><g><path fill="#fff" d="M15.398 17.902c-.24-.073-.47-.122-.683-.21-2.205-.915-4.234-2.095-5.842-3.905-.914-1.029-1.63-2.19-2.235-3.42-.286-.582-.528-1.188-.775-1.79-.224-.549.107-1.116.455-1.53a3.592 3.592 0 0 1 1.203-.903c.356-.171.707-.073.967.229.561.651 1.077 1.336 1.494 2.092.257.464.187 1.032-.279 1.349-.113.076-.216.167-.321.253-.093.077-.18.153-.243.256a.7.7 0 0 0-.047.616c.574 1.577 1.542 2.804 3.13 3.465.253.105.509.228.801.194.49-.057.65-.595.993-.876.335-.274.764-.278 1.126-.049.362.23.712.475 1.06.723.343.244.684.482 1 .76.303.268.407.618.236.98-.313.665-.768 1.218-1.424 1.57-.186.1-.407.132-.616.196.209-.064-.24-.073 0 0z"/></g><g><path fill="#fff" d="M12.01 5.381c2.884.081 5.254 1.995 5.761 4.847.087.486.118.983.156 1.476.016.207-.101.404-.325.407-.231.003-.335-.19-.35-.398-.03-.41-.05-.823-.107-1.23-.299-2.149-2.012-3.926-4.15-4.308-.323-.057-.652-.072-.978-.106-.206-.022-.476-.035-.522-.29-.038-.215.143-.387.348-.397.055-.004.111-.001.167 0-.056-.001 2.884.08 0 0z"/></g><g><path fill="#fff" d="M16.394 11.072c-.005.036-.008.12-.029.2-.076.29-.515.326-.616.034a.872.872 0 0 1-.035-.279c0-.61-.134-1.22-.442-1.752a3.262 3.262 0 0 0-1.368-1.284 3.934 3.934 0 0 0-1.09-.335c-.165-.027-.33-.043-.496-.066-.2-.028-.307-.156-.297-.353.008-.185.144-.318.345-.306.662.037 1.301.18 1.89.492 1.197.634 1.88 1.634 2.08 2.97.009.06.023.12.028.181.011.15.018.3.03.498-.012-.198-.005.036 0 0z"/></g><g><path fill="#fff" d="M14.591 11.002c-.24.004-.37-.13-.395-.35-.017-.155-.03-.311-.068-.461a1.297 1.297 0 0 0-.478-.75 1.249 1.249 0 0 0-.39-.189c-.177-.051-.36-.037-.537-.08-.192-.047-.298-.203-.268-.382a.347.347 0 0 1 .366-.28c1.118.082 1.917.66 2.031 1.976.008.093.018.191-.003.28-.035.152-.148.229-.258.236.11-.007-.24.004 0 0z"/></g></g></g></svg>