<svg xmlns="http://www.w3.org/2000/svg" width="25" height="25" viewBox="0 0 25 25"><g><g><g/><g><g><path fill="#fff" d="M22.08 9.3l.73-.74.364.365a.516.516 0 0 1 0 .74.489.489 0 0 1-.365.155.489.489 0 0 1-.364-.156z"/></g><g><path fill="#fff" d="M23.173 9.665l-2.208 2.208a.516.516 0 0 0 0-.74l-.365-.364L22.08 9.3l.364.365c.094.104.229.156.364.156.136 0 .271-.052.365-.156z"/></g><g><path fill="#fff" d="M20.964 11.135a.516.516 0 0 1 0 .74.505.505 0 0 1-.364.155.529.529 0 0 1-.375-.156l-.365-.364.74-.74z"/></g><g><path fill="#fff" d="M20.236 5.978l2.573 2.584-.73.74-2.583-2.584a.516.516 0 0 1 0-.74.535.535 0 0 1 .74 0z"/></g><g><path fill="#fff" d="M20.608 12.03c.136 0 .26-.051.365-.155l-2.208 2.208a.535.535 0 0 0 0-.74l-.365-.364 1.469-1.469.364.365c.104.104.24.156.375.156z"/></g><g><path fill="#fff" d="M20.602 10.77l-.74.74-1.104-1.115a.522.522 0 0 1 0-.729.516.516 0 0 1 .74 0z"/></g><g><path fill="#fff" d="M18.025 14.084l-.365-.364.74-.74.364.365a.535.535 0 0 1 0 .74.523.523 0 0 1-.364.155.529.529 0 0 1-.375-.156z"/></g><g><path fill="#fff" d="M18.4 12.98l-.74.74-1.104-1.104a.516.516 0 0 1 0-.74.516.516 0 0 1 .74 0z"/></g><g><path fill="#fff" d="M18.398 14.24c.125 0 .26-.051.365-.155l-2.208 2.208a.522.522 0 0 0 0-.73l-.365-.364 1.469-1.479.364.365c.105.104.24.156.375.156z"/></g><g><path fill="#fff" d="M16.554 15.565a.522.522 0 0 1-.364.885.529.529 0 0 1-.375-.156l-.365-.365.74-.729z"/></g><g><path fill="#fff" d="M16.188 16.45c.125 0 .26-.051.365-.155l-2.208 2.208a.522.522 0 0 0 0-.73l-.365-.364 1.469-1.479.364.365c.105.104.24.156.375.156z"/></g><g><path fill="#fff" d="M14.344 17.775a.522.522 0 0 1-.375.885.523.523 0 0 1-.364-.156l-.365-.365.74-.729z"/></g><g><path fill="#fff" d="M13.608 12.616l2.583 2.584-.74.729-2.583-2.584a.522.522 0 0 1 0-.729.516.516 0 0 1 .74 0z"/></g><g><path fill="#fff" d="M14.343 18.505l-2.198 2.198a.53.53 0 0 0-.01-.72l-.365-.364 1.469-1.479.364.365c.105.104.24.156.365.156.135 0 .27-.052.375-.156z"/></g><g><path fill="#fff" d="M12.136 17.028a.516.516 0 0 1 0-.74.522.522 0 0 1 .73 0l1.114 1.115-.74.73z"/></g><g><path fill="#fff" d="M12.134 19.975a.53.53 0 0 1 .01.718l-.03.032a.522.522 0 0 1-.355.135.54.54 0 0 1-.364-.146l-.365-.364.74-.74z"/></g><g><path fill="#fff" d="M11.773 19.613l-.74.74-1.115-1.115a.535.535 0 0 1 0-.74.535.535 0 0 1 .74 0z"/></g><g><path fill="#fff" d="M12.112 20.725l-2.197 2.198a.516.516 0 0 0 0-.74l-.365-.364 1.48-1.469.364.365a.54.54 0 0 0 .364.145c.125 0 .25-.041.354-.135z"/></g><g><path fill="#fff" d="M9.914 22.185a.516.516 0 0 1-.365.885.52.52 0 0 1-.364-.146l-.365-.364.73-.74z"/></g><g><path fill="#fff" d="M6.976 19.238l2.573 2.584-.73.74-2.583-2.584a.516.516 0 0 1 0-.74.535.535 0 0 1 .74 0z"/></g><g><path fill="#fff" d="M7.343 23.289a.535.535 0 0 0 .74 0l.74-.73.364.365a.52.52 0 0 0 .365.146.52.52 0 0 0 .364-.146l-1.104 1.104a1.543 1.543 0 0 1-1.104.448c-.396 0-.792-.146-1.104-.448L.718 18.132a1.519 1.519 0 0 1-.458-1.104c0-.416.156-.812.458-1.104L16.188.455c.582-.593 1.614-.593 2.207 0l5.886 5.896c.302.292.458.688.458 1.104 0 .417-.156.802-.458 1.104l-1.104 1.105a.516.516 0 0 0 0-.74l-.365-.365.74-.74a.546.546 0 0 0 0-.74l-5.896-5.884a.516.516 0 0 0-.74 0L1.448 16.664a.52.52 0 0 0-.146.364c0 .136.052.271.146.365z"/></g></g></g></g></svg>