<svg xmlns="http://www.w3.org/2000/svg" width="25" height="25" viewBox="0 0 25 25"><g><g><g/><g><g><path fill="#fff" d="M24.479 13.02c.292 0 .52-.228.52-.52 0-.292-.228-.52-.52-.52h-.52v1.04z"/></g><g><path fill="#fff" d="M13.02 13.02h10.938v-1.04H13.021z"/></g><g><path fill="#fff" d="M22.396 0H12.5c.292 0 .52.23.52.52v.522h9.376a1.56 1.56 0 0 1 1.562 1.562v9.375h.521c.292 0 .521.23.521.521V2.604A2.605 2.605 0 0 0 22.396 0z"/></g><g><path fill="#fff" d="M25 22.396V12.5c0 .292-.23.52-.52.52h-.522v9.376a1.56 1.56 0 0 1-1.562 1.562H13.02v.521c0 .292-.23.521-.521.521h9.896A2.605 2.605 0 0 0 25 22.396z"/></g><g><path fill="#fff" d="M20.833 18.75c.292 0 .52-.23.52-.52 0-.293-.228-.522-.52-.522h-4.167c-.291 0-.52.23-.52.521 0 .292.229.521.52.521z"/></g><g><path fill="#fff" d="M20.833 8.333c.292 0 .52-.229.52-.52 0-.292-.228-.521-.52-.521h-4.167c-.291 0-.52.229-.52.52 0 .292.229.521.52.521z"/></g><g><path fill="#fff" d="M20.833 5.208c.292 0 .52-.229.52-.52 0-.292-.228-.521-.52-.521h-4.167c-.291 0-.52.229-.52.52 0 .292.229.521.52.521z"/></g><g><path fill="#fff" d="M13.021 1.042V.52c0-.292-.23-.521-.52-.521-.292 0-.522.23-.522.52v.522z"/></g><g><path fill="#fff" d="M11.98 11.98h1.041V1.041H11.98z"/></g><g><path fill="#fff" d="M11.98 13.02h1.041v-1.04H11.98z"/></g><g><path fill="#fff" d="M11.98 23.958h1.041V13.021H11.98z"/></g><g><path fill="#fff" d="M13.021 24.48v-.522H11.98v.521c0 .292.23.521.521.521.292 0 .521-.23.521-.52z"/></g><g><path fill="#fff" d="M1.042 13.02h10.937v-1.04H1.042z"/></g><g><path fill="#fff" d="M8.333 18.75c.292 0 .52-.23.52-.52 0-.293-.228-.522-.52-.522H6.771v1.042z"/></g><g><path fill="#fff" d="M8.177 5.052a.503.503 0 0 0 0-.73.489.489 0 0 0-.364-.155.489.489 0 0 0-.365.156L6.25 5.52l.73.729z"/></g><g><path fill="#fff" d="M7.448 8.177a.503.503 0 0 0 .73 0 .503.503 0 0 0 0-.729L6.978 6.25l-.729.73z"/></g><g><path fill="#fff" d="M5.518 6.251l.73.73.728-.73-.729-.73z"/></g><g><path fill="#fff" d="M6.771 17.708v-1.562c0-.292-.23-.521-.52-.521-.292 0-.522.23-.522.52v1.563z"/></g><g><path fill="#fff" d="M5.73 18.75H6.77v-1.042H5.73z"/></g><g><path fill="#fff" d="M6.771 20.312V18.75H5.73v1.562c0 .292.23.521.521.521.292 0 .521-.229.521-.52z"/></g><g><path fill="#fff" d="M6.25 6.98l-.729-.73-1.198 1.198a.503.503 0 0 0 0 .73.503.503 0 0 0 .73 0z"/></g><g><path fill="#fff" d="M5.729 18.75v-1.042H4.166c-.291 0-.52.23-.52.521 0 .292.229.521.52.521z"/></g><g><path fill="#fff" d="M5.052 4.323a.489.489 0 0 0-.364-.156.489.489 0 0 0-.365.156.503.503 0 0 0 0 .73L5.521 6.25l.73-.73z"/></g><g><path fill="#fff" d="M1.042 13.02v-1.04H.52c-.292 0-.521.228-.521.52 0 .292.23.52.52.52z"/></g><g><path fill="#fff" d="M0 22.396A2.605 2.605 0 0 0 2.604 25H12.5a.516.516 0 0 1-.52-.52v-.522H2.603a1.56 1.56 0 0 1-1.562-1.562V13.02H.52A.516.516 0 0 1 0 12.5z"/></g><g><path fill="#fff" d="M1.042 2.604a1.56 1.56 0 0 1 1.562-1.562h9.375V.52c0-.292.23-.521.521-.521H2.604A2.605 2.605 0 0 0 0 2.604V12.5c0-.292.23-.52.52-.52h.522z"/></g></g></g></g></svg>